<?xml version="1.0" encoding="utf-8"?>
<!-- Generator: Adobe Illustrator 21.0.2, SVG Export Plug-In . SVG Version: 6.00 Build 0)  -->
<svg version="1.1" id="Layer_1" xmlns="http://www.w3.org/2000/svg" xmlns:xlink="http://www.w3.org/1999/xlink" x="0px" y="0px"
	 viewBox="0 0 13 11" style="enable-background:new 0 0 13 11;" xml:space="preserve">
<style type="text/css">
	.st0{fill:#FFFFFF;}
</style>
<g>
	<path class="st0" d="M9.9,10.1c0.4-1.1,0.5-2.3,0-3.2C9.3,5.9,8,5.4,6.2,5.4l-0.4,0v2.5L2,4.1l3.8-3.8v2.5l0.4,0
		c2.2,0,3.8,0.8,4.5,2.4C11.3,6.6,11,8.5,9.9,10.1z"/>
	<path class="st0" d="M5.7,0.6v2.1v0.3l0.3,0c0.1,0,0.2,0,0.2,0c2.2,0,3.7,0.8,4.3,2.3c0.5,1.2,0.4,2.7-0.3,4.1
		c0.2-0.8,0.1-1.7-0.3-2.4c-0.6-1-1.9-1.6-3.7-1.6c-0.1,0-0.2,0-0.2,0l-0.2,0v0.2v2.1L2.2,4.1L5.7,0.6 M6,0L1.9,4.1L6,8.2V5.5
		c0.1,0,0.2,0,0.2,0c4.6,0,4.3,3.3,3.1,5.5c3-3.2,2.4-8.3-3.1-8.3c-0.1,0-0.2,0-0.2,0V0L6,0z"/>
</g>
</svg>
