<?xml version="1.0" encoding="utf-8"?>
<!-- Generator: Adobe Illustrator 19.0.0, SVG Export Plug-In . SVG Version: 6.00 Build 0)  -->
<svg version="1.1" id="Layer_1" xmlns="http://www.w3.org/2000/svg" xmlns:xlink="http://www.w3.org/1999/xlink" x="0px" y="0px"
	 viewBox="-299 391 13 11" style="enable-background:new -299 391 13 11;" xml:space="preserve">
<style type="text/css">
	.st0{fill:#E92225;}
</style>
<g>
	<path class="st0" d="M-296.2,394.5v6.7c0,0.4,0.3,0.7,0.7,0.7h6c0.4,0,0.7-0.3,0.7-0.7v-6.7H-296.2z M-294.2,400.5h-0.6v-4.7h0.7
		v4.7H-294.2z M-292.8,400.5h-0.7v-4.7h0.7V400.5z M-291.5,400.5h-0.7v-4.7h0.7V400.5z M-290.2,400.5h-0.6v-4.7h0.7v4.7H-290.2z"/>
	<path class="st0" d="M-288.7,392.5h-2.1v-0.8c0-0.3-0.2-0.5-0.5-0.5h-2.4c-0.3,0-0.5,0.2-0.5,0.5v0.8h-2.1c-0.3,0-0.5,0.2-0.5,0.5
		v0.8h8.6V393C-288.2,392.7-288.4,392.5-288.7,392.5z M-291.5,392.5h-2v-0.6h2V392.5z"/>
</g>
</svg>
