<?xml version="1.0" encoding="utf-8"?>
<!-- Generator: Adobe Illustrator 21.0.2, SVG Export Plug-In . SVG Version: 6.00 Build 0)  -->
<svg version="1.1" id="Layer_1" xmlns="http://www.w3.org/2000/svg" xmlns:xlink="http://www.w3.org/1999/xlink" x="0px" y="0px"
	 viewBox="0 0 13 11" style="enable-background:new 0 0 13 11;" xml:space="preserve">
<style type="text/css">
	.st0{fill:#FFFFFF;}
</style>
<g>
	<path class="st0" d="M2.8,3.5v6.7c0,0.4,0.3,0.7,0.7,0.7h6c0.4,0,0.7-0.3,0.7-0.7V3.5H2.8z M4.8,9.5H4.2V4.8h0.7V9.5z M6.2,9.5H5.5
		V4.8h0.7V9.5z M7.5,9.5H6.8V4.8h0.7V9.5z M8.8,9.5H8.2V4.8h0.7V9.5z"/>
	<path class="st0" d="M10.3,1.5H8.2V0.7c0-0.3-0.2-0.5-0.5-0.5H5.3c-0.3,0-0.5,0.2-0.5,0.5v0.8H2.7C2.4,1.5,2.2,1.7,2.2,2v0.8h8.6V2
		C10.8,1.7,10.6,1.5,10.3,1.5z M7.5,1.5h-2V0.9h2V1.5z"/>
</g>
</svg>
