<?xml version="1.0" encoding="utf-8"?>
<!-- Generator: Adobe Illustrator 21.0.2, SVG Export Plug-In . SVG Version: 6.00 Build 0)  -->
<svg version="1.1" id="Layer_1" xmlns="http://www.w3.org/2000/svg" xmlns:xlink="http://www.w3.org/1999/xlink" x="0px" y="0px"
	 viewBox="0 0 15 15" style="enable-background:new 0 0 15 15;" xml:space="preserve">
<style type="text/css">
	.st0{fill:#B7B3AF;}
</style>
<path class="st0" d="M5.3,5.7h1.8v1.8H5.3V5.7z M7.9,5.7h1.8v1.8H7.9V5.7z M10.6,5.7h1.8v1.8h-1.8V5.7z M2.6,11.1h1.8v1.8H2.6V11.1z
	 M5.3,11.1h1.8v1.8H5.3V11.1z M7.9,11.1h1.8v1.8H7.9V11.1z M5.3,8.4h1.8v1.8H5.3V8.4z M7.9,8.4h1.8v1.8H7.9V8.4z M10.6,8.4h1.8v1.8
	h-1.8V8.4z M2.6,8.4h1.8v1.8H2.6V8.4z M12.4,0.3v0.9h-1.8V0.3H4.4v0.9H2.6V0.3H0.8v14.4h13.5V0.3H12.4z M13.3,13.8H1.7V3.9h11.7
	V13.8z"/>
</svg>
