<?xml version="1.0" encoding="utf-8"?>
<!-- Generator: Adobe Illustrator 19.1.0, SVG Export Plug-In . SVG Version: 6.00 Build 0)  -->
<svg version="1.1" id="Layer_1" xmlns="http://www.w3.org/2000/svg" xmlns:xlink="http://www.w3.org/1999/xlink" x="0px" y="0px"
	 viewBox="0 0 482 96" enable-background="new 0 0 482 96" xml:space="preserve">
<g>
	<polygon fill="#B7B4B0" points="461.455,54.771 480.271,34.803 470.671,34.803 451.279,54.963 451.279,-0.141 442.639,-0.141 
		442.639,76.659 451.279,76.659 451.279,62.067 454.447,58.803 470.671,76.659 481.423,76.563 	"/>
	<path fill="#B7B4B0" d="M440.375,36.099c-0.642-0.417-1.344-0.783-2.112-1.104c-0.768-0.321-1.584-0.576-2.448-0.768
		c-0.864-0.192-1.746-0.288-2.64-0.288c-1.92,0-3.633,0.288-5.136,0.864c-1.506,0.576-2.769,1.311-3.792,2.208
		c-1.026,0.897-1.824,1.857-2.4,2.88c-0.576,1.023-0.993,1.983-1.248,2.88v-7.968h-7.968v41.856h8.64V52.563
		c0-2.049,0.27-3.759,0.816-5.136c0.543-1.377,1.263-2.448,2.16-3.216c0.894-0.768,1.839-1.296,2.832-1.584
		c0.99-0.288,1.998-0.432,3.024-0.432c0.639,0,1.248,0.048,1.824,0.144c0.576,0.096,1.134,0.24,1.68,0.432
		c0.543,0.192,1.086,0.447,1.632,0.768c0.543,0.321,1.104,0.735,1.68,1.248l5.28-7.296
		C441.623,36.978,441.014,36.516,440.375,36.099"/>
	<polygon fill="#B7B4B0" points="345.079,76.947 362.359,34.803 354.488,34.803 342.775,64.467 331.447,38.451 327.512,38.451 
		316.664,63.987 304.855,34.803 296.599,34.803 313.783,76.947 317.623,76.947 329.431,50.067 341.24,76.947 	"/>
	<path fill="#B7B4B0" d="M296.445,69.651c-0.321,0.063-0.576,0.111-0.768,0.144c-0.192,0.033-0.399,0.048-0.624,0.048h-0.528
		c-0.96,0-1.776-0.081-2.448-0.24c-0.672-0.159-1.233-0.432-1.68-0.816c-0.447-0.384-0.783-0.927-1.008-1.632
		c-0.225-0.705-0.336-1.569-0.336-2.592V42.099h7.488v-7.296h-7.488V20.307l-8.64,0.192v14.304h-5.184v7.296h5.184v22.56
		c0,2.625,0.351,4.767,1.056,6.432c0.705,1.665,1.695,2.943,2.976,3.84c1.281,0.897,2.736,1.503,4.368,1.824
		c1.632,0.318,3.567,0.48,5.808,0.48h0.48c0.192,0,0.384-0.018,0.576-0.048c0.192-0.033,0.447-0.081,0.768-0.144V69.651z"/>
	<polygon fill="#B7B4B0" points="224.352,6.579 215.712,6.579 215.712,59.187 178.464,6.579 171.36,6.579 171.36,76.659 180,76.659 
		180,23.667 217.92,76.659 224.352,76.659 	"/>
	<path fill="#B7B4B0" d="M374.999,35.379c-2.688,1.152-5.04,2.769-7.056,4.848c-2.016,2.079-3.6,4.464-4.752,7.152
		s-1.728,5.535-1.728,8.544c0,3.264,0.606,6.255,1.824,8.976c1.215,2.721,2.862,5.04,4.944,6.96c2.079,1.92,4.446,3.393,7.104,4.416
		c2.655,1.023,5.424,1.536,8.304,1.536c3.198,0,6.192-0.561,8.976-1.68c2.784-1.119,5.214-2.721,7.296-4.8
		c2.079-2.079,3.696-4.545,4.848-7.392c1.152-2.847,1.728-5.904,1.728-9.168c0-3.072-0.591-5.904-1.776-8.496
		c-1.185-2.592-2.85-4.833-4.992-6.72c-2.145-1.887-4.608-3.345-7.392-4.368c-2.784-1.023-5.745-1.536-8.88-1.536
		C380.501,33.651,377.687,34.227,374.999,35.379 M378.647,69.507c-1.602-0.609-3.009-1.521-4.224-2.736
		c-1.218-1.215-2.178-2.784-2.88-4.704c-0.705-1.92-1.056-4.128-1.056-6.624c0-2.241,0.336-4.257,1.008-6.048
		c0.672-1.791,1.614-3.312,2.832-4.56c1.215-1.248,2.64-2.193,4.272-2.832c1.632-0.639,3.375-0.96,5.232-0.96
		c1.983,0,3.807,0.321,5.472,0.96c1.662,0.639,3.105,1.584,4.32,2.832c1.215,1.248,2.16,2.769,2.832,4.56
		c0.672,1.791,1.008,3.807,1.008,6.048c0,2.367-0.321,4.479-0.96,6.336c-0.642,1.857-1.584,3.423-2.832,4.704
		c-1.248,1.281-2.706,2.256-4.368,2.928c-1.665,0.672-3.522,1.008-5.568,1.008C381.944,70.419,380.246,70.116,378.647,69.507"/>
	<path fill="#B7B4B0" d="M271.344,48.483c-0.93-2.913-2.289-5.487-4.08-7.728c-1.794-2.241-3.984-3.984-6.576-5.232
		c-2.592-1.248-5.49-1.872-8.688-1.872c-3.009,0-5.841,0.543-8.496,1.632c-2.658,1.089-4.977,2.64-6.96,4.656
		c-1.986,2.016-3.522,4.401-4.608,7.152c-1.089,2.751-1.632,5.727-1.632,8.928c0,3.135,0.576,6.048,1.728,8.736
		c1.152,2.688,2.736,5.007,4.752,6.96s4.35,3.456,7.008,4.512c2.655,1.056,5.454,1.584,8.4,1.584c2.112,0,4.095-0.177,5.952-0.528
		c1.854-0.351,3.582-0.849,5.184-1.488c1.599-0.639,3.072-1.407,4.416-2.304c1.344-0.897,2.655-1.92,3.936-3.072l-4.608-5.76
		c-1.089,0.96-2.112,1.761-3.072,2.4c-0.96,0.639-2.001,1.215-3.12,1.728c-1.122,0.513-2.385,0.912-3.792,1.2
		c-1.41,0.288-2.976,0.432-4.704,0.432c-1.986,0-3.762-0.288-5.328-0.864c-1.569-0.576-2.946-1.392-4.128-2.448
		c-1.185-1.056-2.13-2.385-2.832-3.984c-0.705-1.599-1.152-3.393-1.344-5.376h33.984C272.736,54.483,272.271,51.396,271.344,48.483
		 M240.528,47.043c0.735-1.311,1.662-2.448,2.784-3.408c1.119-0.96,2.4-1.68,3.84-2.16c1.44-0.48,2.958-0.72,4.56-0.72
		c1.599,0,3.12,0.24,4.56,0.72c1.44,0.48,2.688,1.185,3.744,2.112c1.056,0.927,1.92,2.064,2.592,3.408s1.104,2.847,1.296,4.512
		H239.04C239.295,49.842,239.79,48.354,240.528,47.043"/>
</g>
<g>
	<path fill="#FFFFFF" d="M67.731,34.803l-12.96,29.76l-13.152-29.76h-8.736l17.184,38.208l-2.112,4.512
		c-0.705,1.47-1.44,2.88-2.208,4.224c-0.768,1.344-1.584,2.526-2.448,3.552c-0.864,1.023-1.713,1.839-2.544,2.448
		c-0.834,0.606-1.632,0.912-2.4,0.912c-0.321,0-0.657-0.033-1.008-0.096c-0.354-0.066-0.672-0.129-0.96-0.192
		c-0.288-0.066-0.546-0.144-0.768-0.24c-0.225-0.096-0.432-0.177-0.624-0.24l-2.4,6.912c0.255,0.129,0.543,0.255,0.864,0.384
		c0.318,0.126,0.72,0.24,1.2,0.336c0.48,0.096,1.008,0.174,1.584,0.24c0.576,0.063,1.215,0.096,1.92,0.096
		c1.278,0,2.526-0.192,3.744-0.576c1.215-0.384,2.463-1.041,3.744-1.968c1.278-0.93,2.544-2.208,3.792-3.84s2.448-3.666,3.6-6.096
		l23.232-48.576H67.731z"/>
	<polygon fill="#FFFFFF" points="46.963,6.579 0.115,6.579 0.115,14.451 18.547,14.451 18.547,76.659 27.955,76.659 27.955,14.451 
		46.963,14.451 	"/>
	<path fill="#FFFFFF" d="M162.56,48.483c-0.927-2.913-2.289-5.487-4.08-7.728c-1.791-2.241-3.984-3.984-6.576-5.232
		c-2.592-1.248-5.487-1.872-8.688-1.872c-3.009,0-5.841,0.543-8.496,1.632c-2.655,1.089-4.977,2.64-6.96,4.656
		c-1.983,2.016-3.519,4.401-4.608,7.152c-1.089,2.751-1.632,5.727-1.632,8.928c0,3.135,0.576,6.048,1.728,8.736
		c1.152,2.688,2.736,5.007,4.752,6.96c2.016,1.953,4.353,3.456,7.008,4.512c2.655,1.056,5.457,1.584,8.4,1.584
		c2.112,0,4.095-0.177,5.952-0.528s3.585-0.849,5.184-1.488c1.599-0.639,3.072-1.407,4.416-2.304s2.655-1.92,3.936-3.072
		l-4.608-5.76c-1.089,0.96-2.112,1.761-3.072,2.4c-0.96,0.639-2.001,1.215-3.12,1.728c-1.119,0.513-2.385,0.912-3.792,1.2
		c-1.407,0.288-2.976,0.432-4.704,0.432c-1.983,0-3.759-0.288-5.328-0.864c-1.569-0.576-2.943-1.392-4.128-2.448
		c-1.185-1.056-2.127-2.385-2.832-3.984c-0.705-1.599-1.152-3.393-1.344-5.376h33.984C163.952,54.483,163.487,51.396,162.56,48.483
		 M131.744,47.043c0.735-1.311,1.665-2.448,2.784-3.408s2.4-1.68,3.84-2.16s2.961-0.72,4.56-0.72c1.599,0,3.12,0.24,4.56,0.72
		c1.44,0.48,2.688,1.185,3.744,2.112c1.056,0.927,1.92,2.064,2.592,3.408c0.672,1.344,1.104,2.847,1.296,4.512h-24.864
		C130.511,49.842,131.009,48.354,131.744,47.043"/>
	<path fill="#FFFFFF" d="M93.443,34.851c-1.632,0.543-3.057,1.281-4.272,2.208c-1.218,0.927-2.226,1.968-3.024,3.12
		c-0.801,1.152-1.392,2.337-1.776,3.552v-8.928h-8.16v61.056h8.64V70.803c0.447,0.96,1.104,1.839,1.968,2.64
		s1.887,1.503,3.072,2.112c1.182,0.609,2.526,1.071,4.032,1.392c1.503,0.318,3.12,0.48,4.848,0.48c2.688,0,5.166-0.528,7.44-1.584
		c2.271-1.056,4.254-2.559,5.952-4.512c1.695-1.953,3.006-4.272,3.936-6.96c0.927-2.688,1.392-5.631,1.392-8.832
		c0-3.135-0.417-6.015-1.248-8.64c-0.834-2.625-2.064-4.896-3.696-6.816c-1.632-1.92-3.618-3.408-5.952-4.464
		c-2.337-1.056-4.977-1.584-7.92-1.584C96.818,34.035,95.075,34.308,93.443,34.851 M91.427,69.363
		c-1.44-0.639-2.721-1.584-3.84-2.832c-1.122-1.248-1.986-2.751-2.592-4.512c-0.609-1.761-0.912-3.729-0.912-5.904
		c0-2.175,0.303-4.191,0.912-6.048c0.606-1.857,1.47-3.441,2.592-4.752c1.119-1.311,2.415-2.319,3.888-3.024
		c1.47-0.705,3.006-1.056,4.608-1.056c2.046,0,3.855,0.369,5.424,1.104c1.566,0.735,2.862,1.776,3.888,3.12
		c1.023,1.344,1.791,2.88,2.304,4.608c0.51,1.728,0.768,3.615,0.768,5.664c0,2.175-0.306,4.161-0.912,5.952
		c-0.609,1.791-1.458,3.327-2.544,4.608c-1.089,1.281-2.4,2.271-3.936,2.976c-1.536,0.705-3.201,1.056-4.992,1.056
		C94.418,70.323,92.867,70.002,91.427,69.363"/>
</g>
</svg>
