<?xml version="1.0" standalone="no"?>
<!DOCTYPE svg PUBLIC "-//W3C//DTD SVG 1.1//EN" "http://www.w3.org/Graphics/SVG/1.1/DTD/svg11.dtd" >
<svg xmlns="http://www.w3.org/2000/svg" xmlns:xlink="http://www.w3.org/1999/xlink" version="1.1">
<metadata></metadata>
<defs>
<font id="momentumsansdeckninety" horiz-adv-x="1024" >
<font-face units-per-em="2048" ascent="1638" descent="-410" />
<missing-glyph horiz-adv-x="487" />
<glyph horiz-adv-x="0" />
<glyph horiz-adv-x="682" />
<glyph unicode=" "  horiz-adv-x="487" />
<glyph unicode="&#x09;" horiz-adv-x="487" />
<glyph unicode="&#xa0;" horiz-adv-x="487" />
<glyph unicode="!" horiz-adv-x="579" d="M193 891v604h202v-604l-57 -473h-90zM201 0v205h188v-205h-188z" />
<glyph unicode="&#x22;" horiz-adv-x="843" d="M145 1260v235h162v-235l-8 -279h-143zM537 1260v235h161v-233l-12 -281h-141z" />
<glyph unicode="#" horiz-adv-x="1300" d="M70 459v141h299l24 287h-276v141h289l40 467l109 -2l-41 -465h330l41 467l108 -2l-41 -465h279v-141h-291l-25 -287h271v-141h-283l-41 -459l-108 2l41 457h-330l-41 -459l-109 2l41 457h-286zM477 600h330l24 287h-329z" />
<glyph unicode="$" horiz-adv-x="1089" d="M63 174l76 141q57 -57 150.5 -102t189.5 -59v553q-211 92 -299 188t-88 242q0 147 107.5 245.5t279.5 110.5v123h117v-123q111 -10 204 -48t163 -104l-93 -127q-55 53 -126.5 87t-147.5 42v-512l6 -2q213 -96 308.5 -191t95.5 -255t-117 -262.5t-293 -116.5v-250h-117 v250q-135 10 -243.5 58.5t-172.5 111.5zM258 1137q0 -82 47 -134.5t174 -115.5v461q-98 -10 -159.5 -66.5t-61.5 -144.5zM596 150q109 8 177.5 70.5t68.5 160.5q0 80 -47 140.5t-199 131.5v-503z" />
<glyph unicode="%" horiz-adv-x="1667" d="M88 1122q0 80 25.5 152t70.5 125t105.5 85t130.5 32q76 0 137 -32t105.5 -84t68 -123t23.5 -149q0 -84 -24.5 -156.5t-69 -126.5t-105.5 -85t-133 -31q-63 0 -122.5 26.5t-107 76t-76 123t-28.5 167.5zM244 1120q0 -123 51 -190.5t123 -67.5q88 0 136 72t48 186 q0 113 -44 187.5t-134 74.5q-86 0 -133 -74.5t-47 -187.5zM264 0l965 1495h151l-964 -1495h-152zM915 387q0 80 26 152.5t70 126t105.5 85t132.5 31.5q76 0 137.5 -31.5t104.5 -84t66.5 -124t23.5 -149.5q0 -82 -24.5 -155.5t-68.5 -127t-105.5 -85t-135.5 -31.5 q-63 0 -122.5 26.5t-105.5 75.5t-75 123t-29 168zM1073 387q0 -125 51 -191.5t121 -66.5q88 0 136.5 70.5t48.5 187.5q0 115 -45.5 187.5t-135.5 72.5q-82 0 -129 -72.5t-47 -187.5z" />
<glyph unicode="&#x26;" horiz-adv-x="1458" d="M68 358q0 84 30.5 147.5t79.5 115t114.5 93.5t135.5 85l-35 32q-57 57 -116.5 144.5t-59.5 210.5q0 66 32 124t86 102t125.5 70.5t149.5 26.5q86 0 155 -26.5t118 -70.5t74.5 -102.5t25.5 -123.5q0 -127 -83 -215t-224 -176l440 -398q39 43 76 92.5t72 102.5l141 -88 q-39 -59 -80 -114.5t-86 -102.5l172 -156l-104 -139l-193 176q-109 -88 -239 -136t-287 -48q-115 0 -211 25.5t-165 72.5t-106.5 117.5t-37.5 158.5zM260 365q0 -111 97.5 -173.5t234.5 -62.5q111 0 211 40t190 112l-463 424q-127 -80 -198.5 -153.5t-71.5 -186.5zM389 1184 q0 -72 39 -137.5t96 -116.5l47 -43q117 76 181.5 142.5t64.5 146.5q0 82 -53 141t-158 59q-92 0 -154.5 -61.5t-62.5 -130.5z" />
<glyph unicode="'" horiz-adv-x="454" d="M145 1255v240h162v-240l-8 -286h-143z" />
<glyph unicode="(" horiz-adv-x="665" d="M61 600q0 166 47.5 314.5t127 268.5t184 210t217.5 141v-148q-72 -45 -140.5 -117.5t-119.5 -170t-83 -223t-32 -275.5q0 -131 26.5 -254t76 -228.5t119 -191.5t153.5 -143v-158q-121 61 -227.5 161.5t-183 227.5t-121 277.5t-44.5 308.5z" />
<glyph unicode=")" horiz-adv-x="665" d="M29 -213q78 53 147.5 132t122.5 179.5t85 222t32 259.5q0 160 -35 290.5t-89 232t-123.5 172t-139.5 111.5v148q106 -45 210.5 -132t184.5 -209t130 -277.5t50 -335.5q0 -168 -48 -317.5t-128 -271.5t-184.5 -216t-214.5 -150v162z" />
<glyph unicode="*" horiz-adv-x="843" d="M78 1190l65 147l236 -131l-37 289h166l-39 -289l242 127l53 -141l-264 -72l194 -188l-119 -103l-151 238l-150 -238l-118 101l194 192z" />
<glyph unicode="+" horiz-adv-x="1036" d="M63 608v140h383v372h144v-372h383v-140h-383v-372h-144v372h-383z" />
<glyph unicode="," horiz-adv-x="489" d="M31 -246q25 27 53.5 76t57 111.5t51 134t34.5 143.5h179q-18 -154 -89 -299t-159 -225z" />
<glyph unicode="-" horiz-adv-x="706" d="M92 463v155h522v-155h-522z" />
<glyph unicode="." horiz-adv-x="491" d="M156 0v256h180v-256h-180z" />
<glyph unicode="/" horiz-adv-x="651" d="M8 0l479 1495h156l-475 -1495h-160z" />
<glyph unicode="0" horiz-adv-x="1206" d="M82 739q0 156 32.5 298.5t97 249t164 170t232.5 63.5q135 0 233.5 -61.5t161 -165t92 -243t29.5 -294.5q0 -166 -31.5 -309.5t-97 -248t-165 -164t-234.5 -59.5q-117 0 -213 54.5t-162.5 153t-102.5 240.5t-36 316zM262 739q0 -133 21.5 -245.5t63.5 -192.5t104.5 -125 t146.5 -45q90 0 155.5 46t107.5 126t62.5 191.5t20.5 240.5q0 133 -18.5 248t-59.5 200t-106.5 133t-157.5 48q-86 0 -150.5 -46t-106.5 -129t-62.5 -199t-20.5 -251z" />
<glyph unicode="1" horiz-adv-x="770" d="M98 1075v168q100 8 193.5 81t169.5 173h117v-1497h-177v1247q-43 -57 -133 -110.5t-170 -61.5z" />
<glyph unicode="2" horiz-adv-x="1148" d="M66 0v57l655 686q68 70 118 158t50 189q0 123 -91 196.5t-231 73.5q-152 0 -238.5 -90t-86.5 -242h-164q2 233 140 362.5t368 129.5q104 0 192 -28t151.5 -80t99.5 -129t36 -173q0 -162 -66.5 -270.5t-142.5 -184.5l-491 -497h720v-158h-1019z" />
<glyph unicode="3" horiz-adv-x="1142" d="M18 145l93 138q63 -51 167.5 -101.5t256.5 -50.5q180 0 280 92t100 228q0 125 -97 198.5t-251 73.5h-262v156h258q137 0 220 73.5t83 171.5q0 90 -77.5 166t-219.5 76q-152 0 -241.5 -61.5t-145.5 -141.5l-104 119q29 43 74 85t107.5 76t142 55.5t180.5 21.5 q211 0 335.5 -101.5t124.5 -265.5q0 -131 -85 -224t-197 -122q137 -27 233.5 -122t96.5 -245q0 -88 -34 -172t-101.5 -148.5t-169 -104.5t-234.5 -40q-195 0 -327 52.5t-206 117.5z" />
<glyph unicode="4" horiz-adv-x="1189" d="M35 389v121l756 1012h124v-987h259v-146h-259v-389h-163v389h-717zM227 535h527v710z" />
<glyph unicode="5" horiz-adv-x="1177" d="M63 162l91 133q61 -63 163.5 -114.5t241.5 -51.5q172 0 271.5 110.5t99.5 282.5q0 162 -94.5 255t-239.5 93q-111 0 -202 -46t-136 -134l-117 31l62 774h792v-162h-663l-35 -479q41 70 137 117t207 47q209 0 339 -134t130 -354q0 -119 -38 -221t-108.5 -176t-172 -116 t-226.5 -42q-172 0 -302 57.5t-200 129.5z" />
<glyph unicode="6" horiz-adv-x="1159" d="M78 508q0 127 38 245.5t104.5 230.5t158.5 220.5t199 212.5l124 123l117 -115l-100 -96q-166 -164 -287 -316.5t-147 -256.5q33 68 124 130t224 62q109 0 197 -37t148 -101.5t93 -153.5t33 -191q0 -100 -37 -189.5t-103.5 -156t-158.5 -105.5t-203 -39q-117 0 -213 39 t-165.5 109t-107.5 169t-38 216zM256 473q0 -147 91 -245.5t255 -98.5q74 0 135.5 26.5t104.5 71.5t66.5 106.5t23.5 127.5q0 70 -21.5 131t-63.5 107t-103.5 73t-143.5 27q-66 0 -128 -22.5t-110.5 -64.5t-77 -102.5t-28.5 -136.5z" />
<glyph unicode="7" d="M33 1331v164h975l20 -65l-727 -1444l-154 71l650 1274h-764z" />
<glyph unicode="8" horiz-adv-x="1234" d="M90 399q0 84 31 153t78 119t106.5 79.5t114.5 35.5q-47 12 -98.5 41t-92.5 72t-67.5 100.5t-26.5 126.5q0 90 37 163t102.5 124t153.5 79t188 28q223 0 354.5 -107.5t133.5 -275.5q0 -68 -23.5 -126.5t-63.5 -102.5t-90.5 -74.5t-101.5 -42.5q63 -12 122 -44t104 -80.5 t71.5 -115t26.5 -150.5q0 -90 -37 -167.5t-104.5 -135t-167 -90.5t-224.5 -33q-244 0 -385 117t-141 307zM256 418q0 -131 99 -214t263 -83q166 0 265.5 83t99.5 218t-100.5 207.5t-264.5 72.5q-160 0 -261 -72.5t-101 -211.5zM299 1104q0 -117 93 -186.5t226 -69.5 q145 0 231.5 73.5t86.5 182.5q0 125 -88 195.5t-230 70.5q-135 0 -227 -73.5t-92 -192.5z" />
<glyph unicode="9" horiz-adv-x="1159" d="M55 1040q0 98 37 187.5t103.5 155t161 104.5t206.5 39q109 0 204 -37t164.5 -105.5t109.5 -167t40 -221.5q0 -139 -37.5 -267t-102 -240.5t-149.5 -210t-178 -177.5l-147 -131l-107 119l136 117q66 59 130 130t115.5 144.5t89 145t52.5 135.5q-39 -76 -140.5 -138.5 t-222.5 -62.5q-106 0 -193 36t-146.5 99.5t-92.5 152.5t-33 193zM231 1042q0 -141 83 -240.5t243 -99.5q147 0 247.5 96.5t100.5 233.5q0 76 -26.5 139.5t-72.5 108.5t-107.5 69.5t-131.5 24.5q-78 0 -140 -26.5t-105 -71.5t-67 -106.5t-24 -127.5z" />
<glyph unicode=":" horiz-adv-x="491" d="M158 0v252h176v-252h-176zM158 745v250h176v-250h-176z" />
<glyph unicode=";" horiz-adv-x="489" d="M-10 -238q25 29 55.5 76t58 106.5t51 126t31.5 132.5h172q-20 -141 -87.5 -280.5t-153.5 -219.5zM168 745v250h178v-250h-178z" />
<glyph unicode="&#x3c;" horiz-adv-x="835" d="M92 606v123l641 416v-170l-459 -303l459 -310v-172z" />
<glyph unicode="=" horiz-adv-x="1032" d="M111 367v147h811v-147h-811zM111 799v147h811v-147h-811z" />
<glyph unicode="&#x3e;" horiz-adv-x="835" d="M100 190v170l461 312l-461 305v168l641 -416v-123z" />
<glyph unicode="?" horiz-adv-x="954" d="M23 1315q74 92 192.5 148.5t259.5 56.5q188 0 309 -98.5t121 -264.5q0 -78 -24.5 -140.5t-62.5 -111.5t-84 -90t-87 -78q-80 -63 -102.5 -155.5t-24.5 -178.5h-172q0 145 35 235.5t125 172.5q35 33 72.5 65.5t69.5 71.5t52.5 86t20.5 105q0 104 -79 164.5t-193 60.5 q-100 0 -182.5 -46t-133.5 -114zM342 0v223h193v-223h-193z" />
<glyph unicode="@" horiz-adv-x="1773" d="M94 719q0 164 58.5 307t163 247.5t249 165t316.5 60.5q178 0 323.5 -52t248.5 -146.5t159.5 -225.5t56.5 -287q0 -137 -31.5 -234t-80 -156.5t-107.5 -87t-117 -27.5q-100 0 -159.5 44t-73.5 107q-25 -51 -116 -100t-210 -49q-152 0 -230.5 74.5t-78.5 185.5 q0 129 108.5 207.5t298.5 78.5h211v23q0 111 -60 152t-157 41q-76 0 -143.5 -18.5t-114.5 -39.5l-51 123q57 27 143 48.5t168 21.5q172 0 266.5 -85t94.5 -263v-306q0 -45 24.5 -87t92.5 -40q29 0 64.5 15.5t65 56.5t50 113.5t20.5 187.5q0 129 -46 240.5t-132 194.5 t-209 130t-276 47q-145 0 -268 -51t-211.5 -140t-137.5 -211t-49 -261t50 -262t138.5 -213t210 -143.5t261.5 -53.5q70 0 143.5 15.5t144.5 50.5l47 -105q-82 -39 -169 -56t-171 -17q-166 0 -309 61t-246.5 165.5t-163 248t-59.5 305.5zM633 561q0 -70 48 -109.5t142 -39.5 q88 0 165 38.5t95 77.5v189h-200q-127 0 -188.5 -41t-61.5 -115z" />
<glyph unicode="A" horiz-adv-x="1337" d="M6 0l610 1501h113l602 -1501h-194l-168 418h-615l-164 -418h-184zM406 567h512l-256 645z" />
<glyph unicode="B" horiz-adv-x="1236" d="M199 0v1495h442q197 0 311.5 -95t114.5 -261q0 -150 -79 -247t-206 -120q63 -6 129 -28.5t117 -66.5t84 -109.5t33 -155.5q0 -186 -135.5 -299t-354.5 -113h-456zM375 829h227q78 0 132 24t87 61.5t48.5 87t15.5 100.5q0 104 -76 170.5t-205 66.5h-229v-510zM377 156h280 q156 0 227.5 80.5t71.5 193.5q0 111 -87 180.5t-216 69.5h-276v-524z" />
<glyph unicode="C" horiz-adv-x="1495" d="M98 748q0 166 56.5 308t155 244.5t235.5 161t297 58.5q203 0 344 -60.5t235 -171.5l-127 -133q-70 82 -179 137.5t-269 55.5q-129 0 -233.5 -44t-176 -124t-110.5 -190.5t-39 -241.5q0 -147 48 -261t126 -190t180 -115t211 -39q166 0 284.5 64.5t194.5 163.5l121 -111 q-90 -121 -248.5 -203t-365.5 -82q-150 0 -284 53.5t-235.5 153t-161 242.5t-59.5 324z" />
<glyph unicode="D" horiz-adv-x="1529" d="M199 0v1495h438q184 0 332.5 -51t250 -144.5t156 -227.5t54.5 -296q0 -164 -53.5 -306t-156 -246.5t-257 -164t-357.5 -59.5h-407zM383 156h217q162 0 281.5 47t198.5 130t118 196.5t39 242.5q0 254 -163 409.5t-445 155.5h-246v-1181z" />
<glyph unicode="E" horiz-adv-x="1191" d="M199 0v1495h839v-164h-657v-508h629v-161h-629v-498h696v-164h-878z" />
<glyph unicode="F" horiz-adv-x="1058" d="M199 0v1495h772v-164h-588v-502h557v-161h-557v-668h-184z" />
<glyph unicode="G" horiz-adv-x="1607" d="M98 748q0 176 61.5 319t165 243.5t243 155t292.5 54.5q219 0 350 -69t201 -144l-121 -131q-63 66 -166.5 119t-271.5 53q-119 0 -223.5 -42t-180 -120t-119.5 -188.5t-44 -247.5q0 -131 45 -245t121.5 -196t183 -129t227.5 -47q160 0 288 63.5t187 174.5v209h-465v163 h631v-432q-88 -154 -258 -245t-389 -91q-160 0 -298 56.5t-240.5 158t-161 245t-58.5 313.5z" />
<glyph unicode="H" horiz-adv-x="1560" d="M199 0v1495h184v-674h795v674h184v-1495h-184v655h-795v-655h-184z" />
<glyph unicode="I" horiz-adv-x="600" d="M209 0v1495h184v-1495h-184z" />
<glyph unicode="J" horiz-adv-x="829" d="M37 6l37 154q20 -8 64 -15.5t83 -7.5q127 0 195.5 73t68.5 175v1110h179v-1102q0 -82 -27 -158.5t-80 -133t-134 -91.5t-185 -35q-51 0 -109.5 7.5t-91.5 23.5z" />
<glyph unicode="K" horiz-adv-x="1390" d="M199 0v1495h184v-836l678 836h215l-557 -670l643 -825h-232l-536 690l-211 -256v-434h-184z" />
<glyph unicode="L" horiz-adv-x="1048" d="M199 0v1495h184v-1331h645v-164h-829z" />
<glyph unicode="M" horiz-adv-x="1867" d="M199 0v1495h120l621 -903l608 903h121v-1495h-174v1130l-524 -768h-74l-526 762v-1124h-172z" />
<glyph unicode="N" horiz-adv-x="1609" d="M199 0v1495h141l899 -1161v1161h172v-1495h-129l-909 1167v-1167h-174z" />
<glyph unicode="O" horiz-adv-x="1728" d="M98 758q0 162 58.5 302t160 241.5t240.5 160t297 58.5q170 0 313.5 -57.5t246 -158t159.5 -242.5t57 -310q0 -170 -60.5 -313.5t-163.5 -246t-242.5 -160t-293.5 -57.5q-170 0 -313 58.5t-244.5 163t-158 249t-56.5 312.5zM287 756q0 -141 47 -256t127 -194t187.5 -122 t228.5 -43q119 0 223 43t180 122t120 192.5t44 255.5q0 129 -45 239.5t-124 189.5t-187.5 123t-235.5 44q-123 0 -226.5 -42t-179 -119t-117.5 -187.5t-42 -245.5z" />
<glyph unicode="P" horiz-adv-x="1224" d="M199 0v1495h493q102 0 188.5 -28.5t149 -84t97 -136.5t34.5 -183q0 -98 -32.5 -182t-93 -144.5t-145.5 -95.5t-188 -35h-319v-606h-184zM381 764h291q147 0 225 85t78 216q0 135 -93.5 203.5t-228.5 68.5h-272v-573z" />
<glyph unicode="Q" horiz-adv-x="1716" d="M98 758q0 160 58.5 300t159 242.5t239.5 161t301 58.5q170 0 312.5 -56.5t245 -158t159.5 -243.5t57 -314q0 -139 -44 -264.5t-120.5 -222.5t-185.5 -165.5t-238 -95.5q59 -86 171 -135t235 -51v-170q-211 2 -377 96t-240 242q-164 6 -300 66.5t-231 161.5t-148.5 241.5 t-53.5 306.5zM287 758q0 -143 47 -258t127 -194t187 -121t224 -42q121 0 225.5 43t180.5 121t120 191.5t44 255.5q0 135 -46 245.5t-126 188.5t-187.5 120t-230.5 42t-226.5 -41t-179 -118t-117.5 -187.5t-42 -245.5z" />
<glyph unicode="R" horiz-adv-x="1251" d="M199 0v1495h434q190 0 311 -108.5t121 -292.5q0 -96 -29.5 -172t-78 -128.5t-110 -82t-126.5 -35.5l-6 -6l469 -670h-217l-432 631h-154v-631h-182zM381 784h203q129 0 212 75t83 212q0 117 -76 191.5t-205 74.5h-217v-553z" />
<glyph unicode="S" horiz-adv-x="1120" d="M72 162l114 141q63 -76 170 -122t219 -46q117 0 197 64.5t80 167.5q0 94 -68.5 164.5t-242.5 144.5q-217 90 -318.5 189.5t-101.5 281.5q0 166 117.5 269.5t312.5 103.5q137 0 241.5 -44t184.5 -110l-98 -149q-70 61 -154 98t-174 37q-117 0 -184.5 -59.5t-67.5 -147.5 q0 -102 73.5 -166t266.5 -145q219 -92 306 -194.5t87 -262.5q0 -94 -37 -169t-98 -126t-144 -79t-175 -28q-168 0 -296 50.5t-210 136.5z" />
<glyph unicode="T" horiz-adv-x="1099" d="M20 1331v164h1059v-164h-444v-1331h-184v1331h-431z" />
<glyph unicode="U" horiz-adv-x="1533" d="M186 545v950h179v-958q0 -88 31.5 -161t86 -124t126 -80t153.5 -29t156.5 27t130 78t88 123.5t32.5 165.5v958h179v-950q0 -133 -46.5 -239.5t-124 -179.5t-184 -112t-227.5 -39q-119 0 -225.5 37t-184 110t-124 179.5t-46.5 243.5z" />
<glyph unicode="V" horiz-adv-x="1353" d="M6 1495h197l471 -1200l485 1200h191l-625 -1507h-115z" />
<glyph unicode="W" horiz-adv-x="1900" d="M20 1495h187l332 -1143l368 1143h105l364 -1145l334 1145h172l-461 -1509h-104l-363 1175l-379 -1175h-104z" />
<glyph unicode="X" horiz-adv-x="1253" d="M29 0l497 772l-460 723h208l357 -559l360 559h197l-459 -715l498 -780h-207l-395 618l-398 -618h-198z" />
<glyph unicode="Y" horiz-adv-x="1333" d="M4 1495h207l461 -670l461 670h196l-575 -840v-655h-185v664z" />
<glyph unicode="Z" horiz-adv-x="1204" d="M37 0v76l833 1255h-764v164h1022v-78l-837 -1253h866v-164h-1120z" />
<glyph unicode="[" horiz-adv-x="647" d="M176 -367v1862h385v-139h-223v-1579h223v-144h-385z" />
<glyph unicode="\" horiz-adv-x="651" d="M8 1495h154l481 -1495h-158z" />
<glyph unicode="]" horiz-adv-x="626" d="M86 -227h215v1583h-215v139h377v-1862h-377v140z" />
<glyph unicode="^" horiz-adv-x="1046" d="M160 756l286 739h146l301 -739h-152l-223 553l-211 -553h-147z" />
<glyph unicode="_" d="M0 -176h1024v-148h-1024v148z" />
<glyph unicode="`" d="M287 1446h200l220 -336h-172z" />
<glyph unicode="a" horiz-adv-x="1089" d="M66 287q0 160 124.5 249t344.5 101l253 14v21q0 104 -66.5 155.5t-176.5 51.5q-100 0 -186.5 -34t-143.5 -73l-72 123q63 49 171 88t249 39q174 0 283.5 -84t109.5 -268v-670h-163v139q-51 -66 -144.5 -112.5t-220.5 -46.5q-172 0 -267 83.5t-95 223.5zM242 299 q0 -86 63.5 -133t165.5 -47q100 0 189.5 42t130.5 97v262l-261 -12q-129 -8 -208.5 -59.5t-79.5 -149.5z" />
<glyph unicode="b" horiz-adv-x="1228" d="M158 0v1567h161v-803q29 100 128.5 177t252.5 77q102 0 186.5 -37t144 -103.5t92 -158.5t32.5 -201q0 -121 -36 -220t-98.5 -168t-145.5 -106.5t-175 -37.5q-156 0 -252 72.5t-126 168.5v-227h-164zM322 494q0 -176 98 -273.5t235 -97.5q141 0 231.5 107.5t90.5 273.5 q0 162 -83 269.5t-243 107.5q-66 0 -126 -25t-105 -74t-71.5 -121.5t-26.5 -166.5z" />
<glyph unicode="c" horiz-adv-x="1075" d="M74 496q0 111 40 207t109.5 166.5t165.5 111.5t207 41q90 0 161.5 -22.5t126 -57.5t91.5 -81t57 -91l-153 -74q-37 70 -105.5 121t-181.5 51q-76 0 -138.5 -29.5t-107.5 -79.5t-69.5 -118t-24.5 -143q0 -158 93 -262.5t249 -104.5q129 0 198.5 58.5t104.5 115.5l139 -86 q-27 -43 -65.5 -86t-92 -78t-125 -56.5t-163.5 -21.5q-115 0 -210 39t-162.5 108t-105.5 165t-38 207z" />
<glyph unicode="d" horiz-adv-x="1226" d="M74 489q0 115 38 213.5t102.5 169t151.5 110.5t185 40q129 0 223 -67.5t127 -153.5v766h168v-1567h-160v233q-12 -43 -43.5 -87t-79 -80.5t-109.5 -60t-136 -23.5q-102 0 -189.5 37.5t-149 104t-95 161t-33.5 204.5zM252 500q0 -80 21.5 -149.5t63.5 -120t103.5 -80 t139.5 -29.5q139 0 232 108.5t93 278.5q0 92 -27.5 161.5t-72.5 117t-103.5 71t-121.5 23.5q-147 0 -237.5 -105.5t-90.5 -275.5z" />
<glyph unicode="e" horiz-adv-x="1153" d="M76 496q0 109 39 205t107.5 166.5t163.5 112.5t208 42q221 0 360.5 -151.5t139.5 -424.5h-852q6 -139 102 -229t260 -90q135 0 211 43t123 96l106 -110q-68 -74 -166 -126.5t-272 -52.5q-115 0 -212 35t-167.5 101.5t-110.5 163t-40 219.5zM244 578h678q-2 123 -94.5 211 t-239.5 88q-74 0 -135.5 -25t-105.5 -66t-70.5 -95t-32.5 -113z" />
<glyph unicode="f" horiz-adv-x="673" d="M33 846v149h198v244q0 82 26 145.5t68 105.5t96 63.5t114 21.5q51 0 92 -9.5t67 -23.5l-24 -153q-18 8 -47 14t-62 6q-63 0 -110.5 -53t-47.5 -139v-222h250v-149h-250v-846h-172v846h-198z" />
<glyph unicode="g" horiz-adv-x="1220" d="M76 502q0 115 34.5 210t96 163.5t148.5 106.5t190 38q133 0 232.5 -66.5t131.5 -160.5v202h160v-884q0 -133 -46 -231.5t-120 -161t-169 -92t-193 -29.5q-154 0 -240 28.5t-131 55.5l72 137q33 -23 105.5 -51.5t176.5 -28.5q76 0 144.5 21.5t120 64.5t82 109.5 t30.5 154.5v160q-14 -45 -47 -90t-79 -80t-106 -57.5t-130 -22.5q-102 0 -188.5 38t-147 104.5t-94 159.5t-33.5 202zM252 498q0 -166 89 -265.5t243 -99.5q61 0 119.5 25.5t102.5 74t71.5 120t27.5 161.5q0 166 -96 263t-231 97q-141 0 -233.5 -103t-92.5 -273z" />
<glyph unicode="h" horiz-adv-x="1187" d="M158 0v1567h159v-772q27 94 126.5 160.5t242.5 66.5q150 0 253 -84t103 -238v-700h-170v662q0 102 -70.5 159.5t-174.5 57.5q-53 0 -107.5 -17.5t-96.5 -51.5t-67.5 -85t-25.5 -121v-604h-172z" />
<glyph unicode="i" horiz-adv-x="503" d="M162 1229v190h180v-190h-180zM166 0v995h172v-995h-172z" />
<glyph unicode="j" horiz-adv-x="532" d="M-86 -379l31 141q20 -10 52 -17t69 -7q57 0 100 50t43 140v1067h172v-1083q0 -152 -83 -239t-204 -87q-45 0 -96 9.5t-84 25.5zM205 1229v190h180v-190h-180z" />
<glyph unicode="k" horiz-adv-x="1079" d="M158 0v1567h168v-1127l499 555h193l-375 -405l469 -588l-201 -2l-381 471l-200 -215v-256h-172z" />
<glyph unicode="l" horiz-adv-x="493" d="M160 0v1567h172v-1567h-172z" />
<glyph unicode="m" horiz-adv-x="1886" d="M158 0v995h159v-202q31 100 135.5 164.5t233.5 64.5q125 0 216 -62.5t108 -166.5h8q27 100 130 164.5t232 64.5q160 0 260.5 -85t100.5 -235v-702h-170v662q0 104 -68.5 160.5t-175.5 56.5q-51 0 -103.5 -17.5t-93 -51.5t-67.5 -86t-27 -122v-602h-172v668 q0 94 -67.5 152.5t-178.5 58.5q-53 0 -105 -18.5t-93 -53.5t-65.5 -87t-24.5 -122v-598h-172z" />
<glyph unicode="n" horiz-adv-x="1187" d="M158 0v995h157v-204q35 100 136.5 165.5t232.5 65.5q152 0 255 -86t103 -227v-709h-170v668q0 98 -70.5 154.5t-174.5 56.5q-53 0 -106.5 -16.5t-95.5 -51.5t-68.5 -87t-26.5 -124v-600h-172z" />
<glyph unicode="o" horiz-adv-x="1202" d="M74 494q0 109 42 206t112.5 167.5t165.5 112.5t200 42q111 0 208 -37t169.5 -102.5t114.5 -157.5t42 -203q0 -117 -42 -217t-113.5 -173t-169.5 -114t-209 -41q-100 0 -194.5 36t-166 102.5t-115.5 163t-44 215.5zM252 496q0 -170 101.5 -268.5t248.5 -98.5 q154 0 251 108.5t97 272.5q0 150 -98 255t-264 105q-143 0 -239.5 -107.5t-96.5 -266.5z" />
<glyph unicode="p" horiz-adv-x="1228" d="M158 -403v1398h159v-239q29 104 130.5 183t254.5 79q203 0 328 -139.5t125 -364.5q0 -121 -37 -219t-99.5 -167t-144 -105.5t-172.5 -36.5q-143 0 -243.5 69.5t-130.5 163.5v-622h-170zM324 492q0 -94 27.5 -163t73.5 -114t107.5 -67.5t129.5 -22.5q135 0 225 104.5 t90 274.5q0 160 -83 267.5t-239 107.5q-139 0 -235 -98.5t-96 -288.5z" />
<glyph unicode="q" horiz-adv-x="1226" d="M76 483q0 119 38 218.5t101.5 170t150.5 109.5t183 39q70 0 129 -20.5t106 -54.5t79 -76t44 -85v211h162v-1398h-170v630q-18 -43 -50 -87t-78 -78.5t-105.5 -57t-130.5 -22.5q-102 0 -187.5 37.5t-146 104t-93 159t-32.5 200.5zM252 504q0 -166 87 -274.5t243 -108.5 q63 0 122.5 27.5t103.5 76.5t70.5 122t26.5 161q0 90 -26.5 159.5t-71.5 116.5t-104.5 71t-124.5 24q-150 0 -238 -104.5t-88 -270.5z" />
<glyph unicode="r" horiz-adv-x="870" d="M158 0v995h159v-219q10 43 40 87t74 79t102.5 56.5t128.5 21.5t122.5 -16t85.5 -43l-79 -152q-37 31 -85.5 46t-101.5 15q-51 0 -100 -21.5t-88 -59t-62.5 -92t-23.5 -117.5v-580h-172z" />
<glyph unicode="s" horiz-adv-x="899" d="M72 106l82 119q57 -47 142 -77.5t179 -30.5q80 0 133.5 42t53.5 107q0 57 -53.5 99.5t-196.5 83.5q-166 47 -237 120.5t-71 180.5q0 121 100.5 195.5t248.5 74.5q129 0 215 -35t133 -72l-74 -120q-51 33 -118.5 61.5t-149.5 28.5q-72 0 -129.5 -33t-57.5 -90 q0 -27 7.5 -47.5t31 -40t68.5 -38t121 -40.5q172 -51 250.5 -124t78.5 -191q0 -137 -100 -219.5t-250 -82.5q-137 0 -237.5 35t-169.5 94z" />
<glyph unicode="t" horiz-adv-x="638" d="M25 848v147h149v248l172 23v-271h238v-147h-238v-572q0 -74 36 -107.5t99 -33.5q33 0 66 9.5t47 17.5l14 -142q-20 -14 -64 -23t-93 -9q-53 0 -103.5 14t-88.5 46t-61.5 83t-23.5 127v590h-149z" />
<glyph unicode="u" horiz-adv-x="1187" d="M145 317v678h170v-633q0 -127 74 -185t186 -58q113 0 198 72.5t85 201.5v602h172v-995h-162v205q-33 -92 -129 -160t-231 -68q-152 0 -257.5 86.5t-105.5 253.5z" />
<glyph unicode="v" d="M-8 995h188l334 -747l338 747h178l-473 -1001h-102z" />
<glyph unicode="w" horiz-adv-x="1466" d="M12 995h181l245 -741l260 631h103l243 -629l246 739h164l-354 -1001h-101l-256 649l-278 -649h-100z" />
<glyph unicode="x" horiz-adv-x="921" d="M8 0l363 516l-328 479h188l234 -344l242 344h176l-330 -469l358 -526h-188l-266 389l-275 -389h-174z" />
<glyph unicode="y" horiz-adv-x="1036" d="M-6 995h186l336 -751l344 751h178l-557 -1169q-68 -143 -156.5 -189.5t-166.5 -46.5q-45 0 -77 9.5t-46 15.5l49 156q10 -6 33.5 -12.5t48.5 -6.5q51 0 94 33t86 121l80 160z" />
<glyph unicode="z" horiz-adv-x="882" d="M33 0v63l551 781h-525v151h768v-80l-542 -763h575v-152h-827z" />
<glyph unicode="{" horiz-adv-x="616" d="M39 520v127q94 2 149.5 51.5t57.5 112.5q0 14 -18.5 61.5t-43.5 100.5q-23 55 -36 108.5t-13 104.5q2 66 34 127t89 109t137 78t178 34v-125q-117 -6 -188.5 -73.5t-73.5 -159.5q0 -29 7.5 -70t25.5 -84q27 -57 49.5 -108.5t20.5 -90.5q-2 -86 -52.5 -151.5t-160.5 -87.5 q111 -20 161 -87t52 -143q0 -57 -19.5 -100t-40.5 -86q-20 -43 -32.5 -89t-12.5 -87q2 -39 20.5 -79t52.5 -74t83 -56.5t108 -24.5v-125q-190 8 -313 99.5t-125 224.5q-2 74 13.5 135.5t35.5 106.5q20 47 39 91t17 83q0 55 -53.5 101t-147.5 46z" />
<glyph unicode="|" horiz-adv-x="526" d="M182 -367v1862h162v-1862h-162z" />
<glyph unicode="}" horiz-adv-x="616" d="M43 -242q59 2 108.5 24.5t82 56.5t52 74t21.5 79q0 41 -12 87t-33 89q-20 43 -39.5 86t-19.5 100q2 76 52 142.5t161 87.5q-111 23 -161 88t-52 151q-2 39 20.5 90.5t48.5 108.5q18 43 25.5 83t7.5 71q-2 92 -73.5 159.5t-188.5 73.5v125q98 -4 178 -34t137.5 -78 t89 -109.5t33.5 -126.5q0 -51 -13 -104.5t-36 -108.5q-25 -53 -43 -100.5t-18 -61.5q2 -63 57 -112.5t150 -51.5v-127q-94 0 -146.5 -46t-54.5 -101q-2 -39 16.5 -83t38.5 -91q20 -45 35.5 -106.5t13.5 -135.5q-2 -133 -125 -224.5t-313 -99.5v125z" />
<glyph unicode="~" d="M74 553q0 178 61.5 265t143.5 87t141 -29.5t112 -70.5q39 -33 82 -60.5t97 -27.5q57 0 74.5 43t17.5 135h149q0 -180 -54 -264t-165 -84q-70 0 -123 29.5t-94 62.5q-43 35 -87 62.5t-91 27.5q-45 0 -81 -45t-36 -131h-147z" />
<glyph unicode="&#xa1;" horiz-adv-x="612" d="M205 -252v588l59 475h90l54 -475v-588h-203zM213 1024v203h188v-203h-188z" />
<glyph unicode="&#xa2;" horiz-adv-x="1173" d="M98 725q0 109 35 205t97.5 170t149.5 123t189 63v201h140v-197q162 -12 269 -93t152 -177l-141 -66q-39 68 -109.5 122t-170.5 69v-823q121 12 189.5 74.5t107.5 123.5l127 -90q-29 -41 -67 -83t-89 -78t-117.5 -61.5t-150.5 -31.5v-213h-140v217q-209 27 -340 176.5 t-131 368.5zM266 733q0 -154 82 -265.5t221 -139.5v813q-135 -31 -219 -146t-84 -262z" />
<glyph unicode="&#xa3;" horiz-adv-x="1224" d="M53 0v104q18 8 57.5 16.5t108.5 20.5q41 6 84 23.5t78 46.5t56.5 68.5t21.5 91.5q0 18 -4 36.5t-11 38.5h-366v125h301q-25 39 -51.5 80t-53.5 86h-196v123h135q-23 57 -38 119.5t-15 132.5q0 115 43 193.5t114.5 126t166 68t196.5 20.5q172 0 312.5 -56.5t203.5 -107.5 l-94 -137q-57 41 -170 91t-248 50q-66 0 -128 -13.5t-109.5 -45t-76 -86t-28.5 -134.5q0 -57 17.5 -112.5t43.5 -108.5h623v-123h-553q27 -43 51.5 -85t44.5 -81h457v-125h-416q2 -6 2 -11v-11q0 -66 -23.5 -115t-57 -82.5t-74.5 -54t-74 -29.5h817v-143h-1147z" />
<glyph unicode="&#xa4;" horiz-adv-x="1028" d="M117 1063l80 78l120 -127q41 27 91.5 41t103.5 14t103.5 -14.5t93.5 -40.5l125 129l77 -80l-118 -123q37 -45 57 -99.5t20 -115.5q0 -63 -22.5 -119.5t-61.5 -101.5l115 -119l-78 -78l-121 125q-41 -25 -90 -38t-100 -13t-101.5 13.5t-91.5 39.5l-120 -127l-80 82 l112 119q-37 45 -58 100.5t-21 116.5q0 63 21.5 118.5t59.5 100.5zM279 725q0 -88 67.5 -153.5t165.5 -65.5q94 0 163.5 65.5t69.5 153.5t-69.5 153.5t-163.5 65.5q-98 0 -165.5 -65.5t-67.5 -153.5z" />
<glyph unicode="&#xa5;" horiz-adv-x="1325" d="M72 1495h204l388 -649l387 649h194l-500 -815v-2h400v-127h-400v-129h400v-127h-400v-295h-184v295h-391v127h391v129h-391v127h391v10z" />
<glyph unicode="&#xa6;" horiz-adv-x="561" d="M207 -367v777h147v-777h-147zM207 719v776h147v-776h-147z" />
<glyph unicode="&#xa7;" horiz-adv-x="1384" d="M113 672q0 96 50 157.5t120 100.5q-63 35 -91 96t-28 152q0 82 38 145t105.5 107.5t159.5 67t199 22.5q193 0 314.5 -52.5t211.5 -111.5l-78 -131q-96 61 -201.5 109t-253.5 48q-131 0 -223 -54t-92 -150q0 -63 43 -108.5t131 -76.5l373 -143q184 -66 281.5 -140.5 t97.5 -209.5q0 -115 -77 -177.5t-169 -82.5q23 -12 51.5 -35t54 -54.5t43 -75.5t17.5 -98q0 -82 -36 -146t-97.5 -109.5t-146.5 -69t-181 -23.5q-178 0 -332.5 42t-259.5 112l76 143q98 -66 239.5 -109.5t270.5 -43.5q119 0 200 53t81 154q0 88 -65 135t-165 86l-280 112 q-92 39 -164 72t-120 72t-72.5 90t-24.5 125zM289 688q0 -82 71.5 -133t231.5 -109l305 -118q72 6 132.5 42t60.5 113q0 72 -69 125.5t-228 110.5l-361 139q-61 -27 -102 -64.5t-41 -105.5z" />
<glyph unicode="&#xa8;" d="M252 1112v322h145v-322h-145zM627 1112v322h145v-322h-145z" />
<glyph unicode="&#xa9;" horiz-adv-x="1728" d="M98 754q0 158 60.5 298t164 243.5t244 164t297.5 60.5q158 0 298.5 -60.5t243.5 -164t163.5 -244t60.5 -297.5q0 -158 -60.5 -297.5t-163.5 -242.5t-243.5 -163.5t-298.5 -60.5t-298 60.5t-243.5 163.5t-164 242.5t-60.5 297.5zM215 752q0 -133 51 -252t139.5 -207 t207 -139.5t251.5 -51.5t252 51.5t206 139.5t138 206.5t51 252.5q0 133 -51 252.5t-138 209t-206 141.5t-252 52t-251.5 -52t-207 -141.5t-139.5 -209t-51 -252.5zM444 756q0 104 32 189t87 145.5t130 93.5t161 33q135 0 220 -45.5t134 -116.5l-123 -88q-33 45 -86 75.5 t-141 30.5q-111 0 -184.5 -92t-73.5 -229q0 -74 22.5 -131.5t59.5 -96.5t85 -59.5t99 -20.5q76 0 136.5 34t97.5 87l119 -78q-49 -76 -138.5 -127t-216.5 -51q-80 0 -155.5 30t-134 86t-94.5 139t-36 192z" />
<glyph unicode="&#xaa;" horiz-adv-x="972" d="M80 885q0 141 113.5 216t304.5 85l229 14v14q0 80 -60.5 123t-164.5 43q-88 0 -165 -27.5t-138 -66.5l-56 121q68 47 163 81t218 34q158 0 251 -73t93 -235v-589h-137v125q-51 -66 -141 -102t-195 -36q-145 0 -230 72t-85 201zM92 367v143h807v-143h-807zM233 899 q0 -74 59.5 -115t153.5 -41q82 0 159 32t122 89v219l-242 -14q-109 -6 -180.5 -43t-71.5 -127z" />
<glyph unicode="&#xab;" horiz-adv-x="921" d="M57 541v116l363 349v-181l-213 -229l213 -221v-189zM496 541v116l364 349v-181l-215 -229l215 -219v-191z" />
<glyph unicode="&#xac;" d="M63 631v149h861v-512h-146v363h-715z" />
<glyph unicode="&#xad;" horiz-adv-x="706" d="M92 463v155h522v-155h-522z" />
<glyph unicode="&#xae;" horiz-adv-x="1728" d="M98 754q0 158 60.5 298t164 243.5t244 164t297.5 60.5q158 0 298.5 -60.5t243.5 -164t163.5 -244t60.5 -297.5q0 -158 -60.5 -297.5t-163.5 -242.5t-243.5 -163.5t-298.5 -60.5t-298 60.5t-243.5 163.5t-164 242.5t-60.5 297.5zM215 754q0 -135 51 -255t139.5 -207 t207 -138.5t251.5 -51.5t252 51.5t206 138.5t138 206.5t51 255.5q0 135 -51 254.5t-138 208t-206 139.5t-252 51t-251.5 -51t-207 -140.5t-139.5 -208t-51 -253.5zM575 328v891h328q55 0 108.5 -14.5t93.5 -44.5t65.5 -76t25.5 -111q0 -117 -62.5 -177.5t-136.5 -70.5l-2 -8 l279 -389h-162l-244 358h-151v-358h-142zM715 805h198q57 0 102.5 41t45.5 112q0 76 -48 108t-120 32h-178v-293z" />
<glyph unicode="&#xaf;" d="M248 1155v137h528v-137h-528z" />
<glyph unicode="&#xb0;" horiz-adv-x="892" d="M61 1135q0 80 31 150.5t82 121.5t122 82t150 31q80 0 151 -31t122 -82t81.5 -122t30.5 -150q0 -80 -30.5 -151t-81.5 -122t-122 -81.5t-151 -30.5t-150.5 30.5t-121.5 81.5t-82 122t-31 151zM197 1135q0 -100 74.5 -173t174.5 -73t175 72.5t75 173.5q0 100 -74.5 173.5 t-175.5 73.5q-100 0 -174.5 -73.5t-74.5 -173.5z" />
<glyph unicode="&#xb1;" d="M53 612v131h387v379h146v-379h385v-131h-385v-379h-146v379h-387zM70 53v127h888v-127h-888z" />
<glyph unicode="&#xb2;" horiz-adv-x="679" d="M37 1239q0 111 75.5 195t215.5 84q135 0 203.5 -63.5t68.5 -154.5q0 -82 -30.5 -136t-65.5 -87l-209 -192h328v-123h-574v55l334 320q20 20 43 54t23 79q0 47 -34 84t-102 37q-76 0 -108.5 -46.5t-34.5 -105.5h-133z" />
<glyph unicode="&#xb3;" horiz-adv-x="708" d="M23 836l81 84q35 -20 89.5 -40t130.5 -20q100 0 143 40t43 97q0 63 -52 84t-122 21h-148v108h138q68 0 108.5 25t40.5 74q0 41 -36 65.5t-111 24.5q-63 0 -117.5 -24.5t-81.5 -57.5l-82 80q41 45 108.5 84t192.5 39q127 0 196.5 -52.5t69.5 -132.5q0 -68 -45 -112 t-108 -58q88 -12 136 -64t48 -124q0 -39 -15.5 -80t-51 -75t-97 -55.5t-151.5 -21.5q-125 0 -196 30t-111 61z" />
<glyph unicode="&#xb4;" d="M319 1118l218 336h202l-247 -336h-173z" />
<glyph unicode="&#xb5;" horiz-adv-x="1210" d="M158 -301v1296h168v-663q0 -94 71.5 -154.5t180.5 -60.5q51 0 102 18.5t92 54t65.5 89t24.5 122.5v594h168v-995h-156v205q-33 -90 -127 -153.5t-204 -67.5q-78 0 -140.5 32.5t-89.5 89.5v-407h-155z" />
<glyph unicode="&#xb6;" horiz-adv-x="1409" d="M55 993q0 106 39 198.5t107.5 159t167 105.5t217.5 39h663v-1862h-119v1727h-243v-1727h-119v873h-223q-94 0 -183.5 40t-157 105.5t-108.5 154.5t-41 187zM311 999q0 -72 21.5 -135t61.5 -111t95.5 -77t122.5 -29h158v707h-135q-158 0 -241 -101.5t-83 -253.5z" />
<glyph unicode="&#xb7;" horiz-adv-x="507" d="M168 578v262h172v-262h-172z" />
<glyph unicode="&#xb8;" d="M256 -317l23 77q31 -16 81 -33.5t109 -17.5q49 0 85 21.5t36 58.5q0 39 -32 56.5t-71 17.5q-27 0 -45 -3t-41 -12l-26 27l123 148h106l-102 -127q106 25 180 -14.5t74 -112.5q0 -76 -70 -114t-162 -38q-74 0 -149.5 18.5t-118.5 47.5z" />
<glyph unicode="&#xb9;" horiz-adv-x="659" d="M102 1389q76 10 131.5 42.5t110.5 84.5h107v-754h-158v573q-23 -35 -83 -61.5t-106 -34.5z" />
<glyph unicode="&#xba;" horiz-adv-x="1007" d="M61 1057q0 92 35 176t94.5 146.5t140.5 99.5t171 37q94 0 176 -32t141.5 -89.5t94 -138t34.5 -179.5q0 -100 -35.5 -186t-96 -148.5t-142.5 -98.5t-176 -36q-86 0 -165 31t-139.5 88t-96.5 141t-36 189zM96 367v143h807v-143h-807zM215 1057q0 -137 81 -221t204 -84 q129 0 211 90t82 231q0 129 -78 218t-213 89q-125 0 -206 -91t-81 -232z" />
<glyph unicode="&#xbb;" horiz-adv-x="927" d="M61 186v181l215 229l-215 219v191l365 -355v-116zM506 186v181l215 229l-215 221v189l364 -355v-116z" />
<glyph unicode="&#xbc;" horiz-adv-x="1411" d="M14 1389q76 10 131.5 42.5t110.5 84.5h106v-754h-157v573q-23 -35 -83.5 -61.5t-105.5 -34.5zM250 0l764 1495h149l-764 -1495h-149zM782 172v104l387 474h99v-467h129v-111h-129v-170h-142v170h-344zM899 264h231v289z" />
<glyph unicode="&#xbd;" horiz-adv-x="1533" d="M14 1389q76 10 131.5 42.5t110.5 84.5h106v-754h-157v573q-23 -35 -83.5 -61.5t-105.5 -34.5zM250 0l764 1495h149l-764 -1495h-149zM911 477q0 111 76 195t215 84q135 0 204 -63.5t69 -153.5q0 -82 -31 -136.5t-66 -87.5l-209 -192h328v-123h-573v55l333 320 q20 20 43 54t23 79q0 47 -34 84t-101 37q-76 0 -108.5 -46t-35.5 -106h-133z" />
<glyph unicode="&#xbe;" horiz-adv-x="1538" d="M16 836l82 84q35 -20 89.5 -40t129.5 -20q100 0 143.5 40t43.5 97q0 63 -52.5 84t-121.5 21h-148v108h137q68 0 109 25t41 74q0 41 -36 65.5t-111 24.5q-63 0 -117.5 -24.5t-81.5 -57.5l-82 80q41 45 108.5 84t192.5 39q127 0 196.5 -52.5t69.5 -132.5q0 -68 -45 -112 t-108 -58q88 -12 136 -64t48 -124q0 -39 -15.5 -80t-51 -75t-97 -55.5t-151.5 -21.5q-125 0 -196 30t-112 61zM377 0l764 1495h149l-764 -1495h-149zM909 172v104l387 474h99v-467h129v-111h-129v-170h-142v170h-344zM1026 264h231v289z" />
<glyph unicode="&#xbf;" horiz-adv-x="966" d="M45 76q0 80 25.5 141.5t65.5 109.5t86 83.5t85 64.5q90 68 113.5 162t25.5 188h172q0 -156 -30.5 -244.5t-130.5 -166.5q-41 -31 -82 -63t-75 -67.5t-54.5 -81.5t-20.5 -104q0 -104 81 -165.5t200 -61.5q104 0 188 47t137 113l115 -109q-68 -82 -183.5 -142.5 t-273.5 -60.5q-94 0 -175 24t-140 69t-94 111.5t-35 152.5zM432 1010v217h195v-217h-195z" />
<glyph unicode="&#xc0;" horiz-adv-x="1337" d="M6 0l610 1501h113l602 -1501h-194l-168 418h-615l-164 -418h-184zM406 567h512l-256 645zM455 1946h200l219 -336h-172z" />
<glyph unicode="&#xc1;" horiz-adv-x="1337" d="M6 0l610 1501h113l602 -1501h-194l-168 418h-615l-164 -418h-184zM406 567h512l-256 645zM455 1618l217 336h202l-247 -336h-172z" />
<glyph unicode="&#xc2;" horiz-adv-x="1337" d="M6 0l610 1501h113l602 -1501h-194l-168 418h-615l-164 -418h-184zM326 1612l252 350h174l252 -350h-160l-180 237l-183 -237h-155zM406 567h512l-256 645z" />
<glyph unicode="&#xc3;" horiz-adv-x="1337" d="M6 0l610 1501h113l602 -1501h-194l-168 418h-615l-164 -418h-184zM330 1634q0 139 56 207t120 68q51 0 91 -24.5t77 -53.5q33 -27 62.5 -48.5t60.5 -21.5t52 37t23 103h134q0 -141 -42 -208t-114 -67q-57 0 -101 23.5t-77 50.5q-33 25 -66 48.5t-65 23.5q-33 0 -55.5 -36 t-24.5 -102h-131zM406 567h512l-256 645z" />
<glyph unicode="&#xc4;" horiz-adv-x="1337" d="M6 0l610 1501h113l602 -1501h-194l-168 418h-615l-164 -418h-184zM401 1612v321h146v-321h-146zM406 567h512l-256 645zM776 1612v321h146v-321h-146z" />
<glyph unicode="&#xc5;" horiz-adv-x="1337" d="M6 0l610 1501h113l602 -1501h-194l-168 418h-615l-164 -418h-184zM406 567h512l-256 645zM426 1847q0 100 68.5 169t169.5 69q100 0 169.5 -68.5t69.5 -169.5q0 -100 -69.5 -169.5t-169.5 -69.5t-169 69.5t-69 169.5zM532 1847q0 -57 39.5 -95t92.5 -38q55 0 93 38t38 95 q0 55 -38 94t-93 39q-53 0 -92.5 -38.5t-39.5 -94.5z" />
<glyph unicode="&#xc6;" horiz-adv-x="1982" d="M-35 0l948 1495h918v-164h-657v-510h628v-159h-628v-498h696v-164h-875v516h-506l-325 -516h-199zM582 672h413v667z" />
<glyph unicode="&#xc7;" horiz-adv-x="1495" d="M98 748q0 166 56.5 308t155 244.5t235.5 161t297 58.5q203 0 344 -60.5t235 -171.5l-127 -133q-70 82 -179 137.5t-269 55.5q-129 0 -233.5 -44t-176 -124t-110.5 -190.5t-39 -241.5q0 -147 48 -261t126 -190t180 -115t211 -39q166 0 284.5 64.5t194.5 163.5l121 -111 q-86 -113 -230.5 -193.5t-334.5 -89.5l-76 -94q106 25 180 -14t74 -113q0 -76 -69.5 -113.5t-161.5 -37.5q-74 0 -150 18.5t-119 46.5l23 78q31 -16 81 -33.5t109 -17.5q49 0 85 21.5t36 58.5q0 39 -31.5 56t-70.5 17q-27 0 -45.5 -3t-40.5 -11l-27 27l96 114 q-139 10 -264 67.5t-217 156t-146.5 236.5t-54.5 311z" />
<glyph unicode="&#xc8;" horiz-adv-x="1191" d="M199 0v1495h839v-164h-657v-508h629v-161h-629v-498h696v-164h-878zM420 1946h201l219 -336h-172z" />
<glyph unicode="&#xc9;" horiz-adv-x="1191" d="M199 0v1495h839v-164h-657v-508h629v-161h-629v-498h696v-164h-878zM420 1618l217 336h203l-248 -336h-172z" />
<glyph unicode="&#xca;" horiz-adv-x="1191" d="M199 0v1495h839v-164h-657v-508h629v-161h-629v-498h696v-164h-878zM291 1612l252 350h174l252 -350h-160l-180 237l-183 -237h-155z" />
<glyph unicode="&#xcb;" horiz-adv-x="1191" d="M199 0v1495h839v-164h-657v-508h629v-161h-629v-498h696v-164h-878zM367 1612v321h145v-321h-145zM741 1612v321h146v-321h-146z" />
<glyph unicode="&#xcc;" horiz-adv-x="600" d="M90 1946h201l219 -336h-172zM209 0v1495h184v-1495h-184z" />
<glyph unicode="&#xcd;" horiz-adv-x="600" d="M90 1618l217 336h203l-248 -336h-172zM209 0v1495h184v-1495h-184z" />
<glyph unicode="&#xce;" horiz-adv-x="600" d="M-39 1612l252 350h174l252 -350h-160l-180 237l-182 -237h-156zM209 0v1495h184v-1495h-184z" />
<glyph unicode="&#xcf;" horiz-adv-x="600" d="M37 1612v321h145v-321h-145zM209 0v1495h184v-1495h-184zM412 1612v321h145v-321h-145z" />
<glyph unicode="&#xd0;" horiz-adv-x="1529" d="M72 659v144h127v692h438q186 0 334.5 -52t249 -148.5t155 -234.5t54.5 -308q0 -156 -53.5 -293t-156 -238.5t-257 -161t-357.5 -59.5h-407v659h-127zM379 152h211q174 0 298 50t201.5 133t113.5 190.5t36 222.5q0 276 -162 434.5t-442 158.5h-256v-538h389v-144h-389 v-507z" />
<glyph unicode="&#xd1;" horiz-adv-x="1609" d="M199 0v1495h141l899 -1161v1161h172v-1495h-129l-909 1167v-1167h-174zM473 1634q0 139 56.5 207t119.5 68q51 0 91 -24.5t77 -53.5q33 -27 62.5 -48.5t60.5 -21.5t52.5 37t23.5 103h133q0 -141 -42 -208t-114 -67q-57 0 -101 23.5t-77 50.5q-33 25 -65.5 48.5 t-65.5 23.5t-55.5 -36t-24.5 -102h-131z" />
<glyph unicode="&#xd2;" horiz-adv-x="1728" d="M98 758q0 162 58.5 302t160 241.5t240.5 160t297 58.5q170 0 313.5 -57.5t246 -158t159.5 -242.5t57 -310q0 -170 -60.5 -313.5t-163.5 -246t-242.5 -160t-293.5 -57.5q-170 0 -313 58.5t-244.5 163t-158 249t-56.5 312.5zM287 756q0 -141 47 -256t127 -194t187.5 -122 t228.5 -43q119 0 223 43t180 122t120 192.5t44 255.5q0 129 -45 239.5t-124 189.5t-187.5 123t-235.5 44q-123 0 -226.5 -42t-179 -119t-117.5 -187.5t-42 -245.5zM647 1946h201l219 -336h-172z" />
<glyph unicode="&#xd3;" horiz-adv-x="1728" d="M98 758q0 162 58.5 302t160 241.5t240.5 160t297 58.5q170 0 313.5 -57.5t246 -158t159.5 -242.5t57 -310q0 -170 -60.5 -313.5t-163.5 -246t-242.5 -160t-293.5 -57.5q-170 0 -313 58.5t-244.5 163t-158 249t-56.5 312.5zM287 756q0 -141 47 -256t127 -194t187.5 -122 t228.5 -43q119 0 223 43t180 122t120 192.5t44 255.5q0 129 -45 239.5t-124 189.5t-187.5 123t-235.5 44q-123 0 -226.5 -42t-179 -119t-117.5 -187.5t-42 -245.5zM647 1618l217 336h203l-248 -336h-172z" />
<glyph unicode="&#xd4;" horiz-adv-x="1728" d="M98 758q0 162 58.5 302t160 241.5t240.5 160t297 58.5q170 0 313.5 -57.5t246 -158t159.5 -242.5t57 -310q0 -170 -60.5 -313.5t-163.5 -246t-242.5 -160t-293.5 -57.5q-170 0 -313 58.5t-244.5 163t-158 249t-56.5 312.5zM287 756q0 -141 47 -256t127 -194t187.5 -122 t228.5 -43q119 0 223 43t180 122t120 192.5t44 255.5q0 129 -45 239.5t-124 189.5t-187.5 123t-235.5 44q-123 0 -226.5 -42t-179 -119t-117.5 -187.5t-42 -245.5zM518 1612l252 350h174l252 -350h-160l-180 237l-182 -237h-156z" />
<glyph unicode="&#xd5;" horiz-adv-x="1728" d="M98 758q0 162 58.5 302t160 241.5t240.5 160t297 58.5q170 0 313.5 -57.5t246 -158t159.5 -242.5t57 -310q0 -170 -60.5 -313.5t-163.5 -246t-242.5 -160t-293.5 -57.5q-170 0 -313 58.5t-244.5 163t-158 249t-56.5 312.5zM287 756q0 -141 47 -256t127 -194t187.5 -122 t228.5 -43q119 0 223 43t180 122t120 192.5t44 255.5q0 129 -45 239.5t-124 189.5t-187.5 123t-235.5 44q-123 0 -226.5 -42t-179 -119t-117.5 -187.5t-42 -245.5zM522 1634q0 139 56.5 207t119.5 68q51 0 91 -24.5t77 -53.5q33 -27 62.5 -48.5t60.5 -21.5t52.5 37t23.5 103 h133q0 -141 -42 -208t-114 -67q-57 0 -101 23.5t-77 50.5q-33 25 -65.5 48.5t-65.5 23.5t-55.5 -36t-24.5 -102h-131z" />
<glyph unicode="&#xd6;" horiz-adv-x="1728" d="M98 758q0 162 58.5 302t160 241.5t240.5 160t297 58.5q170 0 313.5 -57.5t246 -158t159.5 -242.5t57 -310q0 -170 -60.5 -313.5t-163.5 -246t-242.5 -160t-293.5 -57.5q-170 0 -313 58.5t-244.5 163t-158 249t-56.5 312.5zM287 756q0 -141 47 -256t127 -194t187.5 -122 t228.5 -43q119 0 223 43t180 122t120 192.5t44 255.5q0 129 -45 239.5t-124 189.5t-187.5 123t-235.5 44q-123 0 -226.5 -42t-179 -119t-117.5 -187.5t-42 -245.5zM594 1612v321h145v-321h-145zM969 1612v321h145v-321h-145z" />
<glyph unicode="&#xd7;" d="M133 395l283 283l-281 280l96 97l281 -281l283 281l96 -97l-283 -280l283 -283l-96 -98l-283 285l-283 -283z" />
<glyph unicode="&#xd8;" horiz-adv-x="1728" d="M98 758q0 162 58.5 302t160 241.5t240.5 160t297 58.5q152 0 282 -45t228 -127l174 174l94 -95l-172 -174q82 -98 126 -226t44 -275q0 -170 -60.5 -313.5t-163.5 -246t-242.5 -160t-293.5 -57.5q-152 0 -281.5 47.5t-228.5 131.5l-147 -148l-94 94l147 148 q-80 100 -124 231t-44 279zM287 756q0 -111 29.5 -206t80.5 -169l838 838q-76 63 -174 97t-209 34q-123 0 -226.5 -42t-179 -119t-117.5 -187.5t-42 -245.5zM487 281q78 -68 178.5 -104t211.5 -36q119 0 223 43t180 122t120 193t44 255q0 106 -31 200.5t-86 167.5z" />
<glyph unicode="&#xd9;" horiz-adv-x="1533" d="M186 545v950h179v-958q0 -88 31.5 -161t86 -124t126 -80t153.5 -29t156.5 27t130 78t88 123.5t32.5 165.5v958h179v-950q0 -133 -46.5 -239.5t-124 -179.5t-184 -112t-227.5 -39q-119 0 -225.5 37t-184 110t-124 179.5t-46.5 243.5zM557 1946h201l219 -336h-172z" />
<glyph unicode="&#xda;" horiz-adv-x="1533" d="M186 545v950h179v-958q0 -88 31.5 -161t86 -124t126 -80t153.5 -29t156.5 27t130 78t88 123.5t32.5 165.5v958h179v-950q0 -133 -46.5 -239.5t-124 -179.5t-184 -112t-227.5 -39q-119 0 -225.5 37t-184 110t-124 179.5t-46.5 243.5zM557 1618l217 336h203l-248 -336h-172 z" />
<glyph unicode="&#xdb;" horiz-adv-x="1533" d="M186 545v950h179v-958q0 -88 31.5 -161t86 -124t126 -80t153.5 -29t156.5 27t130 78t88 123.5t32.5 165.5v958h179v-950q0 -133 -46.5 -239.5t-124 -179.5t-184 -112t-227.5 -39q-119 0 -225.5 37t-184 110t-124 179.5t-46.5 243.5zM428 1612l252 350h174l252 -350h-160 l-180 237l-182 -237h-156z" />
<glyph unicode="&#xdc;" horiz-adv-x="1533" d="M186 545v950h179v-958q0 -88 31.5 -161t86 -124t126 -80t153.5 -29t156.5 27t130 78t88 123.5t32.5 165.5v958h179v-950q0 -133 -46.5 -239.5t-124 -179.5t-184 -112t-227.5 -39q-119 0 -225.5 37t-184 110t-124 179.5t-46.5 243.5zM504 1612v321h145v-321h-145z M879 1612v321h145v-321h-145z" />
<glyph unicode="&#xdd;" horiz-adv-x="1333" d="M4 1495h207l461 -670l461 670h196l-575 -840v-655h-185v664zM459 1618l217 336h203l-248 -336h-172z" />
<glyph unicode="&#xde;" horiz-adv-x="1222" d="M199 0v1495h184v-274h307q225 0 349 -124t124 -317q0 -96 -33.5 -180t-94 -144.5t-146.5 -94t-189 -33.5h-317v-328h-184zM381 481h291q141 0 223 82t82 223q0 137 -93 207t-231 70h-272v-582z" />
<glyph unicode="&#xdf;" horiz-adv-x="1335" d="M184 0v1235q0 84 33 149.5t87 110.5t127 69.5t153 24.5q86 0 163.5 -25.5t135 -74.5t91.5 -120t34 -161q0 -135 -44 -207.5t-83 -93.5q-70 -8 -127.5 -44t-63.5 -93q0 -57 58.5 -99t195.5 -81q172 -49 250 -122t78 -192q0 -143 -103.5 -221t-250.5 -78q-133 0 -231.5 35 t-168.5 94l82 119q57 -47 142 -77.5t171 -30.5q82 0 135.5 41t53.5 106q0 59 -51.5 101.5t-192.5 83.5q-178 51 -246.5 121.5t-68.5 183.5q0 104 70.5 167.5t158.5 73.5q16 10 43 47t29 142q0 129 -73 196.5t-177 67.5q-100 0 -169 -57.5t-69 -171.5v-1219h-172z" />
<glyph unicode="&#xe0;" horiz-adv-x="1089" d="M66 287q0 160 124.5 249t344.5 101l253 14v21q0 104 -66.5 155.5t-176.5 51.5q-100 0 -186.5 -34t-143.5 -73l-72 123q63 49 171 88t249 39q174 0 283.5 -84t109.5 -268v-670h-163v139q-51 -66 -144.5 -112.5t-220.5 -46.5q-172 0 -267 83.5t-95 223.5zM242 299 q0 -86 63.5 -133t165.5 -47q100 0 189.5 42t130.5 97v262l-261 -12q-129 -8 -208.5 -59.5t-79.5 -149.5zM326 1446h200l219 -336h-172z" />
<glyph unicode="&#xe1;" horiz-adv-x="1089" d="M66 287q0 160 124.5 249t344.5 101l253 14v21q0 104 -66.5 155.5t-176.5 51.5q-100 0 -186.5 -34t-143.5 -73l-72 123q63 49 171 88t249 39q174 0 283.5 -84t109.5 -268v-670h-163v139q-51 -66 -144.5 -112.5t-220.5 -46.5q-172 0 -267 83.5t-95 223.5zM242 299 q0 -86 63.5 -133t165.5 -47q100 0 189.5 42t130.5 97v262l-261 -12q-129 -8 -208.5 -59.5t-79.5 -149.5zM326 1118l217 336h202l-247 -336h-172z" />
<glyph unicode="&#xe2;" horiz-adv-x="1089" d="M66 287q0 160 124.5 249t344.5 101l253 14v21q0 104 -66.5 155.5t-176.5 51.5q-100 0 -186.5 -34t-143.5 -73l-72 123q63 49 171 88t249 39q174 0 283.5 -84t109.5 -268v-670h-163v139q-51 -66 -144.5 -112.5t-220.5 -46.5q-172 0 -267 83.5t-95 223.5zM197 1112l252 350 h174l251 -350h-159l-180 238l-183 -238h-155zM242 299q0 -86 63.5 -133t165.5 -47q100 0 189.5 42t130.5 97v262l-261 -12q-129 -8 -208.5 -59.5t-79.5 -149.5z" />
<glyph unicode="&#xe3;" horiz-adv-x="1089" d="M66 287q0 160 124.5 249t344.5 101l253 14v21q0 104 -66.5 155.5t-176.5 51.5q-100 0 -186.5 -34t-143.5 -73l-72 123q63 49 171 88t249 39q174 0 283.5 -84t109.5 -268v-670h-163v139q-51 -66 -144.5 -112.5t-220.5 -46.5q-172 0 -267 83.5t-95 223.5zM201 1135 q0 139 56 206.5t120 67.5q51 0 91 -24.5t77 -53.5q33 -27 62.5 -48t60.5 -21t52 36.5t23 102.5h134q0 -141 -42 -208t-114 -67q-57 0 -101.5 24t-76.5 50q-33 25 -66 48.5t-65 23.5q-33 0 -55.5 -36t-24.5 -101h-131zM242 299q0 -86 63.5 -133t165.5 -47q100 0 189.5 42 t130.5 97v262l-261 -12q-129 -8 -208.5 -59.5t-79.5 -149.5z" />
<glyph unicode="&#xe4;" horiz-adv-x="1089" d="M66 287q0 160 124.5 249t344.5 101l253 14v21q0 104 -66.5 155.5t-176.5 51.5q-100 0 -186.5 -34t-143.5 -73l-72 123q63 49 171 88t249 39q174 0 283.5 -84t109.5 -268v-670h-163v139q-51 -66 -144.5 -112.5t-220.5 -46.5q-172 0 -267 83.5t-95 223.5zM242 299 q0 -86 63.5 -133t165.5 -47q100 0 189.5 42t130.5 97v262l-261 -12q-129 -8 -208.5 -59.5t-79.5 -149.5zM272 1112v322h146v-322h-146zM647 1112v322h146v-322h-146z" />
<glyph unicode="&#xe5;" horiz-adv-x="1089" d="M66 287q0 160 124.5 249t344.5 101l253 14v21q0 104 -66.5 155.5t-176.5 51.5q-100 0 -186.5 -34t-143.5 -73l-72 123q63 49 171 88t249 39q174 0 283.5 -84t109.5 -268v-670h-163v139q-51 -66 -144.5 -112.5t-220.5 -46.5q-172 0 -267 83.5t-95 223.5zM242 299 q0 -86 63.5 -133t165.5 -47q100 0 189.5 42t130.5 97v262l-261 -12q-129 -8 -208.5 -59.5t-79.5 -149.5zM297 1348q0 100 68.5 168.5t169.5 68.5q100 0 169.5 -68.5t69.5 -168.5t-69.5 -170t-169.5 -70t-169 69.5t-69 170.5zM403 1348q0 -57 39.5 -95.5t92.5 -38.5 q55 0 93 38t38 96q0 55 -38 94t-93 39q-53 0 -92.5 -39t-39.5 -94z" />
<glyph unicode="&#xe6;" horiz-adv-x="1869" d="M78 287q0 164 125 250t344 98l260 16v21q0 100 -72.5 153.5t-181.5 53.5q-100 0 -186 -34t-144 -73l-69 123q70 51 173 89t226 38q145 0 239.5 -59.5t120.5 -155.5q18 37 52 75t83.5 69.5t117 51t151.5 19.5q221 0 356 -155.5t137 -417.5h-843q6 -147 102 -234.5 t252 -87.5q145 0 216 45t118 94l106 -110q-70 -78 -170 -128.5t-266 -50.5q-90 0 -165 21.5t-131 56.5t-95 80t-57 90q-41 -94 -158 -169.5t-291 -75.5q-158 0 -254 81.5t-96 225.5zM252 303q0 -94 65.5 -139t159.5 -45q125 0 214 71.5t122 155.5v174l-272 -16 q-125 -6 -207 -51t-82 -150zM971 578h667q0 59 -24.5 113t-68.5 95t-105.5 66t-136.5 25q-147 0 -235.5 -90t-96.5 -209z" />
<glyph unicode="&#xe7;" horiz-adv-x="1075" d="M74 496q0 111 40 207t109.5 166.5t165.5 111.5t207 41q90 0 161.5 -22.5t126 -57.5t91.5 -81t57 -91l-153 -74q-37 70 -105.5 121t-181.5 51q-76 0 -138.5 -29.5t-107.5 -79.5t-69.5 -118t-24.5 -143q0 -158 93 -262.5t249 -104.5q129 0 198.5 58.5t104.5 115.5l139 -86 q-49 -80 -141 -152.5t-250 -86.5l-78 -97q106 25 180 -14t74 -113q0 -76 -69.5 -113.5t-161.5 -37.5q-74 0 -149.5 18.5t-118.5 46.5l22 78q31 -16 81 -33.5t110 -17.5q49 0 84.5 21.5t35.5 58.5q0 39 -31.5 56t-70.5 17q-27 0 -45.5 -3t-40.5 -11l-27 27l99 117 q-104 8 -190.5 50t-147 109.5t-94 159.5t-33.5 197z" />
<glyph unicode="&#xe8;" horiz-adv-x="1153" d="M76 496q0 109 39 205t107.5 166.5t163.5 112.5t208 42q221 0 360.5 -151.5t139.5 -424.5h-852q6 -139 102 -229t260 -90q135 0 211 43t123 96l106 -110q-68 -74 -166 -126.5t-272 -52.5q-115 0 -212 35t-167.5 101.5t-110.5 163t-40 219.5zM244 578h678q-2 123 -94.5 211 t-239.5 88q-74 0 -135.5 -25t-105.5 -66t-70.5 -95t-32.5 -113zM377 1446h201l219 -336h-172z" />
<glyph unicode="&#xe9;" horiz-adv-x="1153" d="M76 496q0 109 39 205t107.5 166.5t163.5 112.5t208 42q221 0 360.5 -151.5t139.5 -424.5h-852q6 -139 102 -229t260 -90q135 0 211 43t123 96l106 -110q-68 -74 -166 -126.5t-272 -52.5q-115 0 -212 35t-167.5 101.5t-110.5 163t-40 219.5zM244 578h678q-2 123 -94.5 211 t-239.5 88q-74 0 -135.5 -25t-105.5 -66t-70.5 -95t-32.5 -113zM377 1118l217 336h203l-248 -336h-172z" />
<glyph unicode="&#xea;" horiz-adv-x="1153" d="M76 496q0 109 39 205t107.5 166.5t163.5 112.5t208 42q221 0 360.5 -151.5t139.5 -424.5h-852q6 -139 102 -229t260 -90q135 0 211 43t123 96l106 -110q-68 -74 -166 -126.5t-272 -52.5q-115 0 -212 35t-167.5 101.5t-110.5 163t-40 219.5zM244 578h678q-2 123 -94.5 211 t-239.5 88q-74 0 -135.5 -25t-105.5 -66t-70.5 -95t-32.5 -113zM248 1112l252 350h174l252 -350h-160l-180 238l-183 -238h-155z" />
<glyph unicode="&#xeb;" horiz-adv-x="1153" d="M76 496q0 109 39 205t107.5 166.5t163.5 112.5t208 42q221 0 360.5 -151.5t139.5 -424.5h-852q6 -139 102 -229t260 -90q135 0 211 43t123 96l106 -110q-68 -74 -166 -126.5t-272 -52.5q-115 0 -212 35t-167.5 101.5t-110.5 163t-40 219.5zM244 578h678q-2 123 -94.5 211 t-239.5 88q-74 0 -135.5 -25t-105.5 -66t-70.5 -95t-32.5 -113zM324 1112v322h145v-322h-145zM698 1112v322h146v-322h-146z" />
<glyph unicode="&#xec;" horiz-adv-x="503" d="M41 1446h201l219 -336h-172zM166 0v995h172v-995h-172z" />
<glyph unicode="&#xed;" horiz-adv-x="503" d="M41 1118l217 336h203l-248 -336h-172zM166 0v995h172v-995h-172z" />
<glyph unicode="&#xee;" horiz-adv-x="503" d="M-88 1112l252 350h174l252 -350h-160l-180 238l-182 -238h-156zM166 0v995h172v-995h-172z" />
<glyph unicode="&#xef;" horiz-adv-x="503" d="M-12 1112v322h145v-322h-145zM166 0v995h172v-995h-172zM362 1112v322h146v-322h-146z" />
<glyph unicode="&#xf0;" horiz-adv-x="1216" d="M76 489q0 104 41 197.5t110.5 163.5t160.5 110.5t192 40.5q131 0 231 -64.5t139 -139.5q-16 156 -68.5 274.5t-117.5 202.5l-299 -100l-35 96l258 88q-70 66 -139.5 105.5t-118.5 54.5l154 63q49 -18 115.5 -61t134.5 -113l165 55l33 -98l-127 -43q94 -123 161 -313.5 t67 -458.5q0 -119 -37 -223.5t-105.5 -181t-168 -122t-226.5 -45.5q-109 0 -204 37t-164.5 103.5t-110.5 162t-41 209.5zM252 496q0 -164 101.5 -268.5t246.5 -104.5q164 0 262.5 108.5t98.5 268.5q0 154 -94.5 258t-260.5 104q-76 0 -141.5 -28.5t-112.5 -78.5t-73.5 -117 t-26.5 -142z" />
<glyph unicode="&#xf1;" horiz-adv-x="1187" d="M158 0v995h157v-204q35 100 136.5 165.5t232.5 65.5q152 0 255 -86t103 -227v-709h-170v668q0 98 -70.5 154.5t-174.5 56.5q-53 0 -106.5 -16.5t-95.5 -51.5t-68.5 -87t-26.5 -124v-600h-172zM279 1135q0 139 56 206.5t120 67.5q51 0 91 -24.5t77 -53.5q33 -27 62.5 -48 t59.5 -21q31 0 52.5 36.5t23.5 102.5h133q0 -141 -42 -208t-113 -67q-57 0 -101.5 24t-76.5 50q-33 25 -66 48.5t-66 23.5t-55 -36t-24 -101h-131z" />
<glyph unicode="&#xf2;" horiz-adv-x="1202" d="M74 494q0 109 42 206t112.5 167.5t165.5 112.5t200 42q111 0 208 -37t169.5 -102.5t114.5 -157.5t42 -203q0 -117 -42 -217t-113.5 -173t-169.5 -114t-209 -41q-100 0 -194.5 36t-166 102.5t-115.5 163t-44 215.5zM252 496q0 -170 101.5 -268.5t248.5 -98.5 q154 0 251 108.5t97 272.5q0 150 -98 255t-264 105q-143 0 -239.5 -107.5t-96.5 -266.5zM383 1446h201l219 -336h-172z" />
<glyph unicode="&#xf3;" horiz-adv-x="1202" d="M74 494q0 109 42 206t112.5 167.5t165.5 112.5t200 42q111 0 208 -37t169.5 -102.5t114.5 -157.5t42 -203q0 -117 -42 -217t-113.5 -173t-169.5 -114t-209 -41q-100 0 -194.5 36t-166 102.5t-115.5 163t-44 215.5zM252 496q0 -170 101.5 -268.5t248.5 -98.5 q154 0 251 108.5t97 272.5q0 150 -98 255t-264 105q-143 0 -239.5 -107.5t-96.5 -266.5zM383 1118l217 336h203l-248 -336h-172z" />
<glyph unicode="&#xf4;" horiz-adv-x="1202" d="M74 494q0 109 42 206t112.5 167.5t165.5 112.5t200 42q111 0 208 -37t169.5 -102.5t114.5 -157.5t42 -203q0 -117 -42 -217t-113.5 -173t-169.5 -114t-209 -41q-100 0 -194.5 36t-166 102.5t-115.5 163t-44 215.5zM252 496q0 -170 101.5 -268.5t248.5 -98.5 q154 0 251 108.5t97 272.5q0 150 -98 255t-264 105q-143 0 -239.5 -107.5t-96.5 -266.5zM254 1112l252 350h174l252 -350h-160l-180 238l-182 -238h-156z" />
<glyph unicode="&#xf5;" horiz-adv-x="1202" d="M74 494q0 109 42 206t112.5 167.5t165.5 112.5t200 42q111 0 208 -37t169.5 -102.5t114.5 -157.5t42 -203q0 -117 -42 -217t-113.5 -173t-169.5 -114t-209 -41q-100 0 -194.5 36t-166 102.5t-115.5 163t-44 215.5zM252 496q0 -170 101.5 -268.5t248.5 -98.5 q154 0 251 108.5t97 272.5q0 150 -98 255t-264 105q-143 0 -239.5 -107.5t-96.5 -266.5zM258 1135q0 139 56.5 206.5t119.5 67.5q51 0 91 -24.5t77 -53.5q33 -27 62.5 -48t60.5 -21t52.5 36.5t23.5 102.5h133q0 -141 -42 -208t-114 -67q-57 0 -101 24t-77 50 q-33 25 -65.5 48.5t-65.5 23.5t-55.5 -36t-24.5 -101h-131z" />
<glyph unicode="&#xf6;" horiz-adv-x="1202" d="M74 494q0 109 42 206t112.5 167.5t165.5 112.5t200 42q111 0 208 -37t169.5 -102.5t114.5 -157.5t42 -203q0 -117 -42 -217t-113.5 -173t-169.5 -114t-209 -41q-100 0 -194.5 36t-166 102.5t-115.5 163t-44 215.5zM252 496q0 -170 101.5 -268.5t248.5 -98.5 q154 0 251 108.5t97 272.5q0 150 -98 255t-264 105q-143 0 -239.5 -107.5t-96.5 -266.5zM330 1112v322h145v-322h-145zM705 1112v322h145v-322h-145z" />
<glyph unicode="&#xf7;" d="M53 604v146h918v-146h-918zM430 205v231h164v-231h-164zM430 918v231h164v-231h-164z" />
<glyph unicode="&#xf8;" horiz-adv-x="1202" d="M63 63l115 113q-49 63 -76.5 143t-27.5 175q0 109 42 206t112.5 167.5t165.5 112.5t200 42q94 0 179 -26.5t153 -75.5l110 110l82 -82l-106 -106q55 -63 85.5 -144.5t30.5 -175.5q0 -117 -42 -217t-113.5 -173t-169.5 -114t-209 -41q-92 0 -178 30t-156 85l-113 -110z M252 496q0 -57 12 -107.5t35 -89.5l510 504q-45 33 -100.5 50t-120.5 17q-143 0 -239.5 -107t-96.5 -267zM375 207q45 -37 103.5 -57.5t123.5 -20.5q154 0 251 108.5t97 272.5q0 57 -16 111.5t-45 97.5z" />
<glyph unicode="&#xf9;" horiz-adv-x="1187" d="M145 317v678h170v-633q0 -127 74 -185t186 -58q113 0 198 72.5t85 201.5v602h172v-995h-162v205q-33 -92 -129 -160t-231 -68q-152 0 -257.5 86.5t-105.5 253.5zM379 1446h201l219 -336h-172z" />
<glyph unicode="&#xfa;" horiz-adv-x="1187" d="M145 317v678h170v-633q0 -127 74 -185t186 -58q113 0 198 72.5t85 201.5v602h172v-995h-162v205q-33 -92 -129 -160t-231 -68q-152 0 -257.5 86.5t-105.5 253.5zM379 1118l217 336h203l-248 -336h-172z" />
<glyph unicode="&#xfb;" horiz-adv-x="1187" d="M145 317v678h170v-633q0 -127 74 -185t186 -58q113 0 198 72.5t85 201.5v602h172v-995h-162v205q-33 -92 -129 -160t-231 -68q-152 0 -257.5 86.5t-105.5 253.5zM250 1112l252 350h174l252 -350h-160l-180 238l-182 -238h-156z" />
<glyph unicode="&#xfc;" horiz-adv-x="1187" d="M145 317v678h170v-633q0 -127 74 -185t186 -58q113 0 198 72.5t85 201.5v602h172v-995h-162v205q-33 -92 -129 -160t-231 -68q-152 0 -257.5 86.5t-105.5 253.5zM326 1112v322h145v-322h-145zM700 1112v322h146v-322h-146z" />
<glyph unicode="&#xfd;" horiz-adv-x="1036" d="M-6 995h186l336 -751l344 751h178l-557 -1169q-68 -143 -156.5 -189.5t-166.5 -46.5q-45 0 -77 9.5t-46 15.5l49 156q10 -6 33.5 -12.5t48.5 -6.5q51 0 94 33t86 121l80 160zM309 1118l217 336h203l-248 -336h-172z" />
<glyph unicode="&#xfe;" horiz-adv-x="1228" d="M158 -403v1970h168v-801q12 47 43.5 93t80 82t113 57.5t142.5 21.5q203 0 326.5 -140.5t123.5 -363.5q0 -121 -37 -220t-98.5 -168t-144 -105.5t-173.5 -36.5q-145 0 -244.5 69.5t-129.5 163.5v-622h-170zM324 492q0 -92 27.5 -162t72.5 -115t106 -67.5t129 -22.5 q135 0 226.5 104.5t91.5 274.5q0 160 -83 267.5t-239 107.5q-139 0 -235 -98.5t-96 -288.5z" />
<glyph unicode="&#xff;" horiz-adv-x="1036" d="M-6 995h186l336 -751l344 751h178l-557 -1169q-68 -143 -156.5 -189.5t-166.5 -46.5q-45 0 -77 9.5t-46 15.5l49 156q10 -6 33.5 -12.5t48.5 -6.5q51 0 94 33t86 121l80 160zM256 1112v322h145v-322h-145zM631 1112v322h145v-322h-145z" />
<glyph unicode="&#x152;" horiz-adv-x="2428" d="M98 756q0 162 58.5 302t160 242.5t240.5 161t297 58.5q88 0 179 -26t171 -72t142.5 -109.5t91.5 -138.5v321h835v-164h-661v-510h633v-159h-633v-498h702v-164h-876v350q-57 -160 -212 -267.5t-380 -107.5q-164 0 -302 58.5t-236.5 162t-154 247t-55.5 313.5zM287 750 q0 -143 46 -257t125 -193t185 -121t223 -42t222.5 41t183.5 119t123 193.5t45 265.5q0 147 -55.5 259.5t-139.5 186.5t-187.5 112t-197.5 38q-121 0 -226.5 -42t-182 -121t-120.5 -190.5t-44 -248.5z" />
<glyph unicode="&#x153;" horiz-adv-x="2031" d="M74 494q0 109 41 205t111.5 167.5t166.5 113.5t205 42q94 0 170 -25.5t129 -66.5t89 -91.5t50 -99.5q12 43 49 93.5t93.5 92.5t131 69.5t163.5 27.5q231 0 365 -156.5t134 -416.5h-850q4 -141 106.5 -232.5t256.5 -91.5q135 0 207.5 44t124.5 97l106 -110 q-68 -74 -164 -126.5t-272 -52.5q-92 0 -170 26t-136.5 66t-96 90t-50.5 99q-12 -45 -48 -95t-92 -91t-132 -68t-166 -27q-104 0 -200.5 37t-167 104.5t-112.5 163t-42 212.5zM252 496q0 -170 101.5 -268.5t248.5 -98.5q154 0 252 104.5t98 276.5q0 154 -100 257t-260 103 q-147 0 -243.5 -107.5t-96.5 -266.5zM1124 578h678q-4 127 -96 213t-240 86q-147 0 -237.5 -89t-104.5 -210z" />
<glyph unicode="&#x178;" horiz-adv-x="1333" d="M4 1495h207l461 -670l461 670h196l-575 -840v-655h-185v664zM406 1612v321h145v-321h-145zM780 1612v321h146v-321h-146z" />
<glyph unicode="&#x2c6;" d="M174 1112l252 350h174l252 -350h-160l-180 238l-182 -238h-156z" />
<glyph unicode="&#x2dc;" d="M180 1135q0 139 56.5 206.5t119.5 67.5q51 0 91 -24.5t77 -53.5q33 -27 62.5 -48t60.5 -21t52.5 36.5t23.5 102.5h133q0 -141 -42 -208t-114 -67q-57 0 -101 24t-77 50q-33 25 -65.5 48.5t-65.5 23.5t-55.5 -36t-24.5 -101h-131z" />
<glyph unicode="&#x2000;" horiz-adv-x="1042" />
<glyph unicode="&#x2001;" horiz-adv-x="2085" />
<glyph unicode="&#x2002;" horiz-adv-x="1042" />
<glyph unicode="&#x2003;" horiz-adv-x="2085" />
<glyph unicode="&#x2004;" horiz-adv-x="695" />
<glyph unicode="&#x2005;" horiz-adv-x="521" />
<glyph unicode="&#x2006;" horiz-adv-x="347" />
<glyph unicode="&#x2007;" horiz-adv-x="347" />
<glyph unicode="&#x2008;" horiz-adv-x="260" />
<glyph unicode="&#x2009;" horiz-adv-x="417" />
<glyph unicode="&#x200a;" horiz-adv-x="115" />
<glyph unicode="&#x2010;" horiz-adv-x="706" d="M92 463v155h522v-155h-522z" />
<glyph unicode="&#x2011;" horiz-adv-x="706" d="M92 463v155h522v-155h-522z" />
<glyph unicode="&#x2012;" horiz-adv-x="706" d="M92 463v155h522v-155h-522z" />
<glyph unicode="&#x2013;" horiz-adv-x="942" d="M84 467v149h776v-149h-776z" />
<glyph unicode="&#x2014;" horiz-adv-x="1320" d="M84 467v149h1155v-149h-1155z" />
<glyph unicode="&#x2018;" horiz-adv-x="538" d="M70 1038v15q0 113 71.5 235.5t192.5 220.5l170 -12q-31 -18 -74 -61t-82 -102.5t-66.5 -131.5t-27.5 -147v-17h-184z" />
<glyph unicode="&#x2019;" horiz-adv-x="538" d="M33 1051q31 25 74 68.5t81.5 101t66.5 127t28 145.5v16h184v-14q0 -113 -74 -232.5t-190 -224.5z" />
<glyph unicode="&#x201a;" horiz-adv-x="538" d="M33 -231q31 25 74 68.5t81.5 101t66.5 127t28 145.5v16h184v-14q0 -113 -74 -232.5t-190 -224.5z" />
<glyph unicode="&#x201c;" horiz-adv-x="894" d="M70 1038v15q0 113 70.5 228.5t185.5 227.5l155 -12q-27 -25 -68.5 -69t-80.5 -101t-67.5 -127t-28.5 -145v-17h-166zM451 1038v15q0 113 66.5 228.5t189.5 227.5l155 -12q-31 -27 -72.5 -71t-79.5 -101t-66 -126t-28 -144v-17h-165z" />
<glyph unicode="&#x201d;" horiz-adv-x="894" d="M33 1051q35 29 78 73.5t79.5 101t62.5 124t26 143.5v16h165v-14q0 -113 -63.5 -228.5t-192.5 -228.5zM414 1051q37 31 80 74.5t79.5 100t61 124t24.5 143.5v16h166v-14q0 -113 -66.5 -230.5t-189.5 -226.5z" />
<glyph unicode="&#x201e;" horiz-adv-x="894" d="M33 -223q35 29 78 74t79.5 101t62.5 123.5t26 143.5v17h165v-15q0 -113 -63.5 -228.5t-192.5 -228.5zM414 -223q37 31 80 75t79.5 100t61 123.5t24.5 143.5v17h166v-15q0 -113 -66.5 -230.5t-189.5 -226.5z" />
<glyph unicode="&#x2022;" horiz-adv-x="782" d="M231 776q0 68 46 114t114 46t114 -46t46 -114q0 -66 -46 -113t-114 -47t-114 47.5t-46 112.5z" />
<glyph unicode="&#x2026;" horiz-adv-x="1423" d="M152 0v252h172v-252h-172zM625 0v252h174v-252h-174zM1098 0v252h174v-252h-174z" />
<glyph unicode="&#x202f;" horiz-adv-x="417" />
<glyph unicode="&#x2039;" horiz-adv-x="481" d="M57 541v112l363 338v-176l-213 -221l213 -215v-180z" />
<glyph unicode="&#x203a;" horiz-adv-x="481" d="M61 201v174l213 223l-213 213v182l363 -342v-112z" />
<glyph unicode="&#x205f;" horiz-adv-x="521" />
<glyph unicode="&#x20ac;" horiz-adv-x="1161" d="M80 524v131h86q-2 20 -2 43v43v37t2 37h-86v129h98q18 125 62.5 231.5t110 182.5t153.5 119t194 43q176 0 280.5 -71t156.5 -167l-138 -72q-45 76 -116.5 124t-182.5 48q-141 0 -236 -113.5t-124 -324.5h666v-129h-678q-2 -16 -2 -34.5v-37.5v-45t2 -43h678v-131h-662 q39 -201 139.5 -306t220.5 -105q111 0 193 61.5t127 144.5l133 -81q-63 -113 -185 -188t-270 -75q-190 0 -331.5 146.5t-186.5 402.5h-102z" />
<glyph unicode="&#x2122;" horiz-adv-x="1832" d="M43 1325v170h690v-170h-264v-711h-170v711h-256zM793 614v881h133l325 -451l322 451h139v-881h-153v629l-293 -409h-33l-291 407v-627h-149z" />
<glyph unicode="&#x25fc;" horiz-adv-x="993" d="M0 0v993h993v-993h-993z" />
<glyph unicode="&#xfb01;" horiz-adv-x="1239" d="M37 856v139h217v154q0 115 35 199t91 138t127 79.5t140 25.5q45 0 90 -8t68 -18l-25 -150q-18 6 -50 13.5t-66 7.5q-39 0 -82 -17.5t-78 -50.5t-57.5 -83t-22.5 -116v-174h305v-139h-305v-856h-170v856h-217zM901 1223v172h182v-172h-182zM907 0v995h170v-995h-170z" />
<glyph unicode="&#xfb02;" horiz-adv-x="1208" d="M37 856v139h217v133q0 115 35 200t91 140.5t127 82t140 26.5q45 0 90 -8t68 -21l-25 -149q-18 8 -50 15t-66 7q-39 0 -82 -17.5t-78 -52t-57.5 -86t-22.5 -116.5v-154h305v-139h-305v-856h-170v856h-217zM877 0v1567h170v-1567h-170z" />
</font>
</defs>
</svg>
