<?xml version="1.0" encoding="utf-8" ?><svg version="1.1" xmlns = 'http://www.w3.org/2000/svg'><defs><font id='web' horiz-adv-x="1000">
<font-face font-family="web" descent="-200" cap-height="730" units-per-em="1000" bbox="-145,-207,1161,982" x-height="533" ascent="800" />
<missing-glyph horiz-adv-x="500" d="" /><glyph horiz-adv-x="253" d="" unicode=" " />
<glyph horiz-adv-x="293" d="M 191 435 L 166 198 L 127 198 L 103 435 L 103 730 L 191 730 L 191 435 Z M 188 0 L 105 0 L 105 85 L 188 85 L 188 0 Z" unicode="!" />
<glyph horiz-adv-x="410" d="M 147 610 L 143 473 L 81 473 L 77 610 L 77 730 L 147 730 L 147 610 Z M 333 610 L 327 473 L 266 473 L 262 610 L 262 730 L 333 730 L 333 610 Z" unicode="&#x22;" />
<glyph horiz-adv-x="645" d="M 398 288 L 411 439 L 247 439 L 233 288 L 398 288 Z M 586 230 L 441 230 L 421 0 L 373 1 L 393 230 L 228 230 L 208 0 L 160 1 L 180 230 L 34 230 L 34 288 L 185 288 L 198 439 L 59 439 L 59 497 L 204 497 L 224 730 L 272 729 L 252 497 L 417 497 L 437 730 L 485 729 L 465 497 L 611 497 L 611 439 L 460 439 L 446 288 L 586 288 L 586 230 Z" unicode="#" />
<glyph horiz-adv-x="537" d="M 120 557 C 120 527 128 503 146 485 C 163 466 195 445 241 423 L 241 668 C 206 665 177 654 154 634 C 131 614 120 589 120 557 Z M 420 181 C 420 209 411 233 394 254 C 377 275 341 299 287 326 L 287 61 C 327 63 359 75 383 97 C 407 119 420 147 420 181 Z M 287 -120 L 241 -120 L 241 2 C 196 4 155 14 119 30 C 82 46 53 64 33 86 L 61 148 C 80 127 106 109 140 93 C 173 77 207 67 241 63 L 241 347 C 169 379 118 411 90 441 C 61 471 47 509 47 557 C 47 607 65 647 101 679 C 137 711 184 728 241 730 L 241 789 L 287 789 L 287 729 C 327 726 362 718 394 705 C 425 692 451 676 473 656 L 436 603 C 417 621 395 635 369 647 C 343 658 315 665 287 668 L 287 402 L 293 399 C 361 368 412 337 445 307 C 477 276 494 235 494 184 C 494 157 488 133 478 111 C 467 89 452 71 434 55 C 415 39 393 26 368 17 C 342 8 315 3 287 1 L 287 -120 Z" unicode="$" />
<glyph horiz-adv-x="855" d="M 211 350 C 189 350 167 354 147 363 C 127 372 109 385 94 402 C 78 418 66 439 57 463 C 47 487 43 515 43 545 C 43 571 47 596 55 620 C 63 644 75 664 90 682 C 104 700 122 714 143 725 C 163 735 186 741 210 741 C 235 741 258 735 279 725 C 299 715 317 701 331 683 C 345 665 357 645 365 622 C 373 598 377 574 377 548 C 377 520 373 495 365 471 C 357 447 345 426 331 408 C 316 390 298 375 278 365 C 258 355 235 350 211 350 Z M 197 0 L 122 0 L 646 730 L 722 730 L 197 0 Z M 208 409 C 240 409 264 421 282 447 C 300 472 309 505 309 545 C 309 584 300 616 284 642 C 268 668 243 681 211 681 C 180 681 156 668 138 643 C 120 617 111 585 111 545 C 111 501 120 467 139 444 C 158 420 181 409 208 409 Z M 645 -3 C 623 -3 601 1 581 10 C 561 19 543 32 528 49 C 513 65 501 86 492 110 C 482 134 478 162 478 192 C 478 218 482 243 490 267 C 498 291 510 311 525 329 C 539 347 557 361 578 372 C 598 382 621 388 645 388 C 670 388 693 382 714 372 C 734 362 752 348 766 330 C 780 312 792 292 800 269 C 808 245 812 221 812 195 C 812 167 808 142 800 118 C 792 94 780 73 766 55 C 751 37 733 22 713 12 C 692 2 669 -3 645 -3 Z M 643 57 C 675 57 699 69 717 94 C 735 119 744 152 744 192 C 744 231 735 264 719 290 C 702 316 677 329 645 329 C 614 329 590 316 572 290 C 554 264 546 232 546 192 C 546 148 555 114 575 91 C 594 68 617 57 643 57 Z" unicode="%" />
<glyph horiz-adv-x="719" d="M 246 449 L 276 424 C 314 448 345 472 368 494 C 390 516 402 542 402 570 C 402 598 392 623 373 643 C 354 663 327 674 291 674 C 259 674 233 663 211 643 C 189 622 179 599 179 575 C 179 550 185 527 198 506 C 211 484 227 465 246 449 Z M 293 57 C 331 57 366 63 400 77 C 433 90 465 109 495 133 L 253 343 C 212 317 180 292 156 268 C 132 244 120 213 120 176 C 120 138 136 108 170 88 C 204 67 245 57 293 57 Z M 652 -3 L 556 81 C 522 53 483 31 439 15 C 395 0 345 -8 289 -8 C 251 -8 217 -4 186 4 C 155 12 129 23 107 38 C 85 53 67 72 55 94 C 43 116 37 141 37 170 C 37 196 41 219 51 239 C 61 259 74 278 90 294 C 106 310 124 326 145 340 C 165 354 187 367 209 381 L 190 398 C 170 416 151 439 131 468 C 111 497 102 533 102 577 C 102 599 107 619 118 639 C 129 659 144 676 162 690 C 180 704 200 716 223 724 C 246 732 270 737 294 737 C 352 737 396 721 428 689 C 460 657 476 620 476 576 C 476 533 461 498 433 470 C 404 442 366 414 320 385 L 550 187 C 562 200 573 214 585 230 C 597 245 608 261 620 278 L 691 241 C 678 221 665 202 652 184 C 639 166 625 149 611 134 L 694 62 L 652 -3 Z" unicode="&#x26;" />
<glyph horiz-adv-x="225" d="M 147 606 L 143 466 L 81 466 L 77 606 L 77 730 L 147 730 L 147 606 Z" unicode="'" />
<glyph horiz-adv-x="334" d="M 318 -121 L 318 -186 C 276 -165 237 -138 202 -104 C 167 -70 137 -33 112 9 C 87 51 68 96 54 145 C 40 193 33 243 33 293 C 33 346 40 397 56 445 C 72 493 93 536 119 576 C 145 615 175 649 210 679 C 244 709 280 732 318 749 L 318 692 C 292 676 268 655 245 630 C 221 605 201 576 183 543 C 165 510 151 473 140 431 C 129 389 124 343 124 293 C 124 249 128 207 138 166 C 147 124 160 86 177 50 C 193 14 214 -17 238 -47 C 262 -76 288 -101 318 -121 Z" unicode="(" />
<glyph horiz-adv-x="334" d="M 16 693 L 16 749 C 51 734 86 712 120 683 C 154 654 185 620 212 580 C 238 540 260 495 276 445 C 292 394 301 340 301 282 C 301 228 293 177 278 129 C 262 80 242 35 216 -4 C 190 -44 159 -80 125 -111 C 90 -142 54 -167 16 -186 L 16 -120 C 41 -102 65 -79 89 -52 C 113 -25 133 5 151 39 C 169 73 183 110 194 151 C 204 192 210 236 210 282 C 210 335 204 384 192 428 C 180 472 165 512 147 546 C 129 580 108 610 85 635 C 62 659 39 679 16 693 Z" unicode=")" />
<glyph horiz-adv-x="423" d="M 382 580 L 249 541 L 346 445 L 292 397 L 213 516 L 134 397 L 82 444 L 177 543 L 41 581 L 68 644 L 190 582 L 174 730 L 251 730 L 234 582 L 359 643 L 382 580 Z" unicode="*" />
<glyph horiz-adv-x="500" d="M 473 299 L 282 299 L 282 115 L 218 115 L 218 299 L 27 299 L 27 363 L 218 363 L 218 547 L 282 547 L 282 363 L 473 363 L 473 299 Z" unicode="+" />
<glyph horiz-adv-x="241" d="M 197 109 C 190 54 175 4 153 -41 C 131 -87 105 -124 76 -152 L 20 -126 C 28 -117 36 -104 46 -88 C 56 -72 65 -53 75 -32 C 84 -11 92 11 100 35 C 108 59 114 84 118 109 L 197 109 Z" unicode="," />
<glyph horiz-adv-x="344" d="M 299 229 L 45 229 L 45 296 L 299 296 L 299 229 Z" unicode="-" />
<glyph horiz-adv-x="242" d="M 159 0 L 83 0 L 83 125 L 159 125 L 159 0 Z" unicode="." />
<glyph horiz-adv-x="312" d="M 307 730 L 75 0 L 5 0 L 239 730 L 307 730 Z" unicode="/" />
<glyph horiz-adv-x="598" d="M 296 -12 C 256 -12 221 -2 190 15 C 158 33 132 59 110 92 C 88 124 71 164 59 210 C 47 256 42 306 42 361 C 42 411 47 460 58 506 C 68 552 84 592 106 627 C 127 662 154 690 187 711 C 219 731 257 742 301 742 C 345 742 384 731 416 711 C 448 691 475 664 496 630 C 516 596 531 556 541 511 C 551 465 556 418 556 368 C 556 314 550 264 540 218 C 529 172 513 132 492 98 C 470 64 443 37 411 17 C 378 -2 340 -12 296 -12 Z M 296 57 C 327 57 354 64 377 80 C 400 95 419 116 434 143 C 448 170 459 202 467 239 C 474 276 478 316 478 359 C 478 403 474 444 468 482 C 461 520 450 554 436 582 C 422 610 403 633 381 649 C 358 665 331 674 299 674 C 269 674 242 666 220 650 C 198 634 179 613 164 585 C 149 557 138 524 131 486 C 123 448 120 406 120 362 C 120 318 123 277 131 239 C 139 201 150 169 165 142 C 179 115 198 94 220 79 C 242 64 267 57 296 57 Z" unicode="0" />
<glyph horiz-adv-x="379" d="M 281 0 L 204 0 L 204 629 C 190 609 168 589 138 569 C 108 549 79 537 50 535 L 50 607 C 82 609 115 623 147 648 C 179 672 206 700 229 731 L 281 731 L 281 0 Z" unicode="1" />
<glyph horiz-adv-x="569" d="M 539 0 L 34 0 L 34 30 L 359 354 C 380 374 400 400 419 430 C 438 460 448 495 448 533 C 448 575 432 610 400 636 C 368 662 329 675 281 675 C 229 675 188 659 158 628 C 128 597 113 556 113 504 L 41 504 C 43 578 66 637 111 679 C 156 721 217 742 294 742 C 362 742 417 723 461 687 C 505 651 527 602 527 542 C 527 488 515 444 493 409 C 471 373 447 343 422 319 L 168 70 L 539 70 L 539 0 Z" unicode="2" />
<glyph horiz-adv-x="571" d="M 282 -12 C 216 -12 160 -3 116 13 C 72 30 37 49 13 70 L 55 134 C 75 116 104 99 140 81 C 176 63 220 55 272 55 C 332 55 379 70 413 102 C 447 133 464 172 464 218 C 464 260 448 293 416 319 C 384 344 343 357 291 357 L 155 357 L 155 423 L 287 423 C 333 423 371 435 399 461 C 427 487 441 516 441 549 C 441 564 437 579 430 594 C 423 609 413 623 400 635 C 387 647 371 656 351 664 C 331 671 309 675 285 675 C 234 675 193 664 161 642 C 129 620 105 595 87 568 L 41 621 C 61 652 92 680 134 705 C 176 729 227 742 288 742 C 359 742 415 725 456 692 C 497 658 518 616 518 564 C 518 520 503 483 475 453 C 446 422 412 402 372 393 C 420 385 460 366 493 335 C 525 303 542 263 542 215 C 542 184 536 155 524 127 C 512 99 494 75 472 55 C 449 34 422 18 390 6 C 358 -6 322 -12 282 -12 Z" unicode="3" />
<glyph horiz-adv-x="583" d="M 577 191 L 450 191 L 450 0 L 378 0 L 378 191 L 16 191 L 16 249 L 391 744 L 450 744 L 450 254 L 577 254 L 577 191 Z M 379 254 L 379 630 L 99 254 L 379 254 Z" unicode="4" />
<glyph horiz-adv-x="586" d="M 279 -12 C 224 -12 175 -2 132 15 C 88 33 55 55 33 79 L 75 139 C 93 119 120 100 154 82 C 188 64 230 55 278 55 C 336 55 382 73 416 111 C 450 149 468 197 468 256 C 468 310 452 354 420 386 C 388 418 348 434 300 434 C 262 434 227 426 196 410 C 164 394 141 370 126 340 L 74 354 L 104 730 L 493 730 L 493 660 L 161 660 L 143 415 C 155 437 178 456 211 473 C 243 489 279 498 317 498 C 384 498 439 476 482 432 C 525 388 547 331 547 260 C 547 221 540 185 528 152 C 515 118 497 89 474 65 C 451 41 423 22 390 8 C 357 -5 320 -12 279 -12 Z" unicode="5" />
<glyph horiz-adv-x="580" d="M 300 -12 C 262 -12 227 -5 195 7 C 163 19 135 37 112 60 C 89 83 71 111 59 143 C 46 175 40 211 40 251 C 40 294 46 336 60 377 C 73 417 91 456 115 493 C 138 529 166 565 198 600 C 230 634 264 667 301 699 L 367 756 L 413 700 L 353 649 C 294 597 244 547 204 497 C 163 447 139 404 131 368 C 141 390 163 412 196 434 C 228 456 267 467 313 467 C 349 467 381 461 410 449 C 439 437 464 420 484 399 C 504 378 520 353 531 324 C 542 295 548 264 548 230 C 548 196 541 165 529 135 C 516 105 499 80 477 58 C 455 36 428 19 398 7 C 368 -5 335 -12 300 -12 Z M 296 55 C 322 55 346 59 368 69 C 390 79 408 91 423 107 C 438 123 450 141 458 162 C 466 183 470 205 470 228 C 470 251 466 273 459 294 C 451 315 440 334 426 350 C 411 366 393 378 371 388 C 349 398 324 403 296 403 C 272 403 250 398 228 390 C 206 382 186 370 170 356 C 153 341 139 323 129 302 C 119 281 114 258 114 233 C 114 208 118 185 126 163 C 134 141 146 123 162 107 C 178 91 197 78 219 69 C 241 59 267 55 296 55 Z" unicode="6" />
<glyph horiz-adv-x="505" d="M 490 730 L 503 693 L 146 -6 L 79 25 L 407 659 L 16 659 L 16 730 L 490 730 Z" unicode="7" />
<glyph horiz-adv-x="615" d="M 399 387 C 447 378 487 357 521 324 C 554 290 571 247 571 195 C 571 165 564 138 552 112 C 540 86 522 64 500 46 C 478 28 450 13 418 3 C 385 -6 348 -12 308 -12 C 228 -12 164 7 117 46 C 69 84 46 134 46 194 C 46 220 51 245 61 268 C 71 290 84 310 100 327 C 116 343 135 357 156 367 C 176 377 197 384 219 386 C 201 390 183 396 165 406 C 147 415 130 427 116 441 C 102 455 90 472 82 490 C 73 508 69 529 69 551 C 69 579 75 605 87 629 C 99 652 116 672 137 689 C 158 705 183 718 213 728 C 242 737 274 742 308 742 C 379 742 437 725 481 691 C 525 657 547 611 547 555 C 547 534 542 514 534 496 C 526 477 515 460 501 445 C 487 430 472 418 454 408 C 436 398 418 391 399 387 Z M 308 411 C 358 411 398 423 429 448 C 459 473 475 504 475 542 C 475 582 459 615 427 640 C 395 665 356 678 308 678 C 262 678 222 665 190 640 C 157 615 141 582 141 542 C 141 502 157 471 190 447 C 222 423 262 411 308 411 Z M 309 52 C 365 52 411 66 445 94 C 479 122 497 160 497 206 C 497 251 479 286 444 310 C 409 334 364 347 309 347 C 254 347 209 334 174 310 C 138 286 121 250 121 203 C 121 159 138 122 173 94 C 207 66 253 52 309 52 Z" unicode="8" />
<glyph horiz-adv-x="580" d="M 224 -18 L 184 37 L 265 103 C 287 121 309 141 330 164 C 350 186 369 209 386 233 C 402 257 417 281 429 305 C 441 329 449 352 455 374 C 449 361 439 348 426 336 C 413 323 398 312 381 302 C 363 292 345 284 325 278 C 305 272 285 269 265 269 C 194 269 137 290 95 334 C 53 378 32 435 32 506 C 32 538 38 568 51 597 C 63 626 81 651 103 673 C 125 694 152 711 183 724 C 214 736 248 743 284 743 C 320 743 353 737 385 725 C 416 713 443 695 466 673 C 488 650 506 622 520 590 C 533 558 540 521 540 481 C 540 433 533 387 519 344 C 505 300 487 260 465 223 C 443 186 417 152 388 122 C 358 91 328 64 298 41 L 224 -18 Z M 281 328 C 307 328 332 332 355 342 C 377 351 397 363 413 379 C 429 394 442 412 452 433 C 461 453 466 475 466 498 C 466 524 461 549 452 571 C 442 593 429 612 413 628 C 397 644 378 656 356 665 C 334 674 311 679 287 679 C 259 679 235 674 213 664 C 191 654 172 642 157 626 C 141 610 130 591 122 570 C 114 548 110 526 110 504 C 110 480 113 458 121 437 C 128 415 139 397 153 381 C 167 365 185 352 207 342 C 228 332 253 328 281 328 Z" unicode="9" />
<glyph horiz-adv-x="234" d="M 155 411 L 79 411 L 79 533 L 155 533 L 155 411 Z M 155 0 L 79 0 L 79 122 L 155 122 L 155 0 Z" unicode=":" />
<glyph horiz-adv-x="234" d="M 160 411 L 84 411 L 84 533 L 160 533 L 160 411 Z M 168 95 C 160 49 146 5 125 -38 C 103 -81 78 -117 50 -145 L -6 -119 C 2 -109 11 -97 21 -82 C 31 -66 41 -49 50 -30 C 59 -11 67 8 75 30 C 83 52 88 73 92 95 L 168 95 Z" unicode=";" />
<glyph horiz-adv-x="401" d="M 352 99 L 41 297 L 41 360 L 352 555 L 352 486 L 119 330 L 352 170 L 352 99 Z" unicode="&#x3C;" />
<glyph horiz-adv-x="500" d="M 449 392 L 51 392 L 51 456 L 449 456 L 449 392 Z M 449 182 L 51 182 L 51 247 L 449 247 L 449 182 Z" unicode="=" />
<glyph horiz-adv-x="401" d="M 360 297 L 49 99 L 49 170 L 284 330 L 49 487 L 49 555 L 360 360 L 360 297 Z" unicode="&#x3E;" />
<glyph horiz-adv-x="475" d="M 173 192 C 173 243 178 284 188 314 C 198 344 219 371 252 397 C 264 407 277 417 291 428 C 305 439 317 451 328 464 C 339 476 348 490 356 506 C 363 522 367 540 367 560 C 367 595 353 623 326 643 C 299 663 266 674 226 674 C 191 674 159 666 131 651 C 103 635 80 616 62 594 L 12 643 C 34 670 63 693 101 713 C 139 732 183 742 233 742 C 262 742 290 738 316 730 C 342 722 364 711 384 697 C 403 682 418 664 429 642 C 440 620 446 596 446 569 C 446 543 441 519 433 499 C 424 479 413 461 401 445 C 388 429 374 415 359 403 C 343 391 329 380 316 370 C 286 347 267 319 260 287 C 252 254 248 222 248 192 L 173 192 Z M 170 0 L 170 114 L 254 114 L 254 0 L 170 0 Z" unicode="?" />
<glyph horiz-adv-x="886" d="M 439 -23 C 385 -23 334 -13 287 7 C 240 27 199 54 165 88 C 131 122 104 163 84 210 C 64 257 54 307 54 360 C 54 414 63 464 83 511 C 102 558 129 599 163 633 C 197 667 239 693 287 713 C 335 732 387 742 443 742 C 501 742 554 733 602 716 C 650 698 691 674 725 644 C 759 614 785 577 804 535 C 822 492 832 445 832 395 C 832 350 827 312 817 280 C 807 248 795 223 779 204 C 763 184 746 170 726 161 C 706 152 687 148 668 148 C 633 148 606 155 588 169 C 569 183 557 200 553 221 C 545 204 526 188 495 172 C 464 156 429 149 389 149 C 340 149 302 160 276 184 C 250 208 237 237 237 273 C 237 313 254 346 288 372 C 322 398 372 411 438 411 L 547 411 L 547 423 C 547 461 535 487 513 501 C 491 515 464 523 433 523 C 408 523 385 520 363 514 C 341 508 322 502 306 496 L 282 552 C 300 560 323 568 352 575 C 380 582 408 586 435 586 C 491 586 534 572 564 544 C 594 516 610 473 610 415 L 610 267 C 610 251 614 235 624 221 C 634 206 651 199 675 200 C 685 200 696 202 708 207 C 720 212 731 221 742 235 C 752 249 761 268 769 292 C 776 316 780 348 780 388 C 780 430 772 469 756 507 C 740 545 718 577 690 605 C 661 633 626 655 584 671 C 542 687 496 696 444 696 C 394 696 349 687 307 670 C 265 653 230 630 200 600 C 170 570 147 535 131 494 C 114 453 106 409 106 362 C 106 315 114 271 132 230 C 149 189 173 153 203 123 C 233 93 268 69 309 51 C 350 33 394 25 440 25 C 464 25 489 27 515 33 C 541 38 566 47 591 59 L 611 14 C 584 1 556 -8 526 -14 C 496 -20 467 -23 439 -23 Z M 418 205 C 446 205 473 211 499 224 C 524 237 540 250 547 263 L 547 362 L 446 362 C 402 362 368 355 346 341 C 324 327 313 307 313 281 C 313 257 321 238 339 225 C 356 211 382 205 418 205 Z" unicode="@" />
<glyph horiz-adv-x="648" d="M 454 277 L 320 616 L 186 277 L 454 277 Z M 645 0 L 560 0 L 473 216 L 166 216 L 83 0 L 3 0 L 299 734 L 352 734 L 645 0 Z" unicode="A" />
<glyph horiz-adv-x="605" d="M 99 0 L 99 730 L 304 730 C 370 730 421 714 459 683 C 496 652 515 609 515 553 C 515 507 502 468 476 436 C 450 404 416 384 373 376 C 394 374 415 369 437 361 C 459 353 478 342 495 328 C 512 314 526 296 537 274 C 548 252 554 225 554 195 C 554 138 532 91 490 55 C 447 18 390 0 319 0 L 99 0 Z M 173 399 L 289 399 C 315 399 338 403 357 411 C 376 419 391 430 403 444 C 414 458 422 473 428 491 C 433 508 436 525 436 543 C 436 579 422 609 396 632 C 369 654 333 666 287 666 L 173 666 L 173 399 Z M 174 64 L 317 64 C 369 64 408 78 433 107 C 458 136 471 170 471 208 C 471 244 456 275 427 299 C 397 323 361 335 317 335 L 174 335 L 174 64 Z" unicode="B" />
<glyph horiz-adv-x="751" d="M 410 -12 C 362 -12 317 -3 273 14 C 229 32 190 57 157 89 C 124 121 98 161 78 208 C 58 254 49 307 49 365 C 49 419 58 470 76 516 C 94 562 120 602 152 636 C 184 669 222 695 266 714 C 310 732 359 742 411 742 C 477 742 533 731 580 711 C 627 691 666 661 698 622 L 637 572 C 612 600 582 624 546 642 C 510 660 466 669 412 669 C 369 669 330 661 295 647 C 260 632 230 611 206 585 C 182 558 163 526 150 489 C 136 452 130 411 130 367 C 130 317 138 273 154 235 C 170 197 192 165 219 139 C 246 113 277 93 312 80 C 346 66 382 60 418 60 C 472 60 519 70 559 92 C 599 114 631 141 656 175 L 715 132 C 687 92 646 58 594 30 C 542 2 480 -12 410 -12 Z" unicode="C" />
<glyph horiz-adv-x="744" d="M 99 0 L 99 730 L 306 730 C 366 730 420 721 468 705 C 516 688 557 664 591 634 C 624 604 650 567 668 524 C 686 480 695 432 695 380 C 695 326 686 275 669 229 C 651 183 626 143 592 109 C 558 75 516 48 466 29 C 416 9 358 0 292 0 L 99 0 Z M 179 65 L 289 65 C 343 65 390 73 431 89 C 471 105 505 127 531 155 C 557 183 577 216 591 255 C 604 293 611 335 611 379 C 611 422 603 461 589 497 C 575 532 554 562 528 587 C 502 612 469 631 431 645 C 393 659 350 666 303 666 L 179 666 L 179 65 Z" unicode="D" />
<glyph horiz-adv-x="579" d="M 521 0 L 99 0 L 99 730 L 502 730 L 502 661 L 177 661 L 177 398 L 488 398 L 488 330 L 177 330 L 177 69 L 521 69 L 521 0 Z" unicode="E" />
<glyph horiz-adv-x="522" d="M 476 661 L 179 661 L 179 403 L 461 403 L 461 335 L 179 335 L 179 0 L 99 0 L 99 730 L 476 730 L 476 661 Z" unicode="F" />
<glyph horiz-adv-x="795" d="M 427 357 L 740 357 L 740 154 C 710 102 666 61 609 32 C 551 2 488 -12 420 -12 C 368 -12 320 -2 275 15 C 229 33 190 59 157 92 C 123 124 97 164 78 211 C 58 257 49 309 49 365 C 49 422 58 474 78 521 C 98 567 124 607 158 640 C 192 672 231 697 277 715 C 322 733 370 742 421 742 C 490 742 547 731 592 709 C 636 687 671 664 696 638 L 644 578 C 621 602 592 623 557 641 C 522 659 476 669 419 669 C 379 669 341 662 306 648 C 270 634 240 615 214 589 C 188 563 167 532 152 495 C 136 457 129 415 129 368 C 129 322 136 279 152 240 C 168 201 189 168 215 141 C 241 113 272 92 308 77 C 344 61 382 54 422 54 C 475 54 524 64 569 86 C 613 108 646 139 667 180 L 667 289 L 427 289 L 427 357 Z" unicode="G" />
<glyph horiz-adv-x="759" d="M 661 0 L 581 0 L 581 326 L 179 326 L 179 0 L 99 0 L 99 730 L 179 730 L 179 395 L 581 395 L 581 730 L 661 730 L 661 0 Z" unicode="H" />
<glyph horiz-adv-x="286" d="M 183 0 L 103 0 L 103 730 L 183 730 L 183 0 Z" unicode="I" />
<glyph horiz-adv-x="426" d="M 331 730 L 331 191 C 331 164 326 138 317 114 C 308 89 295 67 278 49 C 260 30 239 15 213 4 C 187 -6 157 -12 123 -12 C 106 -12 87 -10 66 -7 C 45 -4 29 0 17 7 L 47 70 C 53 67 63 64 75 62 C 87 59 99 58 113 58 C 157 58 191 71 215 97 C 239 123 251 153 251 189 L 251 730 L 331 730 Z" unicode="J" />
<glyph horiz-adv-x="664" d="M 642 0 L 545 0 L 298 356 L 178 206 L 178 0 L 99 0 L 99 730 L 178 730 L 178 299 L 513 730 L 602 730 L 354 414 L 642 0 Z" unicode="K" />
<glyph horiz-adv-x="521" d="M 510 0 L 99 0 L 99 730 L 179 730 L 179 69 L 510 69 L 510 0 Z" unicode="L" />
<glyph horiz-adv-x="907" d="M 808 0 L 733 0 L 733 574 L 472 187 L 437 187 L 172 573 L 172 0 L 99 0 L 99 730 L 155 730 L 458 281 L 751 730 L 808 730 L 808 0 Z" unicode="M" />
<glyph horiz-adv-x="791" d="M 692 0 L 634 0 L 173 591 L 173 0 L 99 0 L 99 730 L 161 730 L 619 141 L 619 730 L 692 730 L 692 0 Z" unicode="N" />
<glyph horiz-adv-x="846" d="M 426 -12 C 372 -12 321 -2 275 17 C 229 36 189 63 156 97 C 122 131 96 171 77 218 C 58 264 49 315 49 370 C 49 423 58 472 77 518 C 96 564 122 603 155 636 C 188 669 227 695 273 714 C 318 732 366 742 418 742 C 474 742 525 732 572 713 C 618 694 658 668 691 635 C 724 602 750 563 769 517 C 787 471 797 421 797 367 C 797 312 787 261 767 215 C 747 168 721 128 687 95 C 653 61 614 35 569 16 C 524 -2 476 -12 426 -12 Z M 431 56 C 471 56 508 63 543 78 C 578 92 608 113 634 140 C 659 166 679 199 694 237 C 709 275 717 318 717 366 C 717 409 709 449 694 487 C 678 524 657 556 630 583 C 603 610 571 631 534 647 C 497 662 457 670 414 670 C 372 670 334 662 299 648 C 264 634 234 614 209 588 C 184 562 164 530 150 493 C 136 456 129 415 129 370 C 129 322 137 279 153 241 C 169 202 191 169 219 142 C 246 114 278 93 315 78 C 351 63 390 56 431 56 Z" unicode="O" />
<glyph horiz-adv-x="601" d="M 99 0 L 99 730 L 338 730 C 370 730 401 725 429 716 C 457 706 482 693 502 675 C 522 657 538 636 550 610 C 562 584 568 555 568 522 C 568 458 547 405 506 363 C 464 321 411 301 345 301 L 179 301 L 179 0 L 99 0 Z M 177 366 L 331 366 C 381 366 419 380 446 410 C 473 439 487 477 487 523 C 487 570 471 606 439 630 C 407 654 368 666 322 666 L 177 666 L 177 366 Z" unicode="P" />
<glyph horiz-adv-x="846" d="M 707 -181 C 642 -180 583 -165 530 -137 C 477 -108 437 -65 409 -9 C 355 -7 306 3 262 23 C 217 42 179 68 148 102 C 116 135 92 174 75 220 C 57 266 49 316 49 370 C 49 422 58 470 77 516 C 95 562 121 601 154 635 C 186 668 225 694 271 713 C 316 732 365 742 419 742 C 474 742 525 732 572 714 C 618 696 658 670 691 637 C 724 604 750 564 769 518 C 787 471 797 420 797 365 C 797 318 789 274 774 233 C 759 191 738 154 712 122 C 686 90 654 63 617 41 C 580 19 540 5 497 -3 C 519 -41 550 -68 588 -84 C 626 -100 665 -109 707 -110 L 707 -181 Z M 455 172 C 455 150 456 129 459 111 C 461 92 465 75 470 59 C 505 63 538 74 568 90 C 598 106 624 128 646 154 C 668 180 685 210 698 246 C 710 282 717 321 717 364 C 717 410 709 452 693 490 C 677 528 655 560 628 586 C 600 612 568 633 531 648 C 494 662 455 670 414 670 C 372 670 334 663 299 649 C 264 635 234 615 209 589 C 184 563 164 531 150 495 C 136 458 129 417 129 372 C 129 328 135 287 149 251 C 163 214 181 182 204 156 C 227 129 254 107 286 91 C 317 74 350 63 384 59 C 380 75 376 93 374 112 C 372 131 371 151 371 172 L 455 172 Z" unicode="Q" />
<glyph horiz-adv-x="600" d="M 177 382 L 280 382 C 324 382 360 394 389 419 C 418 444 433 481 433 529 C 433 570 420 603 395 628 C 369 653 335 666 291 666 L 177 666 L 177 382 Z M 99 0 L 99 730 L 305 730 C 367 730 417 712 456 677 C 494 642 514 596 514 538 C 514 507 509 479 499 455 C 489 431 477 410 461 394 C 445 377 426 364 405 354 C 384 344 363 338 341 336 L 338 334 L 565 0 L 470 0 L 260 317 L 178 317 L 178 0 L 99 0 Z" unicode="R" />
<glyph horiz-adv-x="588" d="M 299 -12 C 241 -12 192 -3 150 13 C 108 29 74 51 48 78 L 101 141 C 122 114 151 93 188 78 C 224 62 262 55 301 55 C 341 55 375 66 404 88 C 433 110 448 138 448 174 C 448 206 436 235 413 259 C 389 283 347 309 285 335 C 244 351 210 367 182 382 C 154 397 132 413 116 430 C 99 447 87 466 80 487 C 73 508 70 533 70 562 C 70 616 89 659 129 692 C 168 725 220 742 284 742 C 333 742 375 734 410 718 C 445 702 475 683 500 662 L 454 596 C 428 618 401 635 371 649 C 341 662 310 669 278 669 C 238 669 207 659 183 639 C 159 619 148 594 148 562 C 148 526 161 497 188 475 C 215 453 261 428 325 401 C 402 368 455 336 484 304 C 512 272 527 230 527 180 C 527 150 521 124 509 100 C 497 76 480 56 460 40 C 439 23 415 10 387 1 C 359 -7 330 -12 299 -12 Z" unicode="S" />
<glyph horiz-adv-x="537" d="M 527 661 L 305 661 L 305 0 L 225 0 L 225 661 L 10 661 L 10 730 L 527 730 L 527 661 Z" unicode="T" />
<glyph horiz-adv-x="756" d="M 661 730 L 661 266 C 661 222 653 183 638 149 C 623 114 603 85 578 61 C 552 37 522 19 488 7 C 453 -5 416 -12 377 -12 C 338 -12 301 -6 267 6 C 233 18 203 35 177 59 C 151 83 131 112 116 147 C 101 181 94 221 94 266 L 94 730 L 172 730 L 172 264 C 172 232 177 204 188 179 C 199 154 214 133 232 115 C 250 97 272 84 297 74 C 321 64 347 60 375 60 C 402 60 428 64 454 73 C 479 82 501 95 520 113 C 539 130 554 151 566 177 C 577 202 583 231 583 264 L 583 730 L 661 730 Z" unicode="U" />
<glyph horiz-adv-x="660" d="M 657 730 L 352 -7 L 298 -7 L 3 730 L 91 730 L 326 124 L 574 730 L 657 730 Z" unicode="V" />
<glyph horiz-adv-x="933" d="M 919 730 L 697 -7 L 648 -7 L 468 587 L 280 -7 L 231 -7 L 14 730 L 97 730 L 264 149 L 445 730 L 494 730 L 676 146 L 844 730 L 919 730 Z" unicode="W" />
<glyph horiz-adv-x="612" d="M 506 0 L 305 312 L 103 0 L 17 0 L 262 378 L 35 730 L 127 730 L 308 449 L 491 730 L 576 730 L 351 383 L 598 0 L 506 0 Z" unicode="X" />
<glyph horiz-adv-x="651" d="M 648 730 L 363 316 L 363 0 L 283 0 L 283 319 L 3 730 L 93 730 L 327 389 L 564 730 L 648 730 Z" unicode="Y" />
<glyph horiz-adv-x="583" d="M 549 730 L 549 695 L 128 69 L 563 69 L 563 0 L 20 0 L 20 33 L 438 660 L 56 660 L 56 730 L 549 730 Z" unicode="Z" />
<glyph horiz-adv-x="337" d="M 293 -179 L 103 -179 L 103 730 L 293 730 L 293 672 L 175 672 L 175 -119 L 293 -119 L 293 -179 Z" unicode="[" />
<glyph horiz-adv-x="312" d="M 5 730 L 72 730 L 307 0 L 239 0 L 5 730 Z" unicode="\" />
<glyph horiz-adv-x="313" d="M 227 -179 L 45 -179 L 45 -122 L 156 -122 L 156 673 L 45 673 L 45 730 L 227 730 L 227 -179 Z" unicode="]" />
<glyph horiz-adv-x="511" d="M 431 369 L 365 369 L 252 649 L 146 369 L 82 369 L 221 730 L 285 730 L 431 369 Z" unicode="^" />
<glyph horiz-adv-x="500" d="M 500 -151 L 0 -151 L 0 -90 L 500 -90 L 500 -151 Z" unicode="_" />
<glyph horiz-adv-x="500" d="M 340 583 L 264 583 L 145 747 L 232 747 L 340 583 Z" unicode="`" />
<glyph horiz-adv-x="583" d="M 436 133 L 436 287 L 284 279 C 238 276 199 265 169 245 C 139 225 124 196 124 156 C 124 123 136 97 161 78 C 186 59 218 50 258 50 C 292 50 325 57 358 73 C 391 88 417 108 436 133 Z M 509 0 L 435 0 L 435 78 C 415 51 387 30 352 15 C 317 0 277 -8 232 -8 C 174 -8 129 5 96 33 C 62 61 46 99 46 147 C 46 206 68 251 113 282 C 158 313 218 331 292 336 L 435 345 L 435 355 C 435 399 422 431 397 451 C 371 471 338 481 296 481 C 261 481 228 475 198 463 C 167 451 139 437 115 421 L 83 476 C 109 494 141 510 179 524 C 216 538 258 545 305 545 C 367 545 416 530 453 500 C 490 470 509 423 509 357 L 509 0 Z" unicode="a" />
<glyph horiz-adv-x="656" d="M 370 -8 C 312 -8 265 6 231 35 C 197 63 174 98 164 138 L 164 0 L 92 0 L 92 800 L 160 800 L 160 388 C 170 431 194 468 230 498 C 266 528 313 543 372 543 C 407 543 439 536 469 523 C 499 510 524 492 545 469 C 565 445 581 417 593 385 C 605 352 611 316 611 277 C 611 233 604 194 592 159 C 579 123 562 93 540 69 C 518 44 493 25 464 12 C 434 -1 403 -8 370 -8 Z M 351 55 C 377 55 402 60 425 72 C 447 83 467 98 483 118 C 499 137 511 160 520 186 C 529 212 534 240 534 270 C 534 330 518 380 487 420 C 455 460 410 480 350 480 C 324 480 299 475 276 467 C 253 458 233 445 216 427 C 199 409 186 386 176 359 C 166 331 162 299 162 262 C 162 196 180 145 216 109 C 252 73 297 55 351 55 Z" unicode="b" />
<glyph horiz-adv-x="584" d="M 494 157 L 552 117 C 542 102 531 87 518 72 C 504 57 488 43 470 31 C 451 19 429 9 404 1 C 379 -7 351 -11 319 -11 C 279 -11 242 -4 208 9 C 174 23 145 42 121 67 C 97 91 78 120 65 154 C 51 188 45 225 45 265 C 45 303 52 340 66 374 C 80 408 99 438 123 463 C 147 488 177 508 211 522 C 245 536 281 544 321 544 C 353 544 381 540 407 532 C 432 524 454 513 473 500 C 491 487 507 472 519 456 C 531 440 541 424 548 408 L 483 379 C 470 403 451 425 425 446 C 399 466 363 477 318 477 C 289 477 262 471 238 460 C 214 448 193 433 176 414 C 159 395 146 373 136 347 C 126 321 122 294 122 266 C 122 236 126 209 136 183 C 145 157 158 135 175 117 C 192 98 213 83 238 73 C 262 62 290 57 320 57 C 344 57 366 60 385 66 C 403 72 419 80 433 90 C 447 100 459 111 469 123 C 479 135 487 146 494 157 Z" unicode="c" />
<glyph horiz-adv-x="656" d="M 306 52 C 334 52 359 57 382 69 C 405 80 425 95 441 115 C 457 134 470 157 479 184 C 488 211 493 240 493 271 C 493 305 487 335 477 361 C 467 387 453 409 436 427 C 419 445 399 458 377 468 C 355 477 332 482 309 482 C 253 482 207 462 173 422 C 139 382 122 330 122 266 C 122 236 126 207 134 181 C 142 155 154 132 170 113 C 186 94 205 79 228 68 C 251 57 277 52 306 52 Z M 292 -11 C 256 -11 222 -4 192 9 C 161 22 135 41 113 65 C 91 89 75 118 63 152 C 51 186 45 225 45 267 C 45 306 51 343 65 377 C 78 411 96 441 119 466 C 141 490 168 510 199 524 C 230 538 263 545 299 545 C 345 545 386 531 422 503 C 458 475 481 444 492 408 L 492 800 L 565 800 L 565 0 L 496 0 L 496 142 C 492 126 484 109 472 91 C 460 73 446 57 429 42 C 411 26 391 14 368 4 C 344 -6 319 -11 292 -11 Z" unicode="d" />
<glyph horiz-adv-x="625" d="M 323 -11 C 283 -11 246 -4 212 8 C 178 20 148 38 124 62 C 99 85 80 114 66 149 C 52 183 45 223 45 267 C 45 305 52 340 66 374 C 80 408 99 437 123 462 C 147 487 175 507 209 522 C 242 536 278 544 317 544 C 395 544 458 517 507 463 C 555 409 580 336 581 243 L 120 243 C 122 190 141 146 177 110 C 213 74 260 57 320 57 C 368 57 406 64 435 80 C 464 96 489 115 509 138 L 555 86 C 530 58 500 34 464 16 C 428 -1 381 -11 323 -11 Z M 119 300 L 503 300 C 502 352 484 395 448 429 C 412 463 368 480 314 480 C 286 480 261 475 238 465 C 215 455 195 441 178 425 C 161 409 147 390 137 368 C 127 346 121 323 119 300 Z" unicode="e" />
<glyph horiz-adv-x="346" d="M 332 469 L 196 469 L 196 0 L 120 0 L 120 469 L 15 469 L 15 533 L 120 533 L 120 647 C 120 671 124 692 132 712 C 140 731 150 747 163 761 C 176 774 191 784 209 792 C 226 799 244 803 262 803 C 282 803 301 800 317 796 C 333 792 346 787 356 781 L 336 718 C 328 721 319 724 307 727 C 295 730 284 732 274 732 C 252 732 233 722 218 703 C 203 684 196 660 196 632 L 196 533 L 332 533 L 332 469 Z" unicode="f" />
<glyph horiz-adv-x="649" d="M 311 63 C 332 63 353 67 375 76 C 397 84 416 97 433 115 C 450 133 464 155 475 182 C 486 209 492 241 492 277 C 492 307 487 335 477 360 C 467 384 454 405 438 423 C 422 440 403 453 381 462 C 359 471 336 476 312 476 C 256 476 210 456 175 417 C 140 378 123 327 123 263 C 123 201 139 152 173 116 C 207 80 253 63 311 63 Z M 292 1 C 256 1 222 7 192 20 C 161 33 135 51 113 75 C 91 99 75 127 63 160 C 51 192 45 228 45 268 C 45 308 51 345 63 379 C 75 413 93 442 115 466 C 137 490 163 508 194 522 C 224 536 258 543 294 543 C 342 543 385 529 422 503 C 458 477 483 443 496 402 L 496 533 L 564 533 L 564 77 C 564 28 555 -13 537 -48 C 519 -83 497 -112 470 -135 C 442 -157 411 -174 377 -185 C 343 -195 309 -201 276 -201 C 224 -201 184 -196 156 -188 C 128 -180 107 -172 93 -164 L 127 -100 C 138 -107 156 -115 181 -124 C 205 -133 235 -138 270 -138 C 298 -138 326 -133 353 -125 C 380 -116 404 -103 424 -85 C 444 -67 461 -45 473 -18 C 485 8 492 40 492 76 L 492 156 C 486 138 478 119 466 101 C 454 83 440 66 423 51 C 405 36 386 24 364 15 C 342 5 318 1 292 1 Z" unicode="g" />
<glyph horiz-adv-x="633" d="M 549 0 L 475 0 L 475 363 C 475 400 461 429 433 449 C 405 469 373 480 336 480 C 316 480 297 477 277 471 C 257 465 238 456 222 444 C 206 432 192 416 182 398 C 172 380 167 358 167 334 L 167 0 L 92 0 L 92 800 L 160 800 L 160 421 C 168 457 191 486 229 509 C 266 532 310 544 360 544 C 384 544 408 540 431 534 C 453 527 473 517 491 504 C 508 490 522 474 533 454 C 543 434 549 411 549 385 L 549 0 Z" unicode="h" />
<glyph horiz-adv-x="262" d="M 90 663 L 90 751 L 171 751 L 171 663 L 90 663 Z M 93 0 L 93 533 L 169 533 L 169 0 L 93 0 Z" unicode="i" />
<glyph horiz-adv-x="295" d="M 212 663 L 132 663 L 132 751 L 212 751 L 212 663 Z M 210 533 L 210 -26 C 210 -55 205 -81 197 -103 C 189 -125 178 -143 165 -158 C 151 -172 136 -183 118 -191 C 100 -198 81 -202 63 -202 C 43 -202 24 -199 4 -195 C -15 -191 -31 -185 -45 -177 L -21 -117 C -11 -121 0 -125 12 -129 C 24 -133 39 -135 56 -135 C 76 -135 94 -124 110 -104 C 126 -83 135 -56 135 -22 L 135 533 L 210 533 Z" unicode="j" />
<glyph horiz-adv-x="565" d="M 582 2 L 495 -1 L 284 266 L 167 141 L 167 0 L 92 0 L 92 800 L 167 800 L 167 221 L 446 533 L 527 533 L 335 319 L 582 2 Z" unicode="k" />
<glyph horiz-adv-x="294" d="M 85 114 L 85 800 L 160 800 L 160 137 C 160 113 166 94 179 81 C 191 67 208 61 230 61 C 238 61 247 61 257 63 C 267 64 274 66 280 68 L 282 3 C 275 0 265 -1 253 -3 C 240 -5 227 -6 215 -6 C 181 -6 150 3 124 23 C 98 43 85 73 85 114 Z" unicode="l" />
<glyph horiz-adv-x="1004" d="M 92 0 L 92 533 L 159 533 L 159 414 C 165 434 174 452 188 468 C 201 484 216 497 234 509 C 252 520 271 529 293 535 C 315 541 336 544 358 544 C 404 544 443 532 477 509 C 511 485 530 454 534 416 L 538 416 C 542 434 550 451 563 467 C 575 483 590 496 608 508 C 625 519 644 528 666 534 C 687 540 708 544 730 544 C 756 544 781 540 805 533 C 828 526 848 516 865 503 C 882 490 895 474 905 454 C 915 434 920 411 920 386 L 920 0 L 845 0 L 845 364 C 845 403 831 432 804 451 C 776 469 744 479 707 479 C 689 479 670 475 651 469 C 631 463 614 454 598 442 C 582 430 569 414 559 396 C 549 378 544 357 544 333 L 544 0 L 469 0 L 469 371 C 469 402 455 428 428 448 C 401 468 368 479 330 479 C 310 479 291 475 272 469 C 252 463 235 453 219 441 C 203 429 191 413 181 394 C 171 375 167 353 167 328 L 167 0 L 92 0 Z" unicode="m" />
<glyph horiz-adv-x="633" d="M 549 0 L 474 0 L 474 369 C 474 386 470 401 462 415 C 454 429 444 440 432 450 C 419 459 404 466 388 471 C 372 476 355 479 338 479 C 319 479 300 476 280 470 C 260 464 241 456 225 444 C 208 432 194 416 183 398 C 172 380 167 358 167 333 L 167 0 L 92 0 L 92 533 L 157 533 L 157 412 C 169 452 194 484 232 508 C 269 532 312 544 361 544 C 385 544 408 540 431 533 C 453 526 473 516 491 503 C 508 489 522 473 533 455 C 543 436 549 415 549 392 L 549 0 Z" unicode="n" />
<glyph horiz-adv-x="643" d="M 317 -11 C 281 -11 247 -4 214 8 C 181 20 152 38 127 62 C 102 86 82 115 67 149 C 52 183 45 221 45 263 C 45 302 52 339 66 373 C 80 407 100 437 125 462 C 150 487 179 507 213 522 C 246 536 282 544 320 544 C 359 544 396 537 430 524 C 464 511 493 493 518 470 C 543 446 563 418 577 386 C 591 353 599 317 599 278 C 599 236 591 198 577 163 C 562 127 542 97 517 71 C 491 45 461 25 427 11 C 393 -3 356 -11 317 -11 Z M 323 56 C 352 56 379 61 403 73 C 427 84 448 99 466 119 C 483 138 496 161 506 187 C 516 213 521 242 521 272 C 521 300 516 327 506 352 C 496 377 483 399 465 417 C 447 435 426 450 401 461 C 375 471 347 477 317 477 C 288 477 262 471 238 460 C 214 448 194 433 177 414 C 160 395 147 373 137 347 C 127 321 123 293 123 264 C 123 232 128 204 138 178 C 148 152 163 130 181 112 C 199 94 220 80 244 70 C 268 60 295 56 323 56 Z" unicode="o" />
<glyph horiz-adv-x="656" d="M 352 56 C 378 56 402 61 424 72 C 446 83 466 98 482 117 C 498 136 511 159 520 185 C 529 211 534 240 534 271 C 534 300 530 327 522 353 C 514 379 503 401 488 420 C 472 438 453 453 431 464 C 408 474 382 480 353 480 C 326 480 301 475 278 466 C 254 457 234 444 217 426 C 199 408 186 386 176 359 C 166 331 162 300 162 264 C 162 228 167 197 177 171 C 187 145 200 123 217 106 C 234 89 254 76 278 68 C 301 60 326 56 352 56 Z M 92 -193 L 92 533 L 160 533 L 160 384 C 170 428 194 466 230 497 C 266 527 312 543 370 543 C 442 543 501 518 545 469 C 589 420 612 355 612 274 C 612 232 605 193 593 159 C 581 124 564 94 542 70 C 520 45 495 26 465 13 C 435 0 403 -7 369 -7 C 315 -7 271 6 236 34 C 200 61 177 95 167 135 L 167 -193 L 92 -193 Z" unicode="p" />
<glyph horiz-adv-x="656" d="M 489 -193 L 489 139 C 483 122 474 105 462 87 C 450 69 436 53 419 39 C 402 25 382 13 360 4 C 338 -5 313 -10 286 -10 C 250 -10 217 -3 187 10 C 157 23 132 41 111 65 C 90 88 74 116 62 149 C 50 181 45 217 45 255 C 45 298 51 337 64 373 C 77 409 95 439 118 464 C 140 489 167 508 198 522 C 229 536 262 543 298 543 C 323 543 347 538 370 530 C 392 521 412 510 429 496 C 446 482 460 466 472 448 C 484 430 492 413 497 395 L 497 533 L 564 533 L 564 -193 L 489 -193 Z M 308 52 C 333 52 357 57 380 67 C 402 77 422 92 439 111 C 455 130 468 153 478 180 C 488 207 493 237 493 271 C 493 305 488 335 478 361 C 468 387 454 409 437 427 C 420 444 400 457 378 467 C 355 476 331 481 307 481 C 251 481 206 461 172 421 C 138 381 122 329 122 265 C 122 203 138 152 172 112 C 206 72 251 52 308 52 Z" unicode="q" />
<glyph horiz-adv-x="463" d="M 465 516 L 425 447 C 416 455 404 463 388 469 C 372 475 352 478 330 478 C 310 478 290 473 270 465 C 250 457 233 445 218 431 C 202 416 190 398 181 378 C 171 357 167 335 167 312 L 167 0 L 92 0 L 92 533 L 159 533 L 159 397 C 163 416 170 434 182 452 C 194 470 208 485 226 499 C 243 513 263 524 286 532 C 308 540 333 544 359 544 C 383 544 405 541 423 535 C 441 529 455 523 465 516 Z" unicode="r" />
<glyph horiz-adv-x="487" d="M 262 -11 C 212 -11 169 -4 133 8 C 97 21 66 38 42 59 L 76 110 C 98 93 125 79 158 67 C 190 55 224 49 258 49 C 288 49 315 57 338 75 C 360 92 372 114 372 140 C 372 161 362 180 343 198 C 323 216 285 233 229 250 C 164 268 120 291 98 318 C 75 344 64 375 64 409 C 64 429 68 448 78 465 C 88 481 101 495 117 507 C 133 519 153 528 175 534 C 197 540 220 544 246 544 C 295 544 334 537 364 525 C 394 513 417 501 434 489 L 406 432 C 385 445 362 457 337 468 C 312 478 284 484 252 484 C 222 484 196 477 174 463 C 151 449 140 430 140 408 C 140 397 141 387 144 378 C 147 369 153 361 163 353 C 172 345 186 337 204 329 C 222 321 245 313 275 305 C 339 286 383 264 409 238 C 435 212 448 180 448 142 C 448 119 443 98 433 79 C 423 60 409 44 393 31 C 376 17 356 7 334 0 C 311 -7 287 -11 262 -11 Z" unicode="s" />
<glyph horiz-adv-x="361" d="M 327 81 L 340 20 C 330 12 315 5 296 1 C 277 -3 258 -6 238 -6 C 200 -6 168 5 142 28 C 116 51 103 89 103 141 L 103 471 L 16 471 L 16 533 L 103 533 L 103 676 L 177 686 L 177 533 L 324 533 L 324 471 L 177 471 L 177 144 C 177 117 183 96 195 81 C 207 66 224 59 247 59 C 263 59 279 61 294 67 C 308 72 319 77 327 81 Z" unicode="t" />
<glyph horiz-adv-x="633" d="M 84 533 L 159 533 L 159 197 C 159 143 173 105 203 84 C 232 62 268 52 310 52 C 330 52 350 55 369 62 C 388 69 405 79 419 92 C 433 104 444 120 453 138 C 461 156 466 177 466 200 L 466 533 L 541 533 L 541 0 L 473 0 L 473 116 C 469 100 461 84 450 69 C 439 53 426 40 410 28 C 394 16 375 7 353 0 C 331 -7 307 -11 281 -11 C 254 -11 229 -7 205 0 C 181 6 161 17 143 31 C 125 45 110 64 100 86 C 89 108 84 135 84 167 L 84 533 Z" unicode="u" />
<glyph horiz-adv-x="526" d="M 530 533 L 285 -3 L 237 -3 L -4 533 L 79 533 L 264 111 L 451 533 L 530 533 Z" unicode="v" />
<glyph horiz-adv-x="758" d="M 521 -3 L 386 341 L 237 -3 L 192 -3 L 6 533 L 85 533 L 225 111 L 365 451 L 413 451 L 541 113 L 680 533 L 752 533 L 566 -3 L 521 -3 Z" unicode="w" />
<glyph horiz-adv-x="469" d="M 388 0 L 233 223 L 76 0 L 2 0 L 197 276 L 18 533 L 99 533 L 237 333 L 378 533 L 452 533 L 274 280 L 467 0 L 388 0 Z" unicode="x" />
<glyph horiz-adv-x="533" d="M 536 533 L 250 -81 C 228 -127 202 -159 172 -175 C 142 -191 113 -200 87 -200 C 72 -200 59 -198 49 -195 C 39 -191 31 -189 27 -188 L 51 -121 C 54 -123 59 -125 67 -127 C 75 -129 83 -130 92 -130 C 109 -130 125 -124 141 -112 C 157 -100 172 -78 188 -48 L 225 27 L -3 533 L 77 533 L 265 110 L 458 533 L 536 533 Z" unicode="y" />
<glyph horiz-adv-x="471" d="M 436 533 L 436 498 L 128 66 L 462 66 L 462 0 L 20 0 L 20 35 L 328 467 L 35 467 L 35 533 L 436 533 Z" unicode="z" />
<glyph horiz-adv-x="289" d="M 276 -179 C 218 -173 170 -155 132 -124 C 94 -92 73 -54 71 -10 C 70 10 71 30 75 48 C 79 66 83 83 88 98 C 92 112 97 126 102 139 C 106 152 108 165 108 177 C 106 197 97 215 81 232 C 65 249 42 258 13 258 L 13 313 C 43 313 66 321 83 339 C 100 356 109 377 111 402 C 111 406 108 415 104 429 C 99 443 94 458 88 474 C 82 490 77 507 74 523 C 71 539 70 555 71 570 C 73 614 93 653 129 688 C 165 723 214 743 276 749 L 276 694 C 237 689 206 674 184 650 C 162 626 150 598 148 566 C 147 557 147 546 149 534 C 150 522 153 509 158 497 C 164 479 170 463 176 447 C 182 431 184 418 184 408 C 182 378 174 351 158 329 C 142 306 118 291 84 285 C 118 278 142 263 157 241 C 172 219 181 195 183 170 C 183 153 181 138 176 124 C 171 110 166 96 161 83 C 156 70 152 57 150 43 C 148 29 147 16 148 4 C 149 -10 153 -24 159 -38 C 165 -52 174 -65 185 -77 C 195 -89 208 -99 224 -108 C 239 -116 256 -122 276 -124 L 276 -179 Z" unicode="{" />
<glyph horiz-adv-x="255" d="M 163 -179 L 93 -179 L 93 730 L 163 730 L 163 -179 Z" unicode="|" />
<glyph horiz-adv-x="289" d="M 13 -179 L 13 -124 C 32 -122 49 -116 65 -108 C 80 -99 93 -89 104 -77 C 114 -65 123 -52 130 -38 C 136 -24 140 -10 142 4 C 142 16 141 29 139 43 C 137 57 133 70 128 83 C 122 96 117 110 113 124 C 108 138 106 153 107 171 C 108 195 116 219 132 241 C 147 263 171 278 205 285 C 171 291 146 306 130 329 C 114 351 106 378 105 408 C 105 418 107 431 113 447 C 119 462 125 479 132 497 C 136 509 139 522 141 534 C 142 546 142 557 142 566 C 140 597 127 625 105 650 C 83 674 52 689 13 694 L 13 749 C 75 743 124 723 160 688 C 196 653 216 614 218 570 C 218 555 217 539 214 523 C 211 507 207 490 201 474 C 195 458 189 443 185 429 C 180 415 178 406 179 402 C 179 377 188 356 205 339 C 222 321 246 313 276 313 L 276 258 C 247 258 224 249 208 232 C 191 215 182 197 181 177 C 180 165 182 152 187 139 C 191 126 196 112 201 98 C 205 83 209 66 213 48 C 217 30 218 10 218 -10 C 215 -54 195 -92 157 -124 C 119 -155 71 -173 13 -179 Z" unicode="}" />
<glyph horiz-adv-x="500" d="M 398 435 L 462 435 C 462 377 453 334 436 308 C 419 282 393 269 358 269 C 335 269 315 274 298 284 C 281 294 266 305 253 317 C 238 329 223 339 209 349 C 194 358 179 363 164 363 C 148 363 134 355 121 340 C 108 324 102 302 102 272 L 38 272 C 38 328 48 370 68 398 C 88 425 112 439 139 439 C 165 439 187 434 206 424 C 225 414 243 402 261 388 C 273 377 287 367 301 357 C 315 347 331 343 349 343 C 368 343 381 350 388 364 C 394 378 398 402 398 435 Z" unicode="~" />
<glyph horiz-adv-x="293" d="M 105 615 L 188 615 L 188 531 L 105 531 L 105 615 Z M 103 180 L 128 418 L 167 418 L 191 180 L 191 -115 L 103 -115 L 103 180 Z" unicode="¡" />
<glyph horiz-adv-x="570" d="M 549 226 C 539 212 528 199 516 185 C 504 171 489 158 473 146 C 456 134 437 125 415 117 C 393 109 367 104 339 102 L 339 2 L 281 2 L 281 103 C 246 107 214 116 186 131 C 157 146 132 165 112 189 C 92 212 76 239 65 270 C 53 300 48 333 48 369 C 48 404 53 437 65 469 C 77 500 93 528 113 552 C 133 576 158 595 187 611 C 215 627 247 637 281 642 L 281 737 L 339 737 L 339 644 C 392 641 436 626 472 600 C 508 574 533 545 548 514 L 487 486 C 473 508 453 529 429 548 C 404 567 374 578 339 582 L 339 166 C 381 168 415 180 439 202 C 463 223 481 244 494 265 L 549 226 Z M 121 373 C 121 321 135 276 164 238 C 193 200 232 176 281 168 L 281 580 C 257 575 235 566 215 554 C 195 541 179 525 165 507 C 151 489 140 468 132 445 C 124 422 121 398 121 373 Z" unicode="¢" />
<glyph horiz-adv-x="609" d="M 596 58 L 596 0 L 37 0 L 37 46 C 43 48 51 51 63 53 C 74 55 89 57 108 61 C 121 63 135 67 150 73 C 165 79 179 86 191 96 C 203 106 214 118 222 132 C 230 146 235 162 235 181 C 235 187 234 193 233 199 C 231 205 229 212 227 219 L 48 219 L 48 272 L 199 272 C 190 286 180 302 170 318 C 159 334 149 351 140 369 L 48 369 L 48 422 L 114 422 C 106 440 100 459 96 479 C 91 499 89 520 89 542 C 89 580 96 611 110 637 C 124 663 142 683 166 699 C 189 714 216 725 247 732 C 277 738 309 742 342 742 C 398 742 448 732 494 714 C 539 695 572 677 593 661 L 556 607 C 537 619 509 634 471 650 C 433 666 391 675 345 675 C 322 675 300 672 279 668 C 257 663 238 655 222 644 C 206 633 193 618 183 599 C 173 580 168 557 168 529 C 168 510 170 492 175 474 C 180 456 187 438 196 422 L 508 422 L 508 369 L 224 369 C 234 352 244 335 254 319 C 264 303 273 287 281 272 L 508 272 L 508 219 L 301 219 C 301 215 302 212 302 208 C 302 204 303 200 303 197 C 303 174 298 154 289 138 C 280 121 269 107 256 96 C 243 85 229 76 215 70 C 201 64 188 60 178 58 L 596 58 Z" unicode="£" />
<glyph horiz-adv-x="501" d="M 404 151 L 344 214 C 330 205 315 198 299 194 C 283 189 266 187 249 187 C 231 187 215 189 199 194 C 183 198 168 205 154 214 L 94 151 L 58 187 L 116 247 C 103 261 93 278 86 296 C 78 314 75 333 75 354 C 75 374 78 394 86 412 C 93 430 103 447 116 462 L 58 522 L 92 556 L 153 493 C 166 501 181 508 197 513 C 213 518 231 521 249 521 C 267 521 284 518 301 513 C 317 507 333 500 347 492 L 410 557 L 444 522 L 384 460 C 396 445 406 429 413 411 C 420 393 424 374 424 354 C 424 333 420 313 412 294 C 404 275 394 258 381 244 L 438 185 L 404 151 Z M 249 242 C 281 242 309 253 333 275 C 357 297 369 324 369 354 C 369 384 357 411 333 433 C 309 455 281 466 249 466 C 216 466 188 455 165 433 C 141 411 130 384 130 354 C 130 324 141 297 165 275 C 188 253 216 242 249 242 Z" unicode="¤" />
<glyph horiz-adv-x="637" d="M 552 151 L 357 151 L 357 0 L 277 0 L 277 151 L 82 151 L 82 204 L 277 204 L 277 270 L 81 270 L 81 323 L 277 323 L 277 332 L 36 730 L 125 730 L 321 399 L 517 730 L 602 730 L 357 329 L 357 323 L 551 323 L 551 270 L 357 270 L 357 204 L 552 204 L 552 151 Z" unicode="¥" />
<glyph horiz-adv-x="270" d="M 103 351 L 103 730 L 168 730 L 168 351 L 103 351 Z M 168 200 L 168 -179 L 103 -179 L 103 200 L 168 200 Z" unicode="¦" />
<glyph horiz-adv-x="675" d="M 442 155 C 465 156 487 163 508 175 C 529 187 540 207 540 234 C 540 258 528 279 505 297 C 482 315 445 333 394 352 L 206 425 C 185 415 168 404 154 391 C 140 378 133 360 133 337 C 133 309 144 287 168 270 C 192 252 230 235 282 217 L 442 155 Z M 357 -180 C 299 -180 244 -173 194 -160 C 144 -146 102 -128 68 -106 L 101 -43 C 133 -64 172 -82 218 -96 C 264 -110 310 -118 354 -118 C 394 -118 429 -108 457 -90 C 485 -72 499 -46 499 -13 C 499 17 488 41 466 57 C 444 73 417 87 384 100 L 240 159 C 210 171 184 182 161 193 C 138 203 119 215 104 228 C 88 240 77 255 69 271 C 61 287 57 307 57 331 C 57 362 65 387 81 407 C 97 427 117 443 140 456 C 120 466 105 482 95 502 C 85 522 81 546 81 576 C 81 602 87 626 99 647 C 111 667 128 685 150 699 C 172 713 198 723 228 731 C 258 738 290 742 324 742 C 386 742 436 733 476 716 C 516 699 550 681 580 661 L 547 604 C 514 624 480 642 446 658 C 411 674 370 682 322 682 C 277 682 239 672 207 654 C 175 635 160 609 160 576 C 160 554 166 535 180 521 C 194 506 215 493 244 483 L 436 409 C 494 387 539 365 570 341 C 601 317 617 284 617 241 C 617 222 613 205 606 191 C 599 177 590 165 579 155 C 567 145 554 136 540 130 C 526 123 511 118 497 116 C 504 112 512 106 522 99 C 532 92 541 83 549 73 C 557 62 565 49 571 35 C 577 21 580 5 580 -13 C 580 -39 574 -63 562 -84 C 550 -104 535 -122 515 -136 C 495 -150 471 -161 444 -169 C 417 -176 388 -180 357 -180 Z" unicode="§" />
<glyph horiz-adv-x="500" d="M 191 584 L 128 584 L 128 741 L 191 741 L 191 584 Z M 372 584 L 309 584 L 309 741 L 372 741 L 372 584 Z" unicode="¨" />
<glyph horiz-adv-x="859" d="M 429 -12 C 377 -12 328 -2 282 18 C 236 38 196 64 162 98 C 128 132 102 172 82 218 C 62 264 52 313 52 365 C 52 417 62 466 82 512 C 102 558 128 597 162 631 C 196 665 236 692 282 712 C 328 732 377 742 429 742 C 481 742 530 732 576 712 C 622 692 661 665 695 631 C 729 597 756 558 776 512 C 796 466 806 417 806 365 C 806 313 796 264 776 218 C 756 172 729 132 695 98 C 661 64 622 38 576 18 C 530 -2 481 -12 429 -12 Z M 430 36 C 475 36 517 44 557 62 C 597 79 631 102 661 132 C 690 161 713 196 730 236 C 747 276 756 318 756 364 C 756 409 747 452 730 492 C 713 532 690 566 661 596 C 631 626 597 649 557 667 C 517 684 475 693 430 693 C 384 693 342 684 302 667 C 262 649 228 626 199 596 C 169 566 146 532 129 492 C 111 452 103 409 103 364 C 103 318 111 276 129 236 C 146 196 169 161 199 132 C 228 102 262 79 302 62 C 342 44 384 36 430 36 Z M 603 232 C 586 208 563 187 534 171 C 505 154 470 146 430 146 C 403 146 377 150 353 160 C 328 170 306 184 287 202 C 268 220 253 243 241 271 C 229 298 224 329 224 365 C 224 398 229 429 239 457 C 249 485 264 508 282 528 C 300 548 321 563 346 574 C 370 585 397 591 425 591 C 469 591 504 583 532 569 C 559 554 581 535 597 513 L 544 474 C 532 489 517 502 499 512 C 481 522 457 528 427 528 C 388 528 356 512 330 480 C 304 448 291 409 291 363 C 291 337 295 315 303 295 C 311 275 321 259 334 246 C 347 232 362 222 379 215 C 396 208 413 205 431 205 C 457 205 481 210 501 222 C 521 233 538 248 551 267 L 603 232 Z" unicode="©" />
<glyph horiz-adv-x="512" d="M 388 397 L 388 520 L 252 512 C 212 510 178 502 152 488 C 126 474 113 450 113 417 C 113 389 124 368 146 353 C 168 337 196 330 232 330 C 262 330 291 336 320 348 C 348 360 371 376 388 397 Z M 452 276 L 389 276 L 389 342 C 371 319 345 301 313 288 C 281 275 246 269 209 269 C 158 269 118 281 88 306 C 58 331 43 366 43 410 C 43 459 62 497 102 523 C 141 549 193 563 258 567 L 390 575 L 390 584 C 390 614 378 638 356 655 C 333 671 303 680 265 680 C 233 680 204 674 176 664 C 148 654 124 642 102 629 L 77 684 C 100 700 128 714 161 726 C 193 737 231 743 273 743 C 327 743 370 730 403 705 C 435 679 452 639 452 583 L 452 276 Z M 467 145 L 50 145 L 50 210 L 467 210 L 467 145 Z" unicode="ª" />
<glyph horiz-adv-x="443" d="M 411 105 L 238 282 L 238 327 L 411 501 L 411 423 L 304 305 L 411 188 L 411 105 Z M 201 105 L 29 282 L 29 327 L 201 501 L 201 423 L 93 305 L 201 188 L 201 105 Z" unicode="«" />
<glyph horiz-adv-x="500" d="M 450 375 L 450 132 L 387 132 L 387 310 L 32 310 L 32 375 L 450 375 Z" unicode="¬" />
<glyph horiz-adv-x="857" d="M 429 -12 C 377 -12 328 -2 282 18 C 236 38 196 64 162 98 C 128 132 102 172 82 218 C 62 264 52 313 52 365 C 52 417 62 466 82 512 C 102 558 128 597 162 631 C 196 665 236 692 282 712 C 328 732 377 742 429 742 C 481 742 530 732 576 712 C 622 692 661 665 695 631 C 729 597 756 558 776 512 C 796 466 806 417 806 365 C 806 313 796 264 776 218 C 756 172 729 132 695 98 C 661 64 622 38 576 18 C 530 -2 481 -12 429 -12 Z M 429 36 C 473 36 516 44 556 62 C 596 79 630 102 660 132 C 689 162 712 197 730 237 C 747 277 756 319 756 365 C 756 410 747 453 730 493 C 712 533 689 567 660 597 C 630 627 596 650 556 668 C 516 685 473 694 429 694 C 384 694 342 685 302 668 C 262 650 227 627 198 597 C 168 567 145 533 128 493 C 110 453 102 410 102 365 C 102 319 110 277 128 237 C 145 197 168 162 198 132 C 227 102 262 79 302 62 C 342 44 384 36 429 36 Z M 346 389 L 455 389 C 475 389 493 396 508 410 C 522 424 530 443 531 468 C 531 492 522 510 506 522 C 489 534 468 540 444 540 L 346 540 L 346 389 Z M 286 156 L 286 592 L 448 592 C 466 592 483 589 500 585 C 516 580 531 573 544 563 C 557 553 567 541 575 526 C 583 511 587 493 587 472 C 587 434 577 404 557 384 C 537 364 514 352 490 349 L 489 345 L 630 156 L 559 156 L 430 337 L 347 337 L 347 156 L 286 156 Z" unicode="®" />
<glyph horiz-adv-x="500" d="M 377 603 L 123 603 L 123 667 L 377 667 L 377 603 Z" unicode="¯" />
<glyph horiz-adv-x="436" d="M 218 366 C 192 366 167 371 144 381 C 121 391 101 404 85 421 C 68 437 55 457 45 480 C 35 503 30 528 30 554 C 30 580 35 604 45 627 C 55 650 68 670 85 687 C 101 703 121 717 144 727 C 167 737 192 742 218 742 C 244 742 268 737 291 727 C 314 717 334 703 351 687 C 367 670 381 650 391 627 C 401 604 406 580 406 554 C 406 528 401 503 391 480 C 381 457 367 437 351 421 C 334 404 314 391 291 381 C 268 371 244 366 218 366 Z M 218 428 C 252 428 281 440 307 465 C 332 490 345 520 345 554 C 345 588 332 617 307 643 C 281 668 252 681 218 681 C 184 681 154 668 129 643 C 103 617 91 588 91 554 C 91 520 103 490 129 465 C 154 440 184 428 218 428 Z" unicode="°" />
<glyph horiz-adv-x="500" d="M 473 302 L 282 302 L 282 115 L 218 115 L 218 302 L 27 302 L 27 360 L 218 360 L 218 547 L 282 547 L 282 360 L 473 360 L 473 302 Z M 467 28 L 35 28 L 35 86 L 467 86 L 467 28 Z" unicode="±" />
<glyph horiz-adv-x="323" d="M 301 372 L 22 372 L 22 396 L 188 551 C 196 558 204 567 212 579 C 220 591 224 605 224 621 C 224 637 217 652 205 666 C 193 679 175 686 151 686 C 123 686 104 677 92 661 C 80 645 74 626 74 606 L 15 606 C 15 641 27 672 51 700 C 75 727 111 741 157 741 C 201 741 234 730 256 709 C 278 688 290 663 290 635 C 290 608 284 586 274 568 C 264 550 253 535 242 525 L 130 426 L 301 426 L 301 372 Z" unicode="²" />
<glyph horiz-adv-x="346" d="M 223 569 C 252 565 275 554 291 537 C 307 520 315 500 315 477 C 315 464 312 451 307 438 C 302 424 294 412 282 401 C 270 390 255 381 235 374 C 215 367 190 364 161 364 C 121 364 89 368 67 378 C 44 387 26 397 12 407 L 48 444 C 60 436 75 430 93 424 C 111 418 133 415 159 415 C 193 415 217 421 233 435 C 248 449 256 466 256 486 C 256 508 246 522 228 530 C 210 537 189 541 167 541 L 95 541 L 95 588 L 162 588 C 185 588 204 592 218 602 C 232 611 239 624 239 641 C 239 655 232 667 220 676 C 207 685 188 690 162 690 C 139 690 119 685 101 677 C 83 668 70 658 61 646 L 25 681 C 37 695 55 709 77 722 C 99 735 131 742 171 742 C 212 742 244 733 266 716 C 288 698 300 677 300 652 C 300 630 292 612 277 598 C 262 583 244 573 223 569 Z" unicode="³" />
<glyph horiz-adv-x="500" d="M 162 583 L 268 747 L 356 747 L 236 583 L 162 583 Z" unicode="´" />
<glyph horiz-adv-x="619" d="M 84 -112 L 84 533 L 157 533 L 157 165 C 157 132 171 105 199 83 C 227 61 261 51 299 51 C 317 51 335 54 354 61 C 373 67 390 77 405 91 C 420 104 433 120 443 140 C 453 159 458 181 458 207 L 458 533 L 531 533 L 531 0 L 464 0 L 464 107 C 458 91 449 77 437 63 C 425 49 410 37 394 27 C 377 17 359 9 340 3 C 320 -3 301 -6 283 -7 C 255 -7 228 -1 203 10 C 178 22 161 38 151 60 L 151 -112 L 84 -112 Z" unicode="µ" />
<glyph horiz-adv-x="694" d="M 609 -179 L 558 -179 L 558 671 L 432 671 L 432 -179 L 381 -179 L 381 247 L 272 247 C 241 247 211 253 182 266 C 153 279 128 296 106 318 C 84 339 66 364 53 393 C 39 422 33 453 33 485 C 33 519 39 552 52 582 C 64 612 82 637 104 659 C 126 681 154 698 186 711 C 218 723 253 730 292 730 L 609 730 L 609 -179 Z M 382 309 L 382 668 L 318 668 C 266 668 224 650 192 616 C 159 582 143 539 143 487 C 143 463 147 440 156 418 C 164 396 176 378 191 362 C 206 346 224 333 244 323 C 264 313 285 309 307 309 L 382 309 Z" unicode="¶" />
<glyph horiz-adv-x="242" d="M 159 292 L 83 292 L 83 417 L 159 417 L 159 292 Z" unicode="·" />
<glyph horiz-adv-x="500" d="M 255 -186 C 231 -186 207 -183 183 -177 C 159 -171 140 -163 126 -154 L 138 -120 C 148 -126 161 -131 177 -137 C 193 -143 211 -146 232 -146 C 248 -146 263 -142 276 -134 C 288 -126 295 -117 295 -105 C 295 -90 289 -80 278 -74 C 266 -68 254 -66 242 -66 C 233 -66 225 -66 219 -68 C 213 -69 206 -71 198 -74 L 186 -62 L 248 14 L 294 14 L 241 -52 C 275 -43 305 -45 330 -58 C 354 -70 367 -89 367 -113 C 367 -137 355 -156 333 -168 C 311 -180 285 -186 255 -186 Z" unicode="¸" />
<glyph horiz-adv-x="325" d="M 146 372 L 146 662 C 139 650 126 639 106 630 C 86 621 68 615 53 613 L 52 678 C 76 681 97 688 115 699 C 133 710 150 724 168 741 L 215 741 L 215 372 L 146 372 Z" unicode="¹" />
<glyph horiz-adv-x="538" d="M 265 266 C 235 266 207 271 180 282 C 152 292 128 308 108 328 C 87 348 70 373 58 402 C 45 431 39 464 39 500 C 39 532 45 562 57 591 C 69 620 85 645 106 667 C 126 689 151 706 179 719 C 207 732 236 739 268 739 C 300 739 331 733 359 722 C 387 710 412 695 433 675 C 453 655 469 631 481 603 C 493 575 499 544 499 511 C 499 476 493 444 481 414 C 469 384 452 358 431 336 C 410 314 385 296 357 284 C 328 272 297 266 265 266 Z M 267 330 C 315 330 354 346 385 380 C 415 414 431 456 431 508 C 431 556 416 596 387 629 C 357 662 317 679 267 679 C 221 679 183 661 153 627 C 123 593 108 550 108 500 C 108 449 123 408 153 377 C 183 345 221 330 267 330 Z M 58 145 L 58 210 L 475 210 L 475 145 L 58 145 Z" unicode="º" />
<glyph horiz-adv-x="449" d="M 247 501 L 420 325 L 420 279 L 247 105 L 247 184 L 355 302 L 247 419 L 247 501 Z M 31 501 L 205 325 L 205 279 L 31 105 L 31 184 L 139 302 L 31 418 L 31 501 Z" unicode="»" />
<glyph horiz-adv-x="680" d="M 98 372 L 98 662 C 91 650 78 639 58 630 C 38 621 20 615 5 613 L 4 678 C 28 681 49 688 67 699 C 85 710 102 724 120 741 L 167 741 L 167 372 L 98 372 Z M 562 730 L 182 0 L 117 0 L 497 730 L 562 730 Z M 377 86 L 377 131 L 569 367 L 612 367 L 612 135 L 676 135 L 676 86 L 612 86 L 612 1 L 550 1 L 550 86 L 377 86 Z M 429 126 L 552 126 L 552 281 L 429 126 Z" unicode="¼" />
<glyph horiz-adv-x="733" d="M 98 372 L 98 662 C 91 650 78 639 58 630 C 38 621 20 615 5 613 L 4 678 C 28 681 49 688 67 699 C 85 710 102 724 120 741 L 167 741 L 167 372 L 98 372 Z M 562 730 L 182 0 L 117 0 L 497 730 L 562 730 Z M 723 0 L 444 0 L 444 24 L 610 179 C 618 186 626 195 634 207 C 642 219 646 233 646 249 C 646 265 639 280 627 294 C 615 307 597 314 573 314 C 545 314 526 305 514 289 C 502 273 496 254 496 234 L 437 234 C 437 269 449 300 473 328 C 497 355 533 369 579 369 C 623 369 656 358 678 337 C 700 316 712 291 712 263 C 712 236 706 214 696 196 C 686 178 675 163 664 153 L 552 54 L 723 54 L 723 0 Z" unicode="½" />
<glyph horiz-adv-x="743" d="M 625 730 L 245 0 L 180 0 L 560 730 L 625 730 Z M 215 569 C 244 565 267 554 283 537 C 299 520 307 500 307 477 C 307 464 304 451 299 438 C 294 424 286 412 274 401 C 262 390 247 381 227 374 C 207 367 182 364 153 364 C 113 364 81 368 59 378 C 36 387 18 397 4 407 L 40 444 C 52 436 67 430 85 424 C 103 418 125 415 151 415 C 185 415 209 421 225 435 C 240 449 248 466 248 486 C 248 508 238 522 220 530 C 202 537 181 541 159 541 L 87 541 L 87 588 L 154 588 C 177 588 196 592 210 602 C 224 611 231 624 231 641 C 231 655 224 667 212 676 C 199 685 180 690 154 690 C 131 690 111 685 93 677 C 75 668 62 658 53 646 L 17 681 C 29 695 47 709 69 722 C 91 735 123 742 163 742 C 204 742 236 733 258 716 C 280 698 292 677 292 652 C 292 630 284 612 269 598 C 254 583 236 573 215 569 Z M 440 86 L 440 131 L 632 367 L 675 367 L 675 135 L 739 135 L 739 86 L 675 86 L 675 1 L 613 1 L 613 86 L 440 86 Z M 492 126 L 615 126 L 615 281 L 492 126 Z" unicode="¾" />
<glyph horiz-adv-x="474" d="M 220 501 L 220 615 L 304 615 L 304 501 L 220 501 Z M 241 -127 C 211 -127 184 -123 158 -115 C 132 -107 109 -96 90 -82 C 70 -67 55 -49 44 -27 C 33 -5 28 19 28 47 C 28 73 32 96 41 116 C 49 136 60 154 73 170 C 85 186 99 200 115 212 C 130 224 144 235 158 245 C 188 267 206 295 214 328 C 221 360 225 392 226 424 L 301 424 C 301 372 296 331 286 301 C 276 271 254 244 222 218 C 209 208 196 197 182 187 C 168 176 156 164 145 152 C 134 139 125 125 118 109 C 110 93 107 76 107 56 C 107 20 120 -7 147 -28 C 174 -48 208 -59 248 -59 C 282 -59 314 -51 342 -35 C 370 -19 394 -1 412 21 L 462 -28 C 440 -54 410 -77 372 -97 C 334 -117 291 -127 241 -127 Z" unicode="¿" />
<glyph horiz-adv-x="648" d="M 381 811 L 305 811 L 186 975 L 273 975 L 381 811 Z M 454 277 L 320 616 L 186 277 L 454 277 Z M 645 0 L 560 0 L 473 216 L 166 216 L 83 0 L 3 0 L 299 734 L 352 734 L 645 0 Z" unicode="À" />
<glyph horiz-adv-x="648" d="M 263 811 L 369 975 L 457 975 L 337 811 L 263 811 Z M 454 277 L 320 616 L 186 277 L 454 277 Z M 645 0 L 560 0 L 473 216 L 166 216 L 83 0 L 3 0 L 299 734 L 352 734 L 645 0 Z" unicode="Á" />
<glyph horiz-adv-x="648" d="M 490 805 L 420 805 L 329 930 L 236 805 L 168 805 L 291 975 L 367 975 L 490 805 Z M 454 277 L 320 616 L 186 277 L 454 277 Z M 645 0 L 560 0 L 473 216 L 166 216 L 83 0 L 3 0 L 299 734 L 352 734 L 645 0 Z" unicode="Â" />
<glyph horiz-adv-x="648" d="M 436 950 L 497 950 C 497 906 490 873 476 851 C 462 829 443 819 419 819 C 400 819 383 823 369 832 C 355 840 341 850 329 860 C 317 870 305 879 293 888 C 281 897 270 902 258 902 C 246 902 235 895 227 883 C 219 870 214 850 214 824 L 155 824 C 155 868 164 900 182 922 C 200 944 219 955 241 955 C 259 955 274 950 288 941 C 302 932 315 922 328 912 C 339 902 350 893 361 885 C 372 877 383 874 395 874 C 406 874 416 880 424 893 C 432 906 436 925 436 950 Z M 454 277 L 320 616 L 186 277 L 454 277 Z M 645 0 L 560 0 L 473 216 L 166 216 L 83 0 L 3 0 L 299 734 L 352 734 L 645 0 Z" unicode="Ã" />
<glyph horiz-adv-x="648" d="M 266 749 L 203 749 L 203 906 L 266 906 L 266 749 Z M 447 749 L 384 749 L 384 906 L 447 906 L 447 749 Z M 454 277 L 320 616 L 186 277 L 454 277 Z M 645 0 L 560 0 L 473 216 L 166 216 L 83 0 L 3 0 L 299 734 L 352 734 L 645 0 Z" unicode="Ä" />
<glyph horiz-adv-x="648" d="M 334 759 C 353 759 369 765 383 779 C 396 793 403 810 403 830 C 403 848 396 865 383 879 C 369 893 353 900 334 900 C 315 900 299 893 285 879 C 271 865 265 848 265 830 C 265 810 271 793 285 779 C 299 765 315 759 334 759 Z M 454 277 L 320 616 L 186 277 L 454 277 Z M 166 216 L 83 0 L 3 0 L 292 718 C 269 726 251 740 237 760 C 223 780 216 804 216 830 C 216 862 227 890 250 913 C 273 936 301 948 334 948 C 367 948 395 936 418 913 C 441 890 453 862 453 830 C 453 801 444 776 426 754 C 408 732 386 719 360 713 L 645 0 L 560 0 L 473 216 L 166 216 Z" unicode="Å" />
<glyph horiz-adv-x="961" d="M 486 325 L 486 670 L 274 325 L 486 325 Z M 905 0 L 486 0 L 486 259 L 236 259 L 73 0 L -13 0 L 450 730 L 886 730 L 886 661 L 562 661 L 562 397 L 873 397 L 873 331 L 562 331 L 562 69 L 905 69 L 905 0 Z" unicode="Æ" />
<glyph horiz-adv-x="751" d="M 407 -205 C 383 -205 359 -202 335 -196 C 311 -190 292 -182 278 -173 L 290 -139 C 300 -145 313 -150 329 -156 C 345 -162 363 -165 384 -165 C 400 -165 415 -161 428 -153 C 440 -145 447 -136 447 -124 C 447 -109 441 -99 430 -93 C 418 -87 406 -85 394 -85 C 385 -85 377 -85 371 -87 C 365 -88 358 -90 350 -93 L 338 -81 L 395 -12 C 349 -10 305 0 263 18 C 221 36 184 62 152 94 C 120 126 95 166 77 212 C 58 258 49 309 49 365 C 49 419 58 470 76 516 C 94 562 120 602 152 636 C 184 669 222 695 266 714 C 310 732 359 742 411 742 C 477 742 533 731 580 711 C 627 691 666 661 698 622 L 637 572 C 612 600 582 624 546 642 C 510 660 466 669 412 669 C 369 669 330 661 295 647 C 260 632 230 611 206 585 C 182 558 163 526 150 489 C 136 452 130 411 130 367 C 130 317 138 273 154 235 C 170 197 192 165 219 139 C 246 113 277 93 312 80 C 346 66 382 60 418 60 C 472 60 519 70 559 92 C 599 114 631 141 656 175 L 715 132 C 689 95 652 63 606 36 C 559 9 504 -6 441 -11 L 393 -71 C 427 -62 457 -64 482 -77 C 506 -89 519 -108 519 -132 C 519 -156 507 -175 485 -187 C 463 -199 437 -205 407 -205 Z" unicode="Ç" />
<glyph horiz-adv-x="579" d="M 361 811 L 285 811 L 166 975 L 253 975 L 361 811 Z M 521 0 L 99 0 L 99 730 L 502 730 L 502 661 L 177 661 L 177 398 L 488 398 L 488 330 L 177 330 L 177 69 L 521 69 L 521 0 Z" unicode="È" />
<glyph horiz-adv-x="579" d="M 231 811 L 337 975 L 425 975 L 305 811 L 231 811 Z M 521 0 L 99 0 L 99 730 L 502 730 L 502 661 L 177 661 L 177 398 L 488 398 L 488 330 L 177 330 L 177 69 L 521 69 L 521 0 Z" unicode="É" />
<glyph horiz-adv-x="579" d="M 462 812 L 392 812 L 301 937 L 208 812 L 140 812 L 263 982 L 339 982 L 462 812 Z M 521 0 L 99 0 L 99 730 L 502 730 L 502 661 L 177 661 L 177 398 L 488 398 L 488 330 L 177 330 L 177 69 L 521 69 L 521 0 Z" unicode="Ê" />
<glyph horiz-adv-x="579" d="M 247 818 L 184 818 L 184 975 L 247 975 L 247 818 Z M 428 818 L 365 818 L 365 975 L 428 975 L 428 818 Z M 521 0 L 99 0 L 99 730 L 502 730 L 502 661 L 177 661 L 177 398 L 488 398 L 488 330 L 177 330 L 177 69 L 521 69 L 521 0 Z" unicode="Ë" />
<glyph horiz-adv-x="286" d="M 188 811 L 112 811 L -7 975 L 80 975 L 188 811 Z M 183 0 L 103 0 L 103 730 L 183 730 L 183 0 Z" unicode="Ì" />
<glyph horiz-adv-x="286" d="M 93 811 L 199 975 L 287 975 L 167 811 L 93 811 Z M 183 0 L 103 0 L 103 730 L 183 730 L 183 0 Z" unicode="Í" />
<glyph horiz-adv-x="286" d="M 307 812 L 237 812 L 146 937 L 53 812 L -15 812 L 108 982 L 184 982 L 307 812 Z M 183 0 L 103 0 L 103 730 L 183 730 L 183 0 Z" unicode="Î" />
<glyph horiz-adv-x="286" d="M 84 801 L 21 801 L 21 958 L 84 958 L 84 801 Z M 265 801 L 202 801 L 202 958 L 265 958 L 265 801 Z M 183 0 L 103 0 L 103 730 L 183 730 L 183 0 Z" unicode="Ï" />
<glyph horiz-adv-x="744" d="M 292 0 L 99 0 L 99 328 L 35 328 L 35 386 L 99 386 L 99 730 L 306 730 C 366 730 420 721 468 704 C 516 687 557 663 591 632 C 624 600 650 562 668 517 C 686 472 695 422 695 367 C 695 316 686 268 669 224 C 651 179 626 140 592 107 C 558 74 516 48 466 29 C 416 9 358 0 292 0 Z M 175 61 L 281 61 C 341 61 392 69 434 86 C 476 103 510 126 537 154 C 563 182 583 214 595 251 C 607 287 613 325 613 365 C 613 460 585 534 530 588 C 474 642 399 669 304 669 L 175 669 L 175 386 L 375 386 L 375 328 L 175 328 L 175 61 Z" unicode="Ð" />
<glyph horiz-adv-x="791" d="M 506 933 L 567 933 C 567 889 560 856 546 834 C 532 812 513 802 489 802 C 470 802 453 806 439 815 C 425 823 411 833 399 843 C 387 853 375 862 363 871 C 351 880 340 885 328 885 C 316 885 305 878 297 866 C 289 853 284 833 284 807 L 225 807 C 225 851 234 883 252 905 C 270 927 289 938 311 938 C 329 938 344 933 358 924 C 372 915 385 905 398 895 C 409 885 420 876 431 868 C 442 860 453 857 465 857 C 476 857 486 863 494 876 C 502 889 506 908 506 933 Z M 692 0 L 634 0 L 173 591 L 173 0 L 99 0 L 99 730 L 161 730 L 619 141 L 619 730 L 692 730 L 692 0 Z" unicode="Ñ" />
<glyph horiz-adv-x="846" d="M 471 811 L 395 811 L 276 975 L 363 975 L 471 811 Z M 426 -12 C 372 -12 321 -2 275 17 C 229 36 189 63 156 97 C 122 131 96 171 77 218 C 58 264 49 315 49 370 C 49 423 58 472 77 518 C 96 564 122 603 155 636 C 188 669 227 695 273 714 C 318 732 366 742 418 742 C 474 742 525 732 572 713 C 618 694 658 668 691 635 C 724 602 750 563 769 517 C 787 471 797 421 797 367 C 797 312 787 261 767 215 C 747 168 721 128 687 95 C 653 61 614 35 569 16 C 524 -2 476 -12 426 -12 Z M 431 56 C 471 56 508 63 543 78 C 578 92 608 113 634 140 C 659 166 679 199 694 237 C 709 275 717 318 717 366 C 717 409 709 449 694 487 C 678 524 657 556 630 583 C 603 610 571 631 534 647 C 497 662 457 670 414 670 C 372 670 334 662 299 648 C 264 634 234 614 209 588 C 184 562 164 530 150 493 C 136 456 129 415 129 370 C 129 322 137 279 153 241 C 169 202 191 169 219 142 C 246 114 278 93 315 78 C 351 63 390 56 431 56 Z" unicode="Ò" />
<glyph horiz-adv-x="846" d="M 357 811 L 463 975 L 551 975 L 431 811 L 357 811 Z M 426 -12 C 372 -12 321 -2 275 17 C 229 36 189 63 156 97 C 122 131 96 171 77 218 C 58 264 49 315 49 370 C 49 423 58 472 77 518 C 96 564 122 603 155 636 C 188 669 227 695 273 714 C 318 732 366 742 418 742 C 474 742 525 732 572 713 C 618 694 658 668 691 635 C 724 602 750 563 769 517 C 787 471 797 421 797 367 C 797 312 787 261 767 215 C 747 168 721 128 687 95 C 653 61 614 35 569 16 C 524 -2 476 -12 426 -12 Z M 431 56 C 471 56 508 63 543 78 C 578 92 608 113 634 140 C 659 166 679 199 694 237 C 709 275 717 318 717 366 C 717 409 709 449 694 487 C 678 524 657 556 630 583 C 603 610 571 631 534 647 C 497 662 457 670 414 670 C 372 670 334 662 299 648 C 264 634 234 614 209 588 C 184 562 164 530 150 493 C 136 456 129 415 129 370 C 129 322 137 279 153 241 C 169 202 191 169 219 142 C 246 114 278 93 315 78 C 351 63 390 56 431 56 Z" unicode="Ó" />
<glyph horiz-adv-x="846" d="M 584 812 L 514 812 L 423 937 L 330 812 L 262 812 L 385 982 L 461 982 L 584 812 Z M 426 -12 C 372 -12 321 -2 275 17 C 229 36 189 63 156 97 C 122 131 96 171 77 218 C 58 264 49 315 49 370 C 49 423 58 472 77 518 C 96 564 122 603 155 636 C 188 669 227 695 273 714 C 318 732 366 742 418 742 C 474 742 525 732 572 713 C 618 694 658 668 691 635 C 724 602 750 563 769 517 C 787 471 797 421 797 367 C 797 312 787 261 767 215 C 747 168 721 128 687 95 C 653 61 614 35 569 16 C 524 -2 476 -12 426 -12 Z M 431 56 C 471 56 508 63 543 78 C 578 92 608 113 634 140 C 659 166 679 199 694 237 C 709 275 717 318 717 366 C 717 409 709 449 694 487 C 678 524 657 556 630 583 C 603 610 571 631 534 647 C 497 662 457 670 414 670 C 372 670 334 662 299 648 C 264 634 234 614 209 588 C 184 562 164 530 150 493 C 136 456 129 415 129 370 C 129 322 137 279 153 241 C 169 202 191 169 219 142 C 246 114 278 93 315 78 C 351 63 390 56 431 56 Z" unicode="Ô" />
<glyph horiz-adv-x="846" d="M 530 961 L 591 961 C 591 917 584 884 570 862 C 556 840 537 830 513 830 C 494 830 477 834 463 843 C 449 851 435 861 423 871 C 411 881 399 890 387 899 C 375 908 364 913 352 913 C 340 913 329 906 321 894 C 313 881 308 861 308 835 L 249 835 C 249 879 258 911 276 933 C 294 955 313 966 335 966 C 353 966 368 961 382 952 C 396 943 409 933 422 923 C 433 913 444 904 455 896 C 466 888 477 885 489 885 C 500 885 510 891 518 904 C 526 917 530 936 530 961 Z M 426 -12 C 372 -12 321 -2 275 17 C 229 36 189 63 156 97 C 122 131 96 171 77 218 C 58 264 49 315 49 370 C 49 423 58 472 77 518 C 96 564 122 603 155 636 C 188 669 227 695 273 714 C 318 732 366 742 418 742 C 474 742 525 732 572 713 C 618 694 658 668 691 635 C 724 602 750 563 769 517 C 787 471 797 421 797 367 C 797 312 787 261 767 215 C 747 168 721 128 687 95 C 653 61 614 35 569 16 C 524 -2 476 -12 426 -12 Z M 431 56 C 471 56 508 63 543 78 C 578 92 608 113 634 140 C 659 166 679 199 694 237 C 709 275 717 318 717 366 C 717 409 709 449 694 487 C 678 524 657 556 630 583 C 603 610 571 631 534 647 C 497 662 457 670 414 670 C 372 670 334 662 299 648 C 264 634 234 614 209 588 C 184 562 164 530 150 493 C 136 456 129 415 129 370 C 129 322 137 279 153 241 C 169 202 191 169 219 142 C 246 114 278 93 315 78 C 351 63 390 56 431 56 Z" unicode="Õ" />
<glyph horiz-adv-x="846" d="M 361 774 L 298 774 L 298 931 L 361 931 L 361 774 Z M 542 774 L 479 774 L 479 931 L 542 931 L 542 774 Z M 426 -12 C 372 -12 321 -2 275 17 C 229 36 189 63 156 97 C 122 131 96 171 77 218 C 58 264 49 315 49 370 C 49 423 58 472 77 518 C 96 564 122 603 155 636 C 188 669 227 695 273 714 C 318 732 366 742 418 742 C 474 742 525 732 572 713 C 618 694 658 668 691 635 C 724 602 750 563 769 517 C 787 471 797 421 797 367 C 797 312 787 261 767 215 C 747 168 721 128 687 95 C 653 61 614 35 569 16 C 524 -2 476 -12 426 -12 Z M 431 56 C 471 56 508 63 543 78 C 578 92 608 113 634 140 C 659 166 679 199 694 237 C 709 275 717 318 717 366 C 717 409 709 449 694 487 C 678 524 657 556 630 583 C 603 610 571 631 534 647 C 497 662 457 670 414 670 C 372 670 334 662 299 648 C 264 634 234 614 209 588 C 184 562 164 530 150 493 C 136 456 129 415 129 370 C 129 322 137 279 153 241 C 169 202 191 169 219 142 C 246 114 278 93 315 78 C 351 63 390 56 431 56 Z" unicode="Ö" />
<glyph horiz-adv-x="500" d="M 110 150 L 69 192 L 208 331 L 69 469 L 111 512 L 250 373 L 389 512 L 431 469 L 292 331 L 431 192 L 389 148 L 250 289 L 110 150 Z" unicode="×" />
<glyph horiz-adv-x="846" d="M 426 -12 C 377 -12 331 -4 289 11 C 247 27 209 49 177 77 L 105 4 L 62 45 L 136 119 C 108 151 87 189 72 232 C 56 275 49 321 49 370 C 49 423 58 472 77 518 C 96 564 122 603 155 636 C 188 669 227 695 273 714 C 318 732 366 742 418 742 C 468 742 514 734 557 719 C 600 703 638 682 671 655 L 755 739 L 798 698 L 713 612 C 739 580 760 543 775 501 C 789 459 797 415 797 367 C 797 312 787 261 767 215 C 747 168 721 128 687 95 C 653 61 614 35 569 16 C 524 -2 476 -12 426 -12 Z M 129 370 C 129 331 134 295 145 262 C 156 229 171 200 191 174 L 615 598 C 588 620 557 638 523 651 C 489 663 452 670 414 670 C 372 670 334 662 299 648 C 264 634 234 614 209 588 C 184 562 164 530 150 493 C 136 456 129 415 129 370 Z M 431 56 C 471 56 508 63 543 78 C 578 92 608 113 634 140 C 659 166 679 199 694 237 C 709 275 717 318 717 366 C 717 402 711 436 700 468 C 689 500 674 529 655 555 L 231 130 C 257 106 288 88 322 75 C 356 62 393 56 431 56 Z" unicode="Ø" />
<glyph horiz-adv-x="756" d="M 445 804 L 369 804 L 250 968 L 337 968 L 445 804 Z M 661 730 L 661 266 C 661 222 653 183 638 149 C 623 114 603 85 578 61 C 552 37 522 19 488 7 C 453 -5 416 -12 377 -12 C 338 -12 301 -6 267 6 C 233 18 203 35 177 59 C 151 83 131 112 116 147 C 101 181 94 221 94 266 L 94 730 L 172 730 L 172 264 C 172 232 177 204 188 179 C 199 154 214 133 232 115 C 250 97 272 84 297 74 C 321 64 347 60 375 60 C 402 60 428 64 454 73 C 479 82 501 95 520 113 C 539 130 554 151 566 177 C 577 202 583 231 583 264 L 583 730 L 661 730 Z" unicode="Ù" />
<glyph horiz-adv-x="756" d="M 313 804 L 419 968 L 507 968 L 387 804 L 313 804 Z M 661 730 L 661 266 C 661 222 653 183 638 149 C 623 114 603 85 578 61 C 552 37 522 19 488 7 C 453 -5 416 -12 377 -12 C 338 -12 301 -6 267 6 C 233 18 203 35 177 59 C 151 83 131 112 116 147 C 101 181 94 221 94 266 L 94 730 L 172 730 L 172 264 C 172 232 177 204 188 179 C 199 154 214 133 232 115 C 250 97 272 84 297 74 C 321 64 347 60 375 60 C 402 60 428 64 454 73 C 479 82 501 95 520 113 C 539 130 554 151 566 177 C 577 202 583 231 583 264 L 583 730 L 661 730 Z" unicode="Ú" />
<glyph horiz-adv-x="756" d="M 538 805 L 468 805 L 377 930 L 284 805 L 216 805 L 339 975 L 415 975 L 538 805 Z M 661 730 L 661 266 C 661 222 653 183 638 149 C 623 114 603 85 578 61 C 552 37 522 19 488 7 C 453 -5 416 -12 377 -12 C 338 -12 301 -6 267 6 C 233 18 203 35 177 59 C 151 83 131 112 116 147 C 101 181 94 221 94 266 L 94 730 L 172 730 L 172 264 C 172 232 177 204 188 179 C 199 154 214 133 232 115 C 250 97 272 84 297 74 C 321 64 347 60 375 60 C 402 60 428 64 454 73 C 479 82 501 95 520 113 C 539 130 554 151 566 177 C 577 202 583 231 583 264 L 583 730 L 661 730 Z" unicode="Û" />
<glyph horiz-adv-x="756" d="M 321 726 L 258 726 L 258 883 L 321 883 L 321 726 Z M 502 726 L 439 726 L 439 883 L 502 883 L 502 726 Z M 661 730 L 661 266 C 661 222 653 183 638 149 C 623 114 603 85 578 61 C 552 37 522 19 488 7 C 453 -5 416 -12 377 -12 C 338 -12 301 -6 267 6 C 233 18 203 35 177 59 C 151 83 131 112 116 147 C 101 181 94 221 94 266 L 94 730 L 172 730 L 172 264 C 172 232 177 204 188 179 C 199 154 214 133 232 115 C 250 97 272 84 297 74 C 321 64 347 60 375 60 C 402 60 428 64 454 73 C 479 82 501 95 520 113 C 539 130 554 151 566 177 C 577 202 583 231 583 264 L 583 730 L 661 730 Z" unicode="Ü" />
<glyph horiz-adv-x="651" d="M 270 811 L 376 975 L 464 975 L 344 811 L 270 811 Z M 648 730 L 363 316 L 363 0 L 283 0 L 283 319 L 3 730 L 93 730 L 327 389 L 564 730 L 648 730 Z" unicode="Ý" />
<glyph horiz-adv-x="597" d="M 99 0 L 99 730 L 179 730 L 179 597 L 338 597 C 411 597 468 577 508 537 C 548 497 568 447 568 385 C 568 353 562 324 551 298 C 540 271 525 248 506 229 C 486 210 463 195 435 184 C 407 173 377 168 345 168 L 179 168 L 179 0 L 99 0 Z M 177 228 L 331 228 C 379 228 417 242 445 270 C 473 298 487 338 487 388 C 487 436 471 472 439 497 C 407 521 368 534 322 534 L 177 534 L 177 228 Z" unicode="Þ" />
<glyph horiz-adv-x="670" d="M 449 -11 C 401 -11 360 -4 325 8 C 289 20 260 37 236 59 L 269 110 C 292 91 319 76 350 65 C 381 54 413 49 446 49 C 478 49 505 57 527 74 C 548 91 559 113 559 140 C 559 161 549 180 531 198 C 512 216 476 233 422 249 C 358 267 314 286 288 307 C 262 328 250 359 250 401 C 250 419 253 436 261 451 C 269 465 279 478 291 488 C 303 498 317 507 333 513 C 349 519 365 523 381 525 C 385 529 392 538 400 550 C 408 562 412 581 413 608 C 413 652 399 685 373 709 C 347 733 317 745 283 745 C 250 745 222 735 200 717 C 178 698 167 670 167 633 L 167 0 L 92 0 L 92 643 C 92 669 96 693 106 713 C 116 733 129 750 146 764 C 162 778 182 788 205 795 C 227 802 251 806 277 806 C 303 806 329 801 354 793 C 379 785 401 773 420 758 C 439 743 454 725 466 703 C 477 681 483 656 483 629 C 483 591 477 561 466 540 C 454 518 444 503 436 495 C 407 492 380 483 355 468 C 329 452 315 433 313 410 C 313 385 324 365 347 350 C 369 335 407 320 460 305 C 524 286 569 264 596 239 C 623 213 637 181 637 143 C 637 119 632 98 622 79 C 612 59 599 43 582 30 C 565 17 545 7 522 0 C 499 -7 475 -11 449 -11 Z" unicode="ß" />
<glyph horiz-adv-x="583" d="M 357 590 L 281 590 L 162 754 L 249 754 L 357 590 Z M 436 133 L 436 287 L 284 279 C 238 276 199 265 169 245 C 139 225 124 196 124 156 C 124 123 136 97 161 78 C 186 59 218 50 258 50 C 292 50 325 57 358 73 C 391 88 417 108 436 133 Z M 509 0 L 435 0 L 435 78 C 415 51 387 30 352 15 C 317 0 277 -8 232 -8 C 174 -8 129 5 96 33 C 62 61 46 99 46 147 C 46 206 68 251 113 282 C 158 313 218 331 292 336 L 435 345 L 435 355 C 435 399 422 431 397 451 C 371 471 338 481 296 481 C 261 481 228 475 198 463 C 167 451 139 437 115 421 L 83 476 C 109 494 141 510 179 524 C 216 538 258 545 305 545 C 367 545 416 530 453 500 C 490 470 509 423 509 357 L 509 0 Z" unicode="à" />
<glyph horiz-adv-x="583" d="M 220 589 L 326 753 L 414 753 L 294 589 L 220 589 Z M 436 133 L 436 287 L 284 279 C 238 276 199 265 169 245 C 139 225 124 196 124 156 C 124 123 136 97 161 78 C 186 59 218 50 258 50 C 292 50 325 57 358 73 C 391 88 417 108 436 133 Z M 509 0 L 435 0 L 435 78 C 415 51 387 30 352 15 C 317 0 277 -8 232 -8 C 174 -8 129 5 96 33 C 62 61 46 99 46 147 C 46 206 68 251 113 282 C 158 313 218 331 292 336 L 435 345 L 435 355 C 435 399 422 431 397 451 C 371 471 338 481 296 481 C 261 481 228 475 198 463 C 167 451 139 437 115 421 L 83 476 C 109 494 141 510 179 524 C 216 538 258 545 305 545 C 367 545 416 530 453 500 C 490 470 509 423 509 357 L 509 0 Z" unicode="á" />
<glyph horiz-adv-x="583" d="M 448 591 L 378 591 L 287 716 L 194 591 L 126 591 L 249 761 L 325 761 L 448 591 Z M 436 133 L 436 287 L 284 279 C 238 276 199 265 169 245 C 139 225 124 196 124 156 C 124 123 136 97 161 78 C 186 59 218 50 258 50 C 292 50 325 57 358 73 C 391 88 417 108 436 133 Z M 509 0 L 435 0 L 435 78 C 415 51 387 30 352 15 C 317 0 277 -8 232 -8 C 174 -8 129 5 96 33 C 62 61 46 99 46 147 C 46 206 68 251 113 282 C 158 313 218 331 292 336 L 435 345 L 435 355 C 435 399 422 431 397 451 C 371 471 338 481 296 481 C 261 481 228 475 198 463 C 167 451 139 437 115 421 L 83 476 C 109 494 141 510 179 524 C 216 538 258 545 305 545 C 367 545 416 530 453 500 C 490 470 509 423 509 357 L 509 0 Z" unicode="â" />
<glyph horiz-adv-x="583" d="M 400 729 L 461 729 C 461 685 454 652 440 630 C 426 608 407 598 383 598 C 364 598 347 602 333 611 C 319 619 305 629 293 639 C 281 649 269 658 257 667 C 245 676 234 681 222 681 C 210 681 199 674 191 662 C 183 649 178 629 178 603 L 119 603 C 119 647 128 679 146 701 C 164 723 183 734 205 734 C 223 734 238 729 252 720 C 266 711 279 701 292 691 C 303 681 314 672 325 664 C 336 656 347 653 359 653 C 370 653 380 659 388 672 C 396 685 400 704 400 729 Z M 436 133 L 436 287 L 284 279 C 238 276 199 265 169 245 C 139 225 124 196 124 156 C 124 123 136 97 161 78 C 186 59 218 50 258 50 C 292 50 325 57 358 73 C 391 88 417 108 436 133 Z M 509 0 L 435 0 L 435 78 C 415 51 387 30 352 15 C 317 0 277 -8 232 -8 C 174 -8 129 5 96 33 C 62 61 46 99 46 147 C 46 206 68 251 113 282 C 158 313 218 331 292 336 L 435 345 L 435 355 C 435 399 422 431 397 451 C 371 471 338 481 296 481 C 261 481 228 475 198 463 C 167 451 139 437 115 421 L 83 476 C 109 494 141 510 179 524 C 216 538 258 545 305 545 C 367 545 416 530 453 500 C 490 470 509 423 509 357 L 509 0 Z" unicode="ã" />
<glyph horiz-adv-x="583" d="M 234 591 L 171 591 L 171 748 L 234 748 L 234 591 Z M 415 591 L 352 591 L 352 748 L 415 748 L 415 591 Z M 436 133 L 436 287 L 284 279 C 238 276 199 265 169 245 C 139 225 124 196 124 156 C 124 123 136 97 161 78 C 186 59 218 50 258 50 C 292 50 325 57 358 73 C 391 88 417 108 436 133 Z M 509 0 L 435 0 L 435 78 C 415 51 387 30 352 15 C 317 0 277 -8 232 -8 C 174 -8 129 5 96 33 C 62 61 46 99 46 147 C 46 206 68 251 113 282 C 158 313 218 331 292 336 L 435 345 L 435 355 C 435 399 422 431 397 451 C 371 471 338 481 296 481 C 261 481 228 475 198 463 C 167 451 139 437 115 421 L 83 476 C 109 494 141 510 179 524 C 216 538 258 545 305 545 C 367 545 416 530 453 500 C 490 470 509 423 509 357 L 509 0 Z" unicode="ä" />
<glyph horiz-adv-x="583" d="M 302 566 C 269 566 241 577 218 601 C 195 624 184 652 184 686 C 184 718 195 746 218 769 C 241 792 269 804 302 804 C 335 804 363 792 386 769 C 409 746 421 718 421 686 C 421 652 409 624 386 601 C 363 577 335 566 302 566 Z M 302 615 C 321 615 337 621 351 635 C 364 649 371 666 371 686 C 371 704 364 721 351 735 C 337 749 321 756 302 756 C 283 756 267 749 253 735 C 239 721 233 704 233 686 C 233 666 239 649 253 635 C 267 621 283 615 302 615 Z M 436 133 L 436 287 L 284 279 C 238 276 199 265 169 245 C 139 225 124 196 124 156 C 124 123 136 97 161 78 C 186 59 218 50 258 50 C 292 50 325 57 358 73 C 391 88 417 108 436 133 Z M 509 0 L 435 0 L 435 78 C 415 51 387 30 352 15 C 317 0 277 -8 232 -8 C 174 -8 129 5 96 33 C 62 61 46 99 46 147 C 46 206 68 251 113 282 C 158 313 218 331 292 336 L 435 345 L 435 355 C 435 399 422 431 397 451 C 371 471 338 481 296 481 C 261 481 228 475 198 463 C 167 451 139 437 115 421 L 83 476 C 109 494 141 510 179 524 C 216 538 258 545 305 545 C 367 545 416 530 453 500 C 490 470 509 423 509 357 L 509 0 Z" unicode="å" />
<glyph horiz-adv-x="1017" d="M 715 -11 C 683 -11 653 -6 625 2 C 597 11 573 23 552 37 C 531 51 514 68 500 86 C 486 104 476 122 472 140 C 457 100 429 66 388 36 C 346 6 296 -8 236 -8 C 182 -8 138 5 105 33 C 71 61 55 99 55 147 C 55 207 77 253 123 283 C 168 313 227 330 301 335 L 445 344 L 445 355 C 445 393 432 424 407 447 C 381 469 347 481 305 481 C 270 481 237 474 206 462 C 175 450 147 436 123 420 L 92 476 C 119 494 150 510 185 524 C 220 538 258 545 300 545 C 354 545 396 533 428 509 C 460 485 480 452 489 410 C 495 424 504 440 516 456 C 528 472 544 486 562 499 C 580 512 602 523 627 531 C 651 539 679 544 709 544 C 747 544 783 537 816 523 C 848 509 876 490 899 464 C 922 438 940 407 953 370 C 966 332 973 291 973 245 L 512 245 C 512 216 517 190 528 167 C 538 143 553 124 571 108 C 589 92 610 79 634 70 C 658 61 685 57 713 57 C 768 57 809 66 835 84 C 861 102 883 120 900 138 L 947 86 C 921 58 891 34 855 16 C 819 -1 773 -11 715 -11 Z M 513 299 L 895 299 C 894 323 889 346 880 368 C 871 390 858 409 842 426 C 826 442 806 455 783 465 C 760 475 734 480 706 480 C 678 480 653 475 630 465 C 607 455 587 442 571 426 C 554 410 540 391 530 369 C 520 347 514 323 513 299 Z M 261 50 C 283 50 303 54 323 62 C 342 70 359 80 375 93 C 391 106 405 121 417 138 C 429 154 438 171 446 189 L 446 286 L 293 277 C 248 274 210 264 180 248 C 149 231 134 201 134 159 C 134 123 146 96 170 78 C 194 59 225 50 261 50 Z" unicode="æ" />
<glyph horiz-adv-x="584" d="M 314 -207 C 290 -207 266 -204 242 -198 C 218 -192 199 -184 185 -175 L 197 -141 C 207 -147 220 -152 236 -158 C 252 -164 270 -167 291 -167 C 307 -167 322 -163 335 -155 C 347 -147 354 -138 354 -126 C 354 -111 348 -101 337 -95 C 325 -89 313 -87 301 -87 C 292 -87 284 -87 278 -89 C 272 -90 265 -92 257 -95 L 245 -83 L 304 -11 C 266 -9 231 0 199 13 C 167 27 139 47 117 71 C 94 95 76 124 64 157 C 51 190 45 226 45 265 C 45 303 52 340 66 374 C 80 408 99 438 123 463 C 147 488 177 508 211 522 C 245 536 281 544 321 544 C 353 544 381 540 407 532 C 432 524 454 513 473 500 C 491 487 507 472 519 456 C 531 440 541 424 548 408 L 483 379 C 470 403 451 425 425 446 C 399 466 363 477 318 477 C 289 477 262 471 238 460 C 214 448 193 433 176 414 C 159 395 146 373 136 347 C 126 321 122 294 122 266 C 122 236 126 209 136 183 C 145 157 158 135 175 117 C 192 98 213 83 238 73 C 262 62 290 57 320 57 C 344 57 366 60 385 66 C 403 72 419 80 433 90 C 447 100 459 111 469 123 C 479 135 487 146 494 157 L 552 117 C 543 103 533 90 521 76 C 509 62 495 50 479 38 C 463 26 444 15 423 7 C 401 0 377 -6 351 -9 L 300 -73 C 334 -64 364 -66 389 -79 C 413 -91 426 -110 426 -134 C 426 -158 414 -177 392 -189 C 370 -201 344 -207 314 -207 Z" unicode="ç" />
<glyph horiz-adv-x="625" d="M 386 590 L 310 590 L 191 754 L 278 754 L 386 590 Z M 323 -11 C 283 -11 246 -4 212 8 C 178 20 148 38 124 62 C 99 85 80 114 66 149 C 52 183 45 223 45 267 C 45 305 52 340 66 374 C 80 408 99 437 123 462 C 147 487 175 507 209 522 C 242 536 278 544 317 544 C 395 544 458 517 507 463 C 555 409 580 336 581 243 L 120 243 C 122 190 141 146 177 110 C 213 74 260 57 320 57 C 368 57 406 64 435 80 C 464 96 489 115 509 138 L 555 86 C 530 58 500 34 464 16 C 428 -1 381 -11 323 -11 Z M 119 300 L 503 300 C 502 352 484 395 448 429 C 412 463 368 480 314 480 C 286 480 261 475 238 465 C 215 455 195 441 178 425 C 161 409 147 390 137 368 C 127 346 121 323 119 300 Z" unicode="è" />
<glyph horiz-adv-x="625" d="M 265 590 L 371 754 L 459 754 L 339 590 L 265 590 Z M 323 -11 C 283 -11 246 -4 212 8 C 178 20 148 38 124 62 C 99 85 80 114 66 149 C 52 183 45 223 45 267 C 45 305 52 340 66 374 C 80 408 99 437 123 462 C 147 487 175 507 209 522 C 242 536 278 544 317 544 C 395 544 458 517 507 463 C 555 409 580 336 581 243 L 120 243 C 122 190 141 146 177 110 C 213 74 260 57 320 57 C 368 57 406 64 435 80 C 464 96 489 115 509 138 L 555 86 C 530 58 500 34 464 16 C 428 -1 381 -11 323 -11 Z M 119 300 L 503 300 C 502 352 484 395 448 429 C 412 463 368 480 314 480 C 286 480 261 475 238 465 C 215 455 195 441 178 425 C 161 409 147 390 137 368 C 127 346 121 323 119 300 Z" unicode="é" />
<glyph horiz-adv-x="625" d="M 477 584 L 407 584 L 316 709 L 223 584 L 155 584 L 278 754 L 354 754 L 477 584 Z M 323 -11 C 283 -11 246 -4 212 8 C 178 20 148 38 124 62 C 99 85 80 114 66 149 C 52 183 45 223 45 267 C 45 305 52 340 66 374 C 80 408 99 437 123 462 C 147 487 175 507 209 522 C 242 536 278 544 317 544 C 395 544 458 517 507 463 C 555 409 580 336 581 243 L 120 243 C 122 190 141 146 177 110 C 213 74 260 57 320 57 C 368 57 406 64 435 80 C 464 96 489 115 509 138 L 555 86 C 530 58 500 34 464 16 C 428 -1 381 -11 323 -11 Z M 119 300 L 503 300 C 502 352 484 395 448 429 C 412 463 368 480 314 480 C 286 480 261 475 238 465 C 215 455 195 441 178 425 C 161 409 147 390 137 368 C 127 346 121 323 119 300 Z" unicode="ê" />
<glyph horiz-adv-x="625" d="M 257 591 L 194 591 L 194 748 L 257 748 L 257 591 Z M 438 591 L 375 591 L 375 748 L 438 748 L 438 591 Z M 323 -11 C 283 -11 246 -4 212 8 C 178 20 148 38 124 62 C 99 85 80 114 66 149 C 52 183 45 223 45 267 C 45 305 52 340 66 374 C 80 408 99 437 123 462 C 147 487 175 507 209 522 C 242 536 278 544 317 544 C 395 544 458 517 507 463 C 555 409 580 336 581 243 L 120 243 C 122 190 141 146 177 110 C 213 74 260 57 320 57 C 368 57 406 64 435 80 C 464 96 489 115 509 138 L 555 86 C 530 58 500 34 464 16 C 428 -1 381 -11 323 -11 Z M 119 300 L 503 300 C 502 352 484 395 448 429 C 412 463 368 480 314 480 C 286 480 261 475 238 465 C 215 455 195 441 178 425 C 161 409 147 390 137 368 C 127 346 121 323 119 300 Z" unicode="ë" />
<glyph horiz-adv-x="266" d="M 186 590 L 110 590 L -9 754 L 78 754 L 186 590 Z M 171 0 L 95 0 L 95 533 L 171 533 L 171 0 Z" unicode="ì" />
<glyph horiz-adv-x="266" d="M 81 590 L 187 754 L 275 754 L 155 590 L 81 590 Z M 171 0 L 95 0 L 95 533 L 171 533 L 171 0 Z" unicode="í" />
<glyph horiz-adv-x="266" d="M 291 591 L 221 591 L 130 716 L 37 591 L -31 591 L 92 761 L 168 761 L 291 591 Z M 171 0 L 95 0 L 95 533 L 171 533 L 171 0 Z" unicode="î" />
<glyph horiz-adv-x="266" d="M 72 591 L 9 591 L 9 748 L 72 748 L 72 591 Z M 253 591 L 190 591 L 190 748 L 253 748 L 253 591 Z M 171 0 L 95 0 L 95 533 L 171 533 L 171 0 Z" unicode="ï" />
<glyph horiz-adv-x="641" d="M 316 -11 C 278 -11 243 -4 210 8 C 176 21 147 39 123 62 C 99 85 80 113 66 146 C 52 179 45 216 45 256 C 45 292 51 326 65 359 C 79 392 97 421 121 446 C 145 471 172 491 204 506 C 236 521 269 529 305 529 C 352 529 394 516 432 492 C 470 467 497 436 513 400 C 507 462 494 515 476 560 C 458 605 436 643 412 673 L 269 608 L 256 644 L 385 702 C 362 724 339 741 315 753 C 291 765 269 773 249 778 L 320 801 C 336 798 355 790 377 778 C 398 766 419 749 441 727 L 522 764 L 534 728 L 468 698 C 501 657 530 603 555 536 C 580 469 593 388 593 294 C 593 250 586 210 574 172 C 561 134 543 102 519 75 C 495 48 466 27 432 12 C 398 -3 359 -11 316 -11 Z M 320 52 C 380 52 428 72 465 113 C 501 153 520 205 520 268 C 520 296 515 323 506 348 C 496 372 483 394 466 412 C 449 430 428 444 403 454 C 378 464 350 470 319 470 C 290 470 264 464 240 453 C 216 442 195 427 178 409 C 160 390 147 368 137 343 C 127 317 123 290 123 262 C 123 231 128 203 138 177 C 148 151 161 129 179 111 C 197 92 218 77 242 67 C 266 57 292 52 320 52 Z" unicode="ð" />
<glyph horiz-adv-x="633" d="M 439 729 L 500 729 C 500 685 493 652 479 630 C 465 608 446 598 422 598 C 403 598 386 602 372 611 C 358 619 344 629 332 639 C 320 649 308 658 296 667 C 284 676 273 681 261 681 C 249 681 238 674 230 662 C 222 649 217 629 217 603 L 158 603 C 158 647 167 679 185 701 C 203 723 222 734 244 734 C 262 734 277 729 291 720 C 305 711 318 701 331 691 C 342 681 353 672 364 664 C 375 656 386 653 398 653 C 409 653 419 659 427 672 C 435 685 439 704 439 729 Z M 549 0 L 474 0 L 474 369 C 474 386 470 401 462 415 C 454 429 444 440 432 450 C 419 459 404 466 388 471 C 372 476 355 479 338 479 C 319 479 300 476 280 470 C 260 464 241 456 225 444 C 208 432 194 416 183 398 C 172 380 167 358 167 333 L 167 0 L 92 0 L 92 533 L 157 533 L 157 412 C 169 452 194 484 232 508 C 269 532 312 544 361 544 C 385 544 408 540 431 533 C 453 526 473 516 491 503 C 508 489 522 473 533 455 C 543 436 549 415 549 392 L 549 0 Z" unicode="ñ" />
<glyph horiz-adv-x="643" d="M 385 590 L 309 590 L 190 754 L 277 754 L 385 590 Z M 317 -11 C 281 -11 247 -4 214 8 C 181 20 152 38 127 62 C 102 86 82 115 67 149 C 52 183 45 221 45 263 C 45 302 52 339 66 373 C 80 407 100 437 125 462 C 150 487 179 507 213 522 C 246 536 282 544 320 544 C 359 544 396 537 430 524 C 464 511 493 493 518 470 C 543 446 563 418 577 386 C 591 353 599 317 599 278 C 599 236 591 198 577 163 C 562 127 542 97 517 71 C 491 45 461 25 427 11 C 393 -3 356 -11 317 -11 Z M 323 56 C 352 56 379 61 403 73 C 427 84 448 99 466 119 C 483 138 496 161 506 187 C 516 213 521 242 521 272 C 521 300 516 327 506 352 C 496 377 483 399 465 417 C 447 435 426 450 401 461 C 375 471 347 477 317 477 C 288 477 262 471 238 460 C 214 448 194 433 177 414 C 160 395 147 373 137 347 C 127 321 123 293 123 264 C 123 232 128 204 138 178 C 148 152 163 130 181 112 C 199 94 220 80 244 70 C 268 60 295 56 323 56 Z" unicode="ò" />
<glyph horiz-adv-x="643" d="M 249 590 L 355 754 L 443 754 L 323 590 L 249 590 Z M 317 -11 C 281 -11 247 -4 214 8 C 181 20 152 38 127 62 C 102 86 82 115 67 149 C 52 183 45 221 45 263 C 45 302 52 339 66 373 C 80 407 100 437 125 462 C 150 487 179 507 213 522 C 246 536 282 544 320 544 C 359 544 396 537 430 524 C 464 511 493 493 518 470 C 543 446 563 418 577 386 C 591 353 599 317 599 278 C 599 236 591 198 577 163 C 562 127 542 97 517 71 C 491 45 461 25 427 11 C 393 -3 356 -11 317 -11 Z M 323 56 C 352 56 379 61 403 73 C 427 84 448 99 466 119 C 483 138 496 161 506 187 C 516 213 521 242 521 272 C 521 300 516 327 506 352 C 496 377 483 399 465 417 C 447 435 426 450 401 461 C 375 471 347 477 317 477 C 288 477 262 471 238 460 C 214 448 194 433 177 414 C 160 395 147 373 137 347 C 127 321 123 293 123 264 C 123 232 128 204 138 178 C 148 152 163 130 181 112 C 199 94 220 80 244 70 C 268 60 295 56 323 56 Z" unicode="ó" />
<glyph horiz-adv-x="643" d="M 480 581 L 410 581 L 319 706 L 226 581 L 158 581 L 281 751 L 357 751 L 480 581 Z M 317 -11 C 281 -11 247 -4 214 8 C 181 20 152 38 127 62 C 102 86 82 115 67 149 C 52 183 45 221 45 263 C 45 302 52 339 66 373 C 80 407 100 437 125 462 C 150 487 179 507 213 522 C 246 536 282 544 320 544 C 359 544 396 537 430 524 C 464 511 493 493 518 470 C 543 446 563 418 577 386 C 591 353 599 317 599 278 C 599 236 591 198 577 163 C 562 127 542 97 517 71 C 491 45 461 25 427 11 C 393 -3 356 -11 317 -11 Z M 323 56 C 352 56 379 61 403 73 C 427 84 448 99 466 119 C 483 138 496 161 506 187 C 516 213 521 242 521 272 C 521 300 516 327 506 352 C 496 377 483 399 465 417 C 447 435 426 450 401 461 C 375 471 347 477 317 477 C 288 477 262 471 238 460 C 214 448 194 433 177 414 C 160 395 147 373 137 347 C 127 321 123 293 123 264 C 123 232 128 204 138 178 C 148 152 163 130 181 112 C 199 94 220 80 244 70 C 268 60 295 56 323 56 Z" unicode="ô" />
<glyph horiz-adv-x="643" d="M 420 729 L 481 729 C 481 685 474 652 460 630 C 446 608 427 598 403 598 C 384 598 367 602 353 611 C 339 619 325 629 313 639 C 301 649 289 658 277 667 C 265 676 254 681 242 681 C 230 681 219 674 211 662 C 203 649 198 629 198 603 L 139 603 C 139 647 148 679 166 701 C 184 723 203 734 225 734 C 243 734 258 729 272 720 C 286 711 299 701 312 691 C 323 681 334 672 345 664 C 356 656 367 653 379 653 C 390 653 400 659 408 672 C 416 685 420 704 420 729 Z M 317 -11 C 281 -11 247 -4 214 8 C 181 20 152 38 127 62 C 102 86 82 115 67 149 C 52 183 45 221 45 263 C 45 302 52 339 66 373 C 80 407 100 437 125 462 C 150 487 179 507 213 522 C 246 536 282 544 320 544 C 359 544 396 537 430 524 C 464 511 493 493 518 470 C 543 446 563 418 577 386 C 591 353 599 317 599 278 C 599 236 591 198 577 163 C 562 127 542 97 517 71 C 491 45 461 25 427 11 C 393 -3 356 -11 317 -11 Z M 323 56 C 352 56 379 61 403 73 C 427 84 448 99 466 119 C 483 138 496 161 506 187 C 516 213 521 242 521 272 C 521 300 516 327 506 352 C 496 377 483 399 465 417 C 447 435 426 450 401 461 C 375 471 347 477 317 477 C 288 477 262 471 238 460 C 214 448 194 433 177 414 C 160 395 147 373 137 347 C 127 321 123 293 123 264 C 123 232 128 204 138 178 C 148 152 163 130 181 112 C 199 94 220 80 244 70 C 268 60 295 56 323 56 Z" unicode="õ" />
<glyph horiz-adv-x="643" d="M 260 591 L 197 591 L 197 748 L 260 748 L 260 591 Z M 441 591 L 378 591 L 378 748 L 441 748 L 441 591 Z M 317 -11 C 281 -11 247 -4 214 8 C 181 20 152 38 127 62 C 102 86 82 115 67 149 C 52 183 45 221 45 263 C 45 302 52 339 66 373 C 80 407 100 437 125 462 C 150 487 179 507 213 522 C 246 536 282 544 320 544 C 359 544 396 537 430 524 C 464 511 493 493 518 470 C 543 446 563 418 577 386 C 591 353 599 317 599 278 C 599 236 591 198 577 163 C 562 127 542 97 517 71 C 491 45 461 25 427 11 C 393 -3 356 -11 317 -11 Z M 323 56 C 352 56 379 61 403 73 C 427 84 448 99 466 119 C 483 138 496 161 506 187 C 516 213 521 242 521 272 C 521 300 516 327 506 352 C 496 377 483 399 465 417 C 447 435 426 450 401 461 C 375 471 347 477 317 477 C 288 477 262 471 238 460 C 214 448 194 433 177 414 C 160 395 147 373 137 347 C 127 321 123 293 123 264 C 123 232 128 204 138 178 C 148 152 163 130 181 112 C 199 94 220 80 244 70 C 268 60 295 56 323 56 Z" unicode="ö" />
<glyph horiz-adv-x="500" d="M 215 447 L 215 558 L 285 558 L 285 447 L 215 447 Z M 27 299 L 27 363 L 473 363 L 473 299 L 27 299 Z M 215 103 L 215 213 L 285 213 L 285 103 L 215 103 Z" unicode="÷" />
<glyph horiz-adv-x="643" d="M 317 -11 C 283 -11 251 -5 220 6 C 188 17 160 33 136 54 L 71 -11 L 28 29 L 97 97 C 80 119 67 144 58 172 C 49 200 45 230 45 263 C 45 302 52 339 66 373 C 80 407 100 437 125 462 C 150 487 179 507 213 522 C 246 536 282 544 320 544 C 352 544 383 539 413 530 C 442 520 468 507 492 491 L 554 553 L 596 514 L 535 453 C 555 430 570 404 582 374 C 593 344 599 312 599 278 C 599 236 591 198 577 163 C 562 127 542 97 517 71 C 491 45 461 25 427 11 C 393 -3 356 -11 317 -11 Z M 123 264 C 123 242 125 222 130 203 C 135 184 142 167 151 152 L 440 439 C 423 451 404 460 384 467 C 363 473 341 477 317 477 C 288 477 262 471 238 460 C 214 448 194 433 177 414 C 160 395 147 373 137 347 C 127 321 123 293 123 264 Z M 323 56 C 352 56 379 61 403 73 C 427 84 448 99 466 119 C 483 138 496 161 506 187 C 516 213 521 242 521 272 C 521 296 517 318 510 340 C 503 362 493 381 481 399 L 188 106 C 205 90 225 77 248 69 C 271 60 296 56 323 56 Z" unicode="ø" />
<glyph horiz-adv-x="633" d="M 383 590 L 307 590 L 188 754 L 275 754 L 383 590 Z M 84 533 L 159 533 L 159 197 C 159 143 173 105 203 84 C 232 62 268 52 310 52 C 330 52 350 55 369 62 C 388 69 405 79 419 92 C 433 104 444 120 453 138 C 461 156 466 177 466 200 L 466 533 L 541 533 L 541 0 L 473 0 L 473 116 C 469 100 461 84 450 69 C 439 53 426 40 410 28 C 394 16 375 7 353 0 C 331 -7 307 -11 281 -11 C 254 -11 229 -7 205 0 C 181 6 161 17 143 31 C 125 45 110 64 100 86 C 89 108 84 135 84 167 L 84 533 Z" unicode="ù" />
<glyph horiz-adv-x="633" d="M 239 590 L 345 754 L 433 754 L 313 590 L 239 590 Z M 84 533 L 159 533 L 159 197 C 159 143 173 105 203 84 C 232 62 268 52 310 52 C 330 52 350 55 369 62 C 388 69 405 79 419 92 C 433 104 444 120 453 138 C 461 156 466 177 466 200 L 466 533 L 541 533 L 541 0 L 473 0 L 473 116 C 469 100 461 84 450 69 C 439 53 426 40 410 28 C 394 16 375 7 353 0 C 331 -7 307 -11 281 -11 C 254 -11 229 -7 205 0 C 181 6 161 17 143 31 C 125 45 110 64 100 86 C 89 108 84 135 84 167 L 84 533 Z" unicode="ú" />
<glyph horiz-adv-x="633" d="M 474 591 L 404 591 L 313 716 L 220 591 L 152 591 L 275 761 L 351 761 L 474 591 Z M 84 533 L 159 533 L 159 197 C 159 143 173 105 203 84 C 232 62 268 52 310 52 C 330 52 350 55 369 62 C 388 69 405 79 419 92 C 433 104 444 120 453 138 C 461 156 466 177 466 200 L 466 533 L 541 533 L 541 0 L 473 0 L 473 116 C 469 100 461 84 450 69 C 439 53 426 40 410 28 C 394 16 375 7 353 0 C 331 -7 307 -11 281 -11 C 254 -11 229 -7 205 0 C 181 6 161 17 143 31 C 125 45 110 64 100 86 C 89 108 84 135 84 167 L 84 533 Z" unicode="û" />
<glyph horiz-adv-x="633" d="M 252 591 L 189 591 L 189 748 L 252 748 L 252 591 Z M 433 591 L 370 591 L 370 748 L 433 748 L 433 591 Z M 84 533 L 159 533 L 159 197 C 159 143 173 105 203 84 C 232 62 268 52 310 52 C 330 52 350 55 369 62 C 388 69 405 79 419 92 C 433 104 444 120 453 138 C 461 156 466 177 466 200 L 466 533 L 541 533 L 541 0 L 473 0 L 473 116 C 469 100 461 84 450 69 C 439 53 426 40 410 28 C 394 16 375 7 353 0 C 331 -7 307 -11 281 -11 C 254 -11 229 -7 205 0 C 181 6 161 17 143 31 C 125 45 110 64 100 86 C 89 108 84 135 84 167 L 84 533 Z" unicode="ü" />
<glyph horiz-adv-x="533" d="M 193 590 L 299 754 L 387 754 L 267 590 L 193 590 Z M 536 533 L 250 -81 C 228 -127 202 -159 172 -175 C 142 -191 113 -200 87 -200 C 72 -200 59 -198 49 -195 C 39 -191 31 -189 27 -188 L 51 -121 C 54 -123 59 -125 67 -127 C 75 -129 83 -130 92 -130 C 109 -130 125 -124 141 -112 C 157 -100 172 -78 188 -48 L 225 27 L -3 533 L 77 533 L 265 110 L 458 533 L 536 533 Z" unicode="ý" />
<glyph horiz-adv-x="656" d="M 352 56 C 378 56 402 61 424 72 C 446 83 466 98 482 117 C 498 136 511 159 520 185 C 529 211 534 240 534 271 C 534 300 530 327 522 353 C 514 379 503 401 488 420 C 472 438 453 453 431 464 C 408 474 382 480 353 480 C 326 480 301 475 278 466 C 254 457 234 444 217 426 C 199 408 186 386 176 359 C 166 331 162 300 162 264 C 162 228 167 197 177 171 C 187 145 200 123 217 106 C 234 89 254 76 278 68 C 301 60 326 56 352 56 Z M 92 -193 L 92 800 L 166 800 L 166 394 C 170 413 178 432 190 450 C 201 468 215 483 233 497 C 250 511 270 522 294 530 C 318 538 344 543 374 543 C 444 543 502 518 546 469 C 590 420 612 355 612 274 C 612 232 605 193 593 159 C 581 124 564 94 542 70 C 520 45 495 26 465 13 C 435 0 403 -7 369 -7 C 315 -7 271 6 236 34 C 200 61 177 95 167 135 L 167 -193 L 92 -193 Z" unicode="þ" />
<glyph horiz-adv-x="533" d="M 209 591 L 146 591 L 146 748 L 209 748 L 209 591 Z M 390 591 L 327 591 L 327 748 L 390 748 L 390 591 Z M 536 533 L 250 -81 C 228 -127 202 -159 172 -175 C 142 -191 113 -200 87 -200 C 72 -200 59 -198 49 -195 C 39 -191 31 -189 27 -188 L 51 -121 C 54 -123 59 -125 67 -127 C 75 -129 83 -130 92 -130 C 109 -130 125 -124 141 -112 C 157 -100 172 -78 188 -48 L 225 27 L -3 533 L 77 533 L 265 110 L 458 533 L 536 533 Z" unicode="ÿ" />
<glyph horiz-adv-x="648" d="M 454 277 L 320 616 L 186 277 L 454 277 Z M 699 -136 C 680 -155 658 -170 633 -181 C 607 -191 579 -197 549 -197 C 515 -197 489 -189 469 -175 C 449 -161 440 -142 440 -120 C 440 -96 450 -73 472 -51 C 493 -29 522 -11 559 3 L 473 216 L 166 216 L 83 0 L 3 0 L 299 734 L 352 734 L 645 0 L 603 0 C 572 -14 548 -29 530 -44 C 512 -59 504 -75 504 -91 C 504 -107 510 -119 523 -128 C 536 -137 552 -142 572 -142 C 594 -142 615 -138 633 -132 C 651 -125 666 -116 678 -106 L 699 -136 Z" unicode="Ą" />
<glyph horiz-adv-x="583" d="M 436 133 L 436 287 L 284 279 C 238 276 199 265 169 245 C 139 225 124 196 124 156 C 124 123 136 97 161 78 C 186 59 218 50 258 50 C 292 50 325 57 358 73 C 391 88 417 108 436 133 Z M 574 -136 C 555 -155 533 -170 508 -181 C 482 -191 454 -197 424 -197 C 390 -197 364 -189 344 -175 C 324 -161 315 -142 315 -120 C 315 -96 325 -73 347 -51 C 368 -29 397 -11 435 4 L 435 78 C 415 51 387 30 352 15 C 317 0 277 -8 232 -8 C 174 -8 129 5 96 33 C 62 61 46 99 46 147 C 46 206 68 251 113 282 C 158 313 218 331 292 336 L 435 345 L 435 355 C 435 399 422 431 397 451 C 371 471 338 481 296 481 C 261 481 228 475 198 463 C 167 451 139 437 115 421 L 83 476 C 109 494 141 510 179 524 C 216 538 258 545 305 545 C 367 545 416 530 453 500 C 490 470 509 423 509 357 L 509 0 L 478 0 C 447 -14 423 -29 405 -44 C 387 -59 379 -75 379 -91 C 379 -107 385 -119 398 -128 C 411 -137 427 -142 447 -142 C 469 -142 490 -138 508 -132 C 526 -125 541 -116 553 -106 L 574 -136 Z" unicode="ą" />
<glyph horiz-adv-x="579" d="M 607 -136 C 588 -155 566 -170 541 -181 C 515 -191 487 -197 457 -197 C 423 -197 397 -189 377 -175 C 357 -161 348 -142 348 -120 C 348 -97 357 -75 377 -55 C 397 -34 424 -16 459 0 L 99 0 L 99 730 L 502 730 L 502 661 L 177 661 L 177 398 L 488 398 L 488 330 L 177 330 L 177 69 L 521 69 L 521 0 L 511 0 C 480 -14 456 -29 438 -44 C 420 -59 412 -75 412 -91 C 412 -107 418 -119 431 -128 C 444 -137 460 -142 480 -142 C 502 -142 523 -138 541 -132 C 559 -125 574 -116 586 -106 L 607 -136 Z" unicode="Ę" />
<glyph horiz-adv-x="625" d="M 377 -193 C 343 -193 317 -185 297 -171 C 277 -157 268 -138 268 -116 C 268 -96 275 -77 289 -59 C 303 -41 324 -24 351 -10 C 346 -10 341 -11 337 -11 C 332 -11 327 -11 323 -11 C 283 -11 246 -4 212 8 C 178 20 148 38 124 62 C 99 85 80 114 66 149 C 52 183 45 223 45 267 C 45 305 52 340 66 374 C 80 408 99 437 123 462 C 147 487 175 507 209 522 C 242 536 278 544 317 544 C 395 544 458 517 507 463 C 555 409 580 336 581 243 L 120 243 C 122 190 141 146 177 110 C 213 74 260 57 320 57 C 368 57 406 64 435 80 C 464 96 489 115 509 138 L 555 86 C 539 68 521 51 501 37 C 481 23 457 12 431 4 C 400 -10 376 -25 358 -40 C 340 -55 332 -71 332 -87 C 332 -103 338 -115 351 -124 C 364 -133 380 -138 400 -138 C 422 -138 443 -134 461 -128 C 479 -121 494 -112 506 -102 L 527 -132 C 508 -151 486 -166 461 -177 C 435 -187 407 -193 377 -193 Z M 119 300 L 503 300 C 502 352 484 395 448 429 C 412 463 368 480 314 480 C 286 480 261 475 238 465 C 215 455 195 441 178 425 C 161 409 147 390 137 368 C 127 346 121 323 119 300 Z" unicode="ę" />
<glyph horiz-adv-x="266" d="M 171 0 L 95 0 L 95 533 L 171 533 L 171 0 Z" unicode="ı" />
<glyph horiz-adv-x="495" d="M 486 0 L 99 0 L 99 278 L 34 251 L 6 307 L 99 345 L 99 730 L 179 730 L 179 377 L 376 457 L 402 402 L 179 310 L 179 65 L 486 65 L 486 0 Z" unicode="Ł" />
<glyph horiz-adv-x="290" d="M 215 -6 C 181 -6 150 3 124 23 C 98 43 85 73 85 114 L 85 287 L 23 258 L 4 303 L 85 341 L 85 800 L 160 800 L 160 375 L 256 420 L 275 375 L 160 322 L 160 137 C 160 113 166 94 179 81 C 191 67 208 61 230 61 C 238 61 247 61 257 63 C 267 64 274 66 280 68 L 282 3 C 275 0 265 -1 253 -3 C 240 -5 227 -6 215 -6 Z" unicode="ł" />
<glyph horiz-adv-x="1194" d="M 424 54 C 463 54 500 61 536 75 C 571 89 602 109 628 136 C 654 162 675 195 691 235 C 706 274 714 319 714 369 C 714 419 704 463 686 501 C 667 539 643 571 615 596 C 586 621 554 640 520 653 C 485 665 452 672 421 672 C 380 672 342 664 306 650 C 270 635 240 614 214 588 C 188 561 168 529 153 491 C 138 453 131 411 131 365 C 131 317 138 273 154 235 C 170 197 191 164 218 137 C 244 110 275 89 311 75 C 347 61 384 54 424 54 Z M 415 -12 C 361 -12 312 -2 267 16 C 222 35 183 61 151 95 C 119 128 94 168 76 215 C 58 262 49 313 49 368 C 49 420 58 470 77 516 C 96 562 122 601 155 635 C 188 668 227 694 273 713 C 318 732 366 742 418 742 C 447 742 477 737 508 728 C 539 718 568 705 595 688 C 621 671 645 651 666 628 C 687 604 702 579 712 551 L 712 730 L 1114 730 L 1114 660 L 786 660 L 786 397 L 1101 397 L 1101 331 L 786 331 L 786 69 L 1134 69 L 1134 0 L 712 0 L 712 194 C 702 164 689 137 671 112 C 653 86 632 64 607 46 C 581 28 552 13 520 3 C 488 -6 453 -12 415 -12 Z" unicode="Œ" />
<glyph horiz-adv-x="1099" d="M 317 -11 C 281 -11 247 -4 214 8 C 181 20 152 38 127 62 C 102 86 82 115 67 149 C 52 183 45 221 45 263 C 45 301 52 337 66 371 C 80 405 100 434 125 460 C 150 486 179 506 213 521 C 246 536 282 544 320 544 C 355 544 386 538 414 527 C 442 516 465 502 484 486 C 503 469 518 451 530 431 C 542 411 550 392 554 375 C 556 391 564 408 577 428 C 589 448 606 466 627 483 C 648 500 672 514 700 526 C 728 538 758 544 791 544 C 869 544 932 517 981 464 C 1029 410 1054 337 1055 245 L 594 245 C 594 189 614 143 652 108 C 690 73 738 56 795 56 C 843 56 881 64 910 80 C 938 96 963 116 983 138 L 1029 86 C 1004 58 974 34 938 16 C 902 -1 855 -11 797 -11 C 765 -11 734 -5 706 4 C 678 14 653 28 632 44 C 610 60 593 78 579 98 C 565 118 556 138 552 158 C 548 140 540 121 528 101 C 516 81 499 62 479 46 C 459 29 435 15 408 5 C 380 -5 350 -11 317 -11 Z M 595 300 L 977 300 C 976 352 958 395 922 429 C 886 463 842 480 788 480 C 760 480 735 475 713 465 C 690 455 670 442 654 426 C 637 409 623 390 613 368 C 603 346 597 324 595 300 Z M 323 56 C 351 56 378 61 402 72 C 426 82 447 97 465 117 C 483 136 496 159 506 185 C 516 211 521 240 521 272 C 521 300 516 327 506 352 C 496 377 483 399 465 417 C 447 435 426 450 401 461 C 375 471 347 477 317 477 C 288 477 262 471 238 460 C 214 449 194 434 177 415 C 160 396 147 374 137 348 C 127 322 123 294 123 264 C 123 232 128 204 138 178 C 148 152 163 130 181 112 C 199 94 220 80 244 70 C 268 60 295 56 323 56 Z" unicode="œ" />
<glyph horiz-adv-x="588" d="M 124 960 L 194 960 L 286 836 L 378 960 L 446 960 L 323 790 L 247 790 L 124 960 Z M 299 -12 C 241 -12 192 -3 150 13 C 108 29 74 51 48 78 L 101 141 C 122 114 151 93 188 78 C 224 62 262 55 301 55 C 341 55 375 66 404 88 C 433 110 448 138 448 174 C 448 206 436 235 413 259 C 389 283 347 309 285 335 C 244 351 210 367 182 382 C 154 397 132 413 116 430 C 99 447 87 466 80 487 C 73 508 70 533 70 562 C 70 616 89 659 129 692 C 168 725 220 742 284 742 C 333 742 375 734 410 718 C 445 702 475 683 500 662 L 454 596 C 428 618 401 635 371 649 C 341 662 310 669 278 669 C 238 669 207 659 183 639 C 159 619 148 594 148 562 C 148 526 161 497 188 475 C 215 453 261 428 325 401 C 402 368 455 336 484 304 C 512 272 527 230 527 180 C 527 150 521 124 509 100 C 497 76 480 56 460 40 C 439 23 415 10 387 1 C 359 -7 330 -12 299 -12 Z" unicode="Š" />
<glyph horiz-adv-x="487" d="M 88 754 L 158 754 L 250 630 L 342 754 L 410 754 L 287 584 L 211 584 L 88 754 Z M 262 -11 C 212 -11 169 -4 133 8 C 97 21 66 38 42 59 L 76 110 C 98 93 125 79 158 67 C 190 55 224 49 258 49 C 288 49 315 57 338 75 C 360 92 372 114 372 140 C 372 161 362 180 343 198 C 323 216 285 233 229 250 C 164 268 120 291 98 318 C 75 344 64 375 64 409 C 64 429 68 448 78 465 C 88 481 101 495 117 507 C 133 519 153 528 175 534 C 197 540 220 544 246 544 C 295 544 334 537 364 525 C 394 513 417 501 434 489 L 406 432 C 385 445 362 457 337 468 C 312 478 284 484 252 484 C 222 484 196 477 174 463 C 151 449 140 430 140 408 C 140 397 141 387 144 378 C 147 369 153 361 163 353 C 172 345 186 337 204 329 C 222 321 245 313 275 305 C 339 286 383 264 409 238 C 435 212 448 180 448 142 C 448 119 443 98 433 79 C 423 60 409 44 393 31 C 376 17 356 7 334 0 C 311 -7 287 -11 262 -11 Z" unicode="š" />
<glyph horiz-adv-x="651" d="M 267 765 L 204 765 L 204 922 L 267 922 L 267 765 Z M 448 765 L 385 765 L 385 922 L 448 922 L 448 765 Z M 648 730 L 363 316 L 363 0 L 283 0 L 283 319 L 3 730 L 93 730 L 327 389 L 564 730 L 648 730 Z" unicode="Ÿ" />
<glyph horiz-adv-x="583" d="M 142 966 L 212 966 L 304 842 L 396 966 L 464 966 L 341 796 L 265 796 L 142 966 Z M 549 730 L 549 695 L 128 69 L 563 69 L 563 0 L 20 0 L 20 33 L 438 660 L 56 660 L 56 730 L 549 730 Z" unicode="Ž" />
<glyph horiz-adv-x="471" d="M 86 754 L 156 754 L 248 630 L 340 754 L 408 754 L 285 584 L 209 584 L 86 754 Z M 436 533 L 436 498 L 128 66 L 462 66 L 462 0 L 20 0 L 20 35 L 328 467 L 35 467 L 35 533 L 436 533 Z" unicode="ž" />
<glyph horiz-adv-x="372" d="M 51 -179 C 34 -179 18 -177 4 -175 C -10 -173 -21 -170 -29 -167 L -22 -113 C -17 -113 -10 -114 0 -116 C 9 -118 18 -119 27 -119 C 47 -119 66 -112 82 -98 C 98 -84 107 -64 110 -39 L 144 342 L 47 342 L 47 400 L 149 400 L 170 633 C 172 667 185 693 208 711 C 231 729 255 739 279 739 C 291 739 303 738 314 737 C 325 736 332 735 335 735 L 329 670 C 327 670 323 671 317 672 C 311 672 305 673 299 673 C 280 673 264 666 252 654 C 240 641 232 621 230 595 L 213 400 L 319 400 L 319 342 L 208 342 L 173 -65 C 170 -97 157 -124 134 -146 C 111 -168 83 -179 51 -179 Z" unicode="ƒ" />
<glyph horiz-adv-x="500" d="M 411 584 L 341 584 L 250 709 L 157 584 L 89 584 L 212 754 L 288 754 L 411 584 Z" unicode="ˆ" />
<glyph horiz-adv-x="500" d="M 89 754 L 159 754 L 251 630 L 343 754 L 411 754 L 288 584 L 212 584 L 89 754 Z" unicode="ˇ" />
<glyph horiz-adv-x="500" d="M 339 746 L 402 746 C 398 692 382 652 354 627 C 326 602 291 590 250 590 C 208 590 174 602 146 627 C 118 652 102 692 98 746 L 161 746 C 163 715 171 690 185 670 C 199 650 220 641 250 641 C 279 641 301 650 315 669 C 329 688 337 714 339 746 Z" unicode="˘" />
<glyph horiz-adv-x="500" d="M 285 584 L 216 584 L 216 747 L 285 747 L 285 584 Z" unicode="˙" />
<glyph horiz-adv-x="514" d="M 257 566 C 224 566 196 577 173 601 C 150 624 139 652 139 686 C 139 718 150 746 173 769 C 196 792 224 804 257 804 C 290 804 318 792 341 769 C 364 746 376 718 376 686 C 376 652 364 624 341 601 C 318 577 290 566 257 566 Z M 257 615 C 276 615 292 621 306 635 C 319 649 326 666 326 686 C 326 704 319 721 306 735 C 292 749 276 756 257 756 C 238 756 222 749 208 735 C 194 721 188 704 188 686 C 188 666 194 649 208 635 C 222 621 238 615 257 615 Z" unicode="˚" />
<glyph horiz-adv-x="500" d="M 363 -97 L 384 -127 C 365 -146 343 -161 318 -172 C 292 -182 264 -188 234 -188 C 200 -188 174 -180 154 -166 C 134 -152 125 -133 125 -111 C 125 -87 135 -64 157 -42 C 179 -20 209 -2 248 14 L 297 13 C 264 -1 238 -17 218 -33 C 198 -49 189 -65 189 -82 C 189 -98 195 -110 208 -119 C 221 -128 237 -133 257 -133 C 279 -133 300 -129 318 -123 C 336 -116 351 -107 363 -97 Z" unicode="˛" />
<glyph horiz-adv-x="500" d="M 362 722 L 423 722 C 423 678 416 645 402 623 C 388 601 369 591 345 591 C 326 591 309 595 295 604 C 281 612 267 622 255 632 C 243 642 231 651 219 660 C 207 669 196 674 184 674 C 172 674 161 667 153 655 C 145 642 140 622 140 596 L 81 596 C 81 640 90 672 108 694 C 126 716 145 727 167 727 C 185 727 200 722 214 713 C 228 704 241 694 254 684 C 265 674 276 665 287 657 C 298 649 309 646 321 646 C 332 646 342 652 350 665 C 358 678 362 697 362 722 Z" unicode="˜" />
<glyph horiz-adv-x="500" d="M 261 583 L 356 733 L 435 733 L 328 583 L 261 583 Z M 85 583 L 179 733 L 259 733 L 152 583 L 85 583 Z" unicode="˝" />
<glyph horiz-adv-x="639" d="M 542 57 L 318 601 L 94 57 L 542 57 Z M 638 0 L 2 0 L 307 730 L 334 730 L 638 0 Z" unicode="Δ" />
<glyph horiz-adv-x="751" d="M 49 0 L 49 69 L 272 69 L 272 146 C 238 158 206 175 178 195 C 150 215 125 238 105 264 C 84 289 68 317 57 348 C 45 378 40 410 40 443 C 40 485 48 524 64 561 C 80 598 102 630 131 657 C 159 684 194 705 235 721 C 276 737 322 745 372 745 C 424 745 470 737 512 721 C 554 705 589 683 619 656 C 648 629 670 597 686 560 C 702 523 710 484 710 442 C 710 376 689 316 648 264 C 607 212 550 172 478 146 L 478 69 L 701 69 L 701 0 L 423 0 L 423 186 C 486 210 536 246 573 292 C 610 338 629 387 629 439 C 629 474 622 507 609 537 C 596 567 578 592 556 614 C 533 636 506 653 474 665 C 442 677 408 683 372 683 C 336 683 302 676 272 664 C 241 652 215 635 193 614 C 171 592 153 566 141 536 C 128 506 122 473 122 437 C 122 386 140 338 176 292 C 212 246 263 211 327 186 L 327 0 L 49 0 Z" unicode="Ω" />
<glyph horiz-adv-x="619" d="M 84 -112 L 84 533 L 157 533 L 157 165 C 157 132 171 105 199 83 C 227 61 261 51 299 51 C 317 51 335 54 354 61 C 373 67 390 77 405 91 C 420 104 433 120 443 140 C 453 159 458 181 458 207 L 458 533 L 531 533 L 531 0 L 464 0 L 464 107 C 458 91 449 77 437 63 C 425 49 410 37 394 27 C 377 17 359 9 340 3 C 320 -3 301 -6 283 -7 C 255 -7 228 -1 203 10 C 178 22 161 38 151 60 L 151 -112 L 84 -112 Z" unicode="μ" />
<glyph horiz-adv-x="601" d="M 167 473 L 167 0 L 94 0 L 94 473 L 16 473 L 16 533 L 585 533 L 585 473 L 501 473 L 501 0 L 428 0 L 428 473 L 167 473 Z" unicode="π" />
<glyph horiz-adv-x="461" d="M 419 231 L 42 231 L 42 295 L 419 295 L 419 231 Z" unicode="–" />
<glyph horiz-adv-x="646" d="M 604 231 L 42 231 L 42 295 L 604 295 L 604 231 Z" unicode="—" />
<glyph horiz-adv-x="254" d="M 35 507 L 35 514 C 35 550 46 589 70 629 C 93 669 124 705 164 737 L 237 731 C 227 725 215 715 201 701 C 187 687 173 670 161 651 C 148 631 137 610 128 587 C 119 563 115 539 115 515 L 115 507 L 35 507 Z" unicode="‘" />
<glyph horiz-adv-x="254" d="M 219 737 L 219 730 C 219 693 207 655 183 616 C 159 577 128 541 90 507 L 17 513 C 27 521 39 532 53 546 C 67 560 80 577 93 596 C 105 614 116 635 125 658 C 134 680 139 704 139 729 L 139 737 L 219 737 Z" unicode="’" />
<glyph horiz-adv-x="254" d="M 219 110 L 219 103 C 219 66 207 28 183 -10 C 159 -49 128 -86 90 -120 L 17 -114 C 27 -106 39 -94 53 -80 C 67 -66 80 -49 93 -31 C 105 -12 116 8 125 31 C 134 53 139 77 139 102 L 139 110 L 219 110 Z" unicode="‚" />
<glyph horiz-adv-x="425" d="M 35 507 L 35 514 C 35 550 47 587 71 625 C 95 663 126 700 164 737 L 227 731 C 218 723 207 711 193 697 C 179 683 165 666 152 648 C 138 629 127 608 117 586 C 107 563 103 539 103 515 L 103 507 L 35 507 Z M 216 507 L 216 514 C 216 550 227 587 250 625 C 273 663 305 700 345 737 L 409 731 C 399 722 387 710 373 696 C 359 682 345 665 332 647 C 319 628 308 607 299 585 C 289 563 285 539 285 515 L 285 507 L 216 507 Z" unicode="“" />
<glyph horiz-adv-x="425" d="M 391 737 L 391 730 C 391 693 379 655 356 617 C 333 579 302 542 262 507 L 198 513 C 210 523 223 535 237 549 C 251 563 265 580 277 598 C 289 616 300 637 309 659 C 317 681 322 704 322 729 L 322 737 L 391 737 Z M 209 737 L 209 730 C 209 693 198 656 176 618 C 154 580 122 543 80 507 L 17 513 C 28 522 41 534 55 549 C 69 563 83 580 96 598 C 108 616 119 637 128 659 C 136 681 141 704 141 729 L 141 737 L 209 737 Z" unicode="”" />
<glyph horiz-adv-x="425" d="M 391 113 L 391 106 C 391 69 379 31 356 -6 C 333 -44 302 -81 262 -117 L 198 -111 C 210 -101 223 -88 237 -74 C 251 -60 265 -43 277 -25 C 289 -7 300 13 309 35 C 317 57 322 80 322 105 L 322 113 L 391 113 Z M 209 113 L 209 106 C 209 69 198 32 176 -5 C 154 -43 122 -80 80 -117 L 17 -111 C 28 -101 41 -89 55 -75 C 69 -60 83 -43 96 -25 C 108 -7 119 13 128 35 C 136 57 141 80 141 105 L 141 113 L 209 113 Z" unicode="„" />
<glyph horiz-adv-x="565" d="M 540 410 L 318 410 L 318 -179 L 241 -179 L 241 410 L 25 410 L 25 470 L 241 470 L 241 730 L 318 730 L 318 470 L 540 470 L 540 410 Z" unicode="†" />
<glyph horiz-adv-x="565" d="M 242 -179 L 242 131 L 28 131 L 28 191 L 242 191 L 242 398 L 28 398 L 28 458 L 242 458 L 242 730 L 318 730 L 318 458 L 537 458 L 537 398 L 318 398 L 318 191 L 537 191 L 537 131 L 318 131 L 318 -179 L 242 -179 Z" unicode="‡" />
<glyph horiz-adv-x="383" d="M 191 450 C 211 450 227 443 241 429 C 255 415 262 399 262 379 C 262 359 255 343 241 329 C 227 315 211 309 191 309 C 171 309 154 315 141 329 C 127 343 121 359 121 379 C 121 399 127 415 141 429 C 154 443 171 450 191 450 Z" unicode="•" />
<glyph horiz-adv-x="681" d="M 530 0 L 530 122 L 605 122 L 605 0 L 530 0 Z M 303 0 L 303 122 L 379 122 L 379 0 L 303 0 Z M 76 0 L 76 122 L 151 122 L 151 0 L 76 0 Z" unicode="…" />
<glyph horiz-adv-x="1204" d="M 211 350 C 189 350 167 354 147 363 C 127 372 109 385 94 402 C 78 418 66 439 57 463 C 47 487 43 515 43 545 C 43 571 47 596 55 620 C 63 644 75 664 90 682 C 104 700 122 714 143 725 C 163 735 186 741 210 741 C 235 741 258 735 279 725 C 299 715 317 701 331 683 C 345 665 357 645 365 622 C 373 598 377 574 377 548 C 377 520 373 495 365 471 C 357 447 345 426 331 408 C 316 390 298 375 278 365 C 258 355 235 350 211 350 Z M 132 0 L 619 730 L 695 730 L 207 0 L 132 0 Z M 111 545 C 111 501 120 467 140 444 C 159 420 182 409 208 409 C 240 409 264 421 282 447 C 300 472 309 505 309 545 C 309 584 300 616 284 642 C 268 668 243 681 211 681 C 180 681 156 668 138 643 C 120 617 111 585 111 545 Z M 995 -3 C 973 -3 951 1 931 10 C 911 19 893 32 878 49 C 862 65 850 86 841 110 C 831 134 827 162 827 192 C 827 218 831 243 839 267 C 847 291 859 311 874 329 C 888 347 906 361 927 372 C 947 382 970 388 994 388 C 1019 388 1042 382 1063 372 C 1083 362 1101 348 1115 330 C 1129 312 1141 292 1149 269 C 1157 245 1161 221 1161 195 C 1161 167 1157 142 1149 118 C 1141 94 1129 73 1115 55 C 1100 37 1082 22 1062 12 C 1042 2 1019 -3 995 -3 Z M 625 -3 C 603 -3 581 1 561 10 C 541 19 523 32 508 49 C 493 65 481 86 472 110 C 462 134 458 162 458 192 C 458 218 462 243 470 267 C 478 291 490 311 505 329 C 519 347 537 361 558 372 C 578 382 601 388 625 388 C 650 388 673 382 694 372 C 714 362 732 348 746 330 C 760 312 772 292 780 269 C 788 245 792 221 792 195 C 792 167 788 142 780 118 C 772 94 760 73 746 55 C 731 37 713 22 693 12 C 672 2 649 -3 625 -3 Z M 992 57 C 1024 57 1048 69 1066 94 C 1084 119 1093 152 1093 192 C 1093 231 1084 264 1068 290 C 1052 316 1027 329 995 329 C 964 329 940 316 922 290 C 904 264 895 232 895 192 C 895 148 904 114 924 91 C 943 68 966 57 992 57 Z M 623 57 C 655 57 679 69 697 94 C 715 119 724 152 724 192 C 724 231 715 264 699 290 C 682 316 657 329 625 329 C 594 329 570 316 552 290 C 534 264 526 232 526 192 C 526 148 535 114 555 91 C 574 68 597 57 623 57 Z" unicode="‰" />
<glyph horiz-adv-x="231" d="M 201 117 L 29 282 L 29 325 L 201 489 L 201 415 L 93 302 L 201 192 L 201 117 Z" unicode="‹" />
<glyph horiz-adv-x="232" d="M 30 490 L 203 324 L 203 282 L 30 118 L 30 191 L 138 304 L 30 414 L 30 490 Z" unicode="›" />
<glyph horiz-adv-x="145" d="M 300 730 L -80 0 L -145 0 L 235 730 L 300 730 Z" unicode="⁄" />
<glyph horiz-adv-x="325" d="M 15 458 L 15 503 L 207 739 L 250 739 L 250 507 L 314 507 L 314 458 L 250 458 L 250 373 L 188 373 L 188 458 L 15 458 Z M 67 498 L 190 498 L 190 653 L 67 498 Z" unicode="⁴" />
<glyph horiz-adv-x="568" d="M 564 117 C 543 79 513 48 474 24 C 434 0 391 -12 343 -12 C 281 -12 227 12 180 61 C 133 109 102 176 88 261 L 41 261 L 41 314 L 82 314 C 81 322 80 330 80 338 C 80 346 80 354 80 362 C 80 370 80 377 80 385 C 80 393 81 400 82 408 L 41 408 L 41 461 L 87 461 C 93 501 104 539 118 574 C 132 608 150 638 172 663 C 194 687 219 707 248 721 C 276 735 308 742 342 742 C 398 742 442 730 476 708 C 510 685 535 658 553 627 L 494 595 C 479 621 459 642 435 658 C 411 674 380 683 342 683 C 294 683 253 663 221 624 C 189 585 168 531 158 461 L 489 461 L 489 408 L 152 408 C 151 401 151 394 151 386 C 151 378 151 370 151 363 C 151 354 151 346 151 338 C 151 330 152 322 153 314 L 489 314 L 489 261 L 160 261 C 172 192 196 139 230 102 C 264 65 302 47 344 47 C 382 47 414 57 442 78 C 469 99 491 124 507 152 L 564 117 Z" unicode="€" />
<glyph horiz-adv-x="902" d="M 362 653 L 226 653 L 226 292 L 149 292 L 149 653 L 22 653 L 22 730 L 362 730 L 362 653 Z M 839 292 L 771 292 L 771 620 L 617 415 L 609 415 L 457 619 L 457 292 L 391 292 L 391 730 L 438 730 L 614 500 L 789 730 L 839 730 L 839 292 Z" unicode="™" />
<glyph horiz-adv-x="751" d="M 49 0 L 49 69 L 272 69 L 272 146 C 238 158 206 175 178 195 C 150 215 125 238 105 264 C 84 289 68 317 57 348 C 45 378 40 410 40 443 C 40 485 48 524 64 561 C 80 598 102 630 131 657 C 159 684 194 705 235 721 C 276 737 322 745 372 745 C 424 745 470 737 512 721 C 554 705 589 683 619 656 C 648 629 670 597 686 560 C 702 523 710 484 710 442 C 710 376 689 316 648 264 C 607 212 550 172 478 146 L 478 69 L 701 69 L 701 0 L 423 0 L 423 186 C 486 210 536 246 573 292 C 610 338 629 387 629 439 C 629 474 622 507 609 537 C 596 567 578 592 556 614 C 533 636 506 653 474 665 C 442 677 408 683 372 683 C 336 683 302 676 272 664 C 241 652 215 635 193 614 C 171 592 153 566 141 536 C 128 506 122 473 122 437 C 122 386 140 338 176 292 C 212 246 263 211 327 186 L 327 0 L 49 0 Z" unicode="Ω" />
<glyph horiz-adv-x="603" d="M 560 290 C 560 239 553 195 539 157 C 525 119 507 88 484 63 C 460 38 432 19 400 7 C 368 -4 333 -11 297 -11 C 264 -11 232 -5 202 6 C 171 18 144 34 120 56 C 96 78 77 104 63 135 C 49 165 42 199 42 237 C 42 271 48 303 61 335 C 73 366 91 393 113 417 C 135 440 162 459 193 473 C 223 487 256 495 292 495 C 340 495 383 482 420 458 C 456 433 482 402 497 365 C 489 437 475 498 453 548 C 431 598 406 638 377 669 C 347 699 316 722 282 736 C 248 750 215 758 184 759 L 220 802 C 252 802 288 792 328 774 C 368 756 405 727 439 687 C 473 647 501 594 525 528 C 548 462 560 383 560 290 Z M 299 42 C 353 42 397 61 431 99 C 465 137 483 188 483 251 C 483 276 478 300 470 324 C 461 347 449 367 433 384 C 417 401 398 415 376 425 C 353 435 327 441 299 441 C 273 441 249 435 227 425 C 205 415 186 401 170 383 C 154 365 141 344 132 320 C 123 296 119 269 119 241 C 119 179 136 131 171 95 C 205 59 248 42 299 42 Z" unicode="∂" />
<glyph horiz-adv-x="639" d="M 638 0 L 2 0 L 307 730 L 334 730 L 638 0 Z M 542 57 L 318 601 L 94 57 L 542 57 Z" unicode="∆" />
<glyph horiz-adv-x="700" d="M 213 663 L 213 0 L 137 0 L 137 663 L 15 663 L 15 730 L 685 730 L 685 663 L 568 663 L 568 0 L 491 0 L 491 663 L 213 663 Z" unicode="∏" />
<glyph horiz-adv-x="618" d="M 154 659 L 410 307 L 121 -108 L 572 -108 L 572 -179 L -9 -179 L 328 306 L 21 730 L 551 730 L 551 659 L 154 659 Z" unicode="∑" />
<glyph horiz-adv-x="512" d="M 470 300 L 42 300 L 42 364 L 470 364 L 470 300 Z" unicode="−" />
<glyph horiz-adv-x="510" d="M 498 730 L 198 0 L 186 0 L 15 326 L 69 364 L 201 103 L 450 730 L 498 730 Z" unicode="√" />
<glyph horiz-adv-x="331" d="M 110 -39 L 170 633 C 172 667 185 693 208 711 C 231 729 255 739 279 739 C 291 739 303 738 314 737 C 325 736 332 735 335 735 L 329 670 C 327 670 323 671 317 672 C 311 672 305 673 299 673 C 280 673 264 666 252 654 C 240 641 232 621 230 595 L 173 -65 C 170 -97 157 -124 134 -146 C 111 -168 83 -179 51 -179 C 34 -179 18 -177 4 -174 C -10 -170 -21 -167 -29 -163 L -21 -110 C -17 -111 -10 -113 0 -115 C 9 -117 18 -119 27 -119 C 47 -119 66 -112 82 -98 C 98 -84 107 -64 110 -39 Z" unicode="∫" />
<glyph horiz-adv-x="500" d="M 402 493 L 456 493 C 455 444 447 406 431 378 C 415 350 390 337 356 337 C 333 337 313 342 297 353 C 280 363 265 375 252 389 C 237 402 223 414 209 424 C 195 434 180 440 165 440 C 149 440 134 431 119 413 C 104 395 97 370 97 340 L 44 340 C 44 388 54 425 74 453 C 94 481 121 495 154 495 C 176 495 196 488 214 476 C 232 464 248 451 262 437 C 274 425 287 414 301 404 C 315 394 329 389 344 389 C 364 389 379 397 388 414 C 397 430 402 457 402 493 Z M 402 322 L 456 322 C 455 273 447 235 431 207 C 415 179 390 165 356 165 C 333 165 313 170 297 181 C 280 192 265 204 252 217 C 237 231 223 243 209 253 C 195 263 180 268 165 268 C 149 268 134 259 119 241 C 104 223 97 199 97 168 L 44 168 C 44 216 54 254 74 282 C 94 310 121 324 154 324 C 176 324 196 317 214 305 C 232 293 248 280 262 266 C 274 254 287 243 301 233 C 315 223 329 218 344 218 C 364 218 379 226 388 243 C 397 259 402 286 402 322 Z" unicode="≈" />
<glyph horiz-adv-x="500" d="M 457 182 L 215 182 L 163 76 L 124 94 L 167 182 L 65 182 L 65 247 L 199 247 L 269 392 L 65 392 L 65 455 L 300 455 L 351 560 L 391 542 L 348 455 L 457 455 L 457 392 L 318 392 L 247 247 L 457 247 L 457 182 Z" unicode="≠" />
<glyph horiz-adv-x="500" d="M 62 300 L 62 350 L 433 554 L 433 490 L 134 327 L 433 161 L 433 97 L 62 300 Z M 61 77 L 433 77 L 433 27 L 61 27 L 61 77 Z" unicode="≤" />
<glyph horiz-adv-x="500" d="M 432 300 L 61 97 L 61 161 L 360 327 L 61 490 L 61 554 L 432 350 L 432 300 Z M 433 77 L 433 27 L 61 27 L 61 77 L 433 77 Z" unicode="≥" />
<glyph horiz-adv-x="526" d="M 495 326 L 268 -9 L 258 -9 L 31 326 L 31 337 L 258 671 L 268 671 L 495 337 L 495 326 Z M 425 327 L 425 336 L 268 573 L 259 573 L 101 336 L 101 327 L 259 89 L 268 89 L 425 327 Z" unicode="◊" />
<glyph horiz-adv-x="730" d="M 448 688 L 282 688 L 282 730 L 448 730 L 448 688 Z M 115 282 L 71 282 L 71 448 L 115 448 L 115 282 Z M 659 282 L 615 282 L 615 448 L 659 448 L 659 282 Z M 418 312 L 312 312 L 312 418 L 418 418 L 418 312 Z M 448 0 L 282 0 L 282 43 L 448 43 L 448 0 Z" unicode="" />
<glyph horiz-adv-x="666" d="M 577 656 L 496 656 L 496 731 L 577 731 L 577 656 Z M 395 469 L 210 469 L 210 0 L 136 0 L 136 469 L 17 469 L 17 533 L 136 533 L 136 596 C 136 631 141 662 152 688 C 163 714 177 735 195 752 C 213 768 233 781 255 789 C 277 797 299 802 322 802 C 336 802 352 800 368 797 C 384 794 397 790 405 786 L 382 718 C 376 720 367 723 357 726 C 346 728 335 730 325 730 C 313 730 300 727 286 723 C 272 718 260 710 249 700 C 237 690 228 677 220 661 C 212 645 209 625 209 603 L 209 533 L 395 533 L 395 469 Z M 574 0 L 498 0 L 498 533 L 574 533 L 574 0 Z" unicode="ﬁ" />
<glyph horiz-adv-x="683" d="M 474 114 L 474 800 L 549 800 L 549 137 C 549 113 555 94 568 81 C 580 67 597 61 619 61 C 627 61 636 61 646 63 C 656 64 663 66 669 68 L 671 3 C 664 0 654 -1 642 -3 C 629 -5 616 -6 604 -6 C 570 -6 539 3 513 23 C 487 43 474 73 474 114 Z M 393 469 L 208 469 L 208 0 L 134 0 L 134 469 L 15 469 L 15 533 L 134 533 L 134 596 C 134 631 139 662 150 688 C 161 714 175 735 193 752 C 211 768 231 781 253 789 C 275 797 297 802 320 802 C 334 802 350 800 366 797 C 382 794 395 790 403 786 L 380 718 C 374 720 365 723 355 726 C 344 728 333 730 323 730 C 311 730 298 727 284 723 C 270 718 258 710 247 700 C 235 690 226 677 218 661 C 210 645 207 625 207 603 L 207 533 L 393 533 L 393 469 Z" unicode="ﬂ" />
</font>
</defs>
</svg>
