<?xml version="1.0" encoding="utf-8"?>
<!-- Generator: Adobe Illustrator 19.0.0, SVG Export Plug-In . SVG Version: 6.00 Build 0)  -->
<svg version="1.1" id="Layer_1" xmlns="http://www.w3.org/2000/svg" xmlns:xlink="http://www.w3.org/1999/xlink" x="0px" y="0px"
	 viewBox="0 0 40 40" style="enable-background:new 0 0 40 40;" xml:space="preserve">
<style type="text/css">
	.st0{fill:#16783C;}
</style>
<path id="XMLID_1_" class="st0" d="M37,10.1H3.1c-1.5,0-2.7-1.2-2.7-2.7v0c0-1.5,1.2-2.7,2.7-2.7H37c1.5,0,2.7,1.2,2.7,2.7v0
	C39.7,8.9,38.5,10.1,37,10.1z"/>
<path id="XMLID_2_" class="st0" d="M37,35.9H3.1c-1.5,0-2.7-1.2-2.7-2.7v0c0-1.5,1.2-2.7,2.7-2.7H37c1.5,0,2.7,1.2,2.7,2.7v0
	C39.7,34.7,38.5,35.9,37,35.9z"/>
<path id="XMLID_3_" class="st0" d="M37,22.9H3.1c-1.5,0-2.7-1.2-2.7-2.7v0c0-1.5,1.2-2.7,2.7-2.7H37c1.5,0,2.7,1.2,2.7,2.7v0
	C39.7,21.6,38.5,22.9,37,22.9z"/>
</svg>
