<svg id="Layer_1" xmlns="http://www.w3.org/2000/svg" viewBox="0 0 40 40"><style>.st0{fill:#16783c}</style><path id="XMLID_1_" class="st0" d="M37 10.1H3.1C1.6 10.1.4 8.9.4 7.4c0-1.5 1.2-2.7 2.7-2.7H37c1.5 0 2.7 1.2 2.7 2.7 0 1.5-1.2 2.7-2.7 2.7z"/><path id="XMLID_2_" class="st0" d="M37 35.9H3.1c-1.5 0-2.7-1.2-2.7-2.7 0-1.5 1.2-2.7 2.7-2.7H37c1.5 0 2.7 1.2 2.7 2.7 0 1.5-1.2 2.7-2.7 2.7z"/><path id="XMLID_3_" class="st0" d="M37 22.9H3.1c-1.5 0-2.7-1.2-2.7-2.7 0-1.5 1.2-2.7 2.7-2.7H37c1.5 0 2.7 1.2 2.7 2.7 0 1.4-1.2 2.7-2.7 2.7z"/></svg>